<?xml version="1.0" encoding="UTF-8"?>
<svg xmlns="http://www.w3.org/2000/svg" xmlns:xlink="http://www.w3.org/1999/xlink" viewBox="0 0 345.646 181.297">
<defs>
<g>
<g id="glyph-0-0">
<path d="M 2.84375 -5.71875 C 1.953125 -5.71875 1.3125 -5.359375 0.75 -4.671875 L 1.3125 -4.234375 C 1.796875 -4.8125 2.25 -5.015625 2.84375 -5.015625 C 3.5625 -5.015625 4.0625 -4.59375 4.0625 -3.9375 C 4.0625 -3.125 3.765625 -2.65625 0.890625 -0.671875 L 0.890625 0 L 4.9375 0 L 5.046875 -0.71875 L 1.984375 -0.71875 C 4.71875 -2.390625 4.953125 -3.046875 4.953125 -3.953125 C 4.953125 -4.96875 4.140625 -5.71875 2.84375 -5.71875 Z M 2.84375 -5.71875 "/>
</g>
<g id="glyph-0-1">
<path d="M 2.75 -5.71875 C 1.984375 -5.71875 1.390625 -5.46875 0.8125 -4.9375 L 1.25 -4.421875 C 1.71875 -4.84375 2.109375 -5.03125 2.6875 -5.03125 C 3.453125 -5.03125 3.890625 -4.640625 3.890625 -4.015625 C 3.890625 -3.265625 3.328125 -2.84375 2.578125 -2.84375 L 2.21875 -2.84375 L 2.109375 -2.171875 L 2.625 -2.171875 C 3.53125 -2.171875 4.078125 -1.796875 4.078125 -0.921875 C 4.078125 -0.078125 3.5625 0.453125 2.609375 0.453125 C 2.03125 0.453125 1.5625 0.265625 1.140625 -0.203125 L 0.625 0.28125 C 1.125 0.875 1.8125 1.15625 2.625 1.15625 C 4.0625 1.15625 4.953125 0.296875 4.953125 -0.875 C 4.953125 -1.921875 4.34375 -2.46875 3.453125 -2.5625 C 4.171875 -2.71875 4.75 -3.265625 4.75 -4.0625 C 4.75 -4.921875 4.0625 -5.71875 2.75 -5.71875 Z M 2.75 -5.71875 "/>
</g>
<g id="glyph-0-2">
<path d="M 1.515625 0 L 2.953125 -2.25 L 4.40625 0 L 5.421875 0 L 3.484375 -2.8125 L 5.1875 -5.25 L 4.234375 -5.25 L 3 -3.296875 L 1.78125 -5.25 L 0.78125 -5.25 L 2.5 -2.765625 L 0.5625 0 Z M 1.515625 0 "/>
</g>
<g id="glyph-1-0">
<path d="M 1.8125 0 L 3.546875 -2.703125 L 5.28125 0 L 6.5 0 L 4.1875 -3.375 L 6.234375 -6.296875 L 5.0625 -6.296875 L 3.59375 -3.953125 L 2.140625 -6.296875 L 0.9375 -6.296875 L 2.984375 -3.328125 L 0.671875 0 Z M 1.8125 0 "/>
</g>
<g id="glyph-1-1">
<path d="M 5.90625 -5.28125 L 1.265625 -5.28125 L 1.265625 -4.421875 L 5.90625 -4.421875 Z M 5.90625 -3.015625 L 1.265625 -3.015625 L 1.265625 -2.15625 L 5.90625 -2.15625 Z M 5.90625 -3.015625 "/>
</g>
<g id="glyph-1-2">
<path d="M 6.3125 -0.828125 L 4.609375 -0.828125 L 4.609375 -6.734375 L 3.71875 -6.734375 L 1.25 -5.203125 L 1.703125 -4.484375 L 3.59375 -5.640625 L 3.59375 -0.828125 L 1.5625 -0.828125 L 1.5625 0 L 3.59375 0 L 3.59375 0.015625 L 4.609375 0.015625 L 4.609375 0 L 6.3125 0 Z M 6.3125 -0.828125 "/>
</g>
<g id="glyph-1-3">
<path d="M 6.53125 -1.28125 L 5.328125 -1.28125 L 5.328125 -3.484375 L 4.484375 -3.484375 L 4.40625 -1.28125 L 1.8125 -1.28125 L 4 -6.5 L 3.171875 -6.84375 L 0.75 -1.203125 L 0.75 -0.484375 L 4.40625 -0.484375 L 4.390625 1.265625 L 5.328125 1.265625 L 5.328125 -0.484375 L 6.53125 -0.484375 Z M 6.53125 -1.28125 "/>
</g>
<g id="glyph-1-4">
<path d="M 4.046875 -5.921875 L 3.109375 -5.921875 L 3.109375 -4.140625 L 1.390625 -4.140625 L 1.390625 -3.296875 L 3.109375 -3.296875 L 3.109375 -1.515625 L 4.046875 -1.515625 L 4.046875 -3.296875 L 5.78125 -3.296875 L 5.78125 -4.140625 L 4.046875 -4.140625 Z M 4.046875 -5.921875 "/>
</g>
<g id="glyph-1-5">
<path d="M 3.453125 -6.84375 C 1.96875 -6.84375 0.78125 -5.84375 0.78125 -4.265625 C 0.78125 -2.75 1.78125 -1.671875 3.171875 -1.6875 C 4.0625 -1.703125 4.734375 -2.078125 5.078125 -2.6875 L 5.078125 -2.578125 C 5.0625 -1.03125 3.734375 0.078125 1.515625 0.671875 L 1.75 1.4375 C 4.828125 0.578125 6.140625 -0.578125 6.140625 -3.65625 C 6.140625 -5.625 5.296875 -6.84375 3.453125 -6.84375 Z M 3.34375 -2.484375 C 2.40625 -2.46875 1.84375 -3.109375 1.84375 -4.234375 C 1.84375 -5.3125 2.390625 -6.03125 3.453125 -6.03125 C 4.5625 -6.03125 5.109375 -5.421875 5.109375 -3.578125 C 4.65625 -2.828125 4.109375 -2.515625 3.34375 -2.484375 Z M 3.34375 -2.484375 "/>
</g>
</g>
<clipPath id="clip-0">
<path clip-rule="nonzero" d="M 315 132 L 345.644531 132 L 345.644531 172 L 315 172 Z M 315 132 "/>
</clipPath>
</defs>
<path fill="none" stroke-width="1.19553" stroke-linecap="butt" stroke-linejoin="miter" stroke="rgb(26.667786%,44.706726%,76.861572%)" stroke-opacity="1" stroke-miterlimit="10" d="M -82.205875 -99.214 L 246.610531 -99.214 " transform="matrix(1,0,0,-1,87.784,52.536)"/>
<path fill-rule="nonzero" fill="rgb(26.667786%,44.706726%,76.861572%)" fill-opacity="1" d="M 338.578125 151.75 L 332.757812 149.183594 L 334.691406 151.75 L 332.757812 154.316406 Z M 338.578125 151.75 "/>
<g clip-path="url(#clip-0)">
<path fill="none" stroke-width="1.19553" stroke-linecap="butt" stroke-linejoin="miter" stroke="rgb(26.667786%,44.706726%,76.861572%)" stroke-opacity="1" stroke-miterlimit="10" d="M 7.578675 -0.00018 L 1.758363 2.566226 L 3.691956 -0.00018 L 1.758363 -2.566586 Z M 7.578675 -0.00018 " transform="matrix(1,0,0,-1,330.99945,151.74982)"/>
</g>
<path fill="none" stroke-width="0.69739" stroke-linecap="round" stroke-linejoin="miter" stroke="rgb(26.667786%,44.706726%,76.861572%)" stroke-opacity="1" stroke-miterlimit="10" d="M 68.05975 5.559438 C 68.05975 11.69225 64.786312 17.360219 59.477719 20.426625 C 55.954281 22.461781 51.821469 23.176625 47.817562 22.446156 " transform="matrix(1,0,0,-1,87.784,52.536)"/>
<path fill="none" stroke-width="0.69739" stroke-linecap="round" stroke-linejoin="miter" stroke="rgb(26.667786%,44.706726%,76.861572%)" stroke-opacity="1" stroke-miterlimit="10" d="M 58.555844 -9.803844 C 64.380062 -6.9015 68.063656 -0.952281 68.063656 5.555531 " transform="matrix(1,0,0,-1,87.784,52.536)"/>
<path fill="none" stroke-width="0.69739" stroke-linecap="round" stroke-linejoin="miter" stroke="rgb(26.667786%,44.706726%,76.861572%)" stroke-opacity="1" stroke-miterlimit="10" d="M 47.821469 22.446156 C 46.602719 28.164906 42.426937 32.801625 36.864437 34.602406 C 32.610531 35.985219 27.969906 35.563344 24.032406 33.434438 " transform="matrix(1,0,0,-1,87.784,52.536)"/>
<path fill="none" stroke-width="0.69739" stroke-linecap="round" stroke-linejoin="miter" stroke="rgb(26.667786%,44.706726%,76.861572%)" stroke-opacity="1" stroke-miterlimit="10" d="M 29.989437 35.301625 C 26.919125 41.782094 20.62225 46.133656 13.473812 46.715688 C 7.399594 47.207875 1.426937 44.911 -2.75275 40.477406 " transform="matrix(1,0,0,-1,87.784,52.536)"/>
<path fill="none" stroke-width="0.69739" stroke-linecap="round" stroke-linejoin="miter" stroke="rgb(26.667786%,44.706726%,76.861572%)" stroke-opacity="1" stroke-miterlimit="10" d="M -2.756656 40.477406 C -9.991031 44.274281 -18.897281 42.571156 -24.217594 36.368031 " transform="matrix(1,0,0,-1,87.784,52.536)"/>
<path fill="none" stroke-width="0.69739" stroke-linecap="round" stroke-linejoin="miter" stroke="rgb(26.667786%,44.706726%,76.861572%)" stroke-opacity="1" stroke-miterlimit="10" d="M -20.444156 33.297719 C -27.522281 40.786 -39.330875 41.121938 -46.823063 34.047719 C -50.924625 30.168813 -53.053531 24.641469 -52.608219 19.012563 " transform="matrix(1,0,0,-1,87.784,52.536)"/>
<path fill="none" stroke-width="0.69739" stroke-linecap="round" stroke-linejoin="miter" stroke="rgb(26.667786%,44.706726%,76.861572%)" stroke-opacity="1" stroke-miterlimit="10" d="M -52.604313 19.008656 C -60.201969 16.118031 -64.018375 7.614125 -61.12775 0.0164688 C -60.354313 -2.010875 -59.143375 -3.842906 -57.580875 -5.350719 " transform="matrix(1,0,0,-1,87.784,52.536)"/>
<path fill="none" stroke-width="0.69739" stroke-linecap="round" stroke-linejoin="miter" stroke="rgb(26.667786%,44.706726%,76.861572%)" stroke-opacity="1" stroke-miterlimit="10" d="M -57.584781 -5.350719 C -62.733219 -12.503062 -61.108219 -22.479625 -53.955875 -27.631969 C -49.326969 -30.964 -43.268375 -31.573375 -38.069156 -29.233531 C -34.455875 -27.604625 -31.573063 -24.686656 -29.991031 -21.049937 " transform="matrix(1,0,0,-1,87.784,52.536)"/>
<path fill="none" stroke-width="0.69739" stroke-linecap="round" stroke-linejoin="miter" stroke="rgb(26.667786%,44.706726%,76.861572%)" stroke-opacity="1" stroke-miterlimit="10" d="M -34.264469 -26.823375 C -32.795719 -31.280406 -29.061344 -34.624156 -24.463688 -35.581187 C -20.276188 -36.456187 -15.924625 -35.237437 -12.799625 -32.315562 " transform="matrix(1,0,0,-1,87.784,52.536)"/>
<path fill="none" stroke-width="0.69739" stroke-linecap="round" stroke-linejoin="miter" stroke="rgb(26.667786%,44.706726%,76.861572%)" stroke-opacity="1" stroke-miterlimit="10" d="M -12.795719 -32.319469 C -9.639469 -39.385875 -1.350406 -42.553844 5.716 -39.393687 C 9.016781 -37.921031 11.626156 -35.221812 12.985531 -31.87025 " transform="matrix(1,0,0,-1,87.784,52.536)"/>
<path fill="none" stroke-width="0.69739" stroke-linecap="round" stroke-linejoin="miter" stroke="rgb(26.667786%,44.706726%,76.861572%)" stroke-opacity="1" stroke-miterlimit="10" d="M 10.508969 -28.80775 C 13.981625 -34.831187 21.680844 -36.893687 27.704281 -33.421031 C 30.637875 -31.725719 32.766781 -28.917125 33.606625 -25.635875 " transform="matrix(1,0,0,-1,87.784,52.536)"/>
<path fill="none" stroke-width="0.69739" stroke-linecap="round" stroke-linejoin="miter" stroke="rgb(26.667786%,44.706726%,76.861572%)" stroke-opacity="1" stroke-miterlimit="10" d="M 59.333187 -14.608531 C 59.333187 -12.975719 59.067562 -11.354625 58.555844 -9.803844 " transform="matrix(1,0,0,-1,87.784,52.536)"/>
<path fill="none" stroke-width="0.69739" stroke-linecap="round" stroke-linejoin="miter" stroke="rgb(26.667786%,44.706726%,76.861572%)" stroke-opacity="1" stroke-miterlimit="10" d="M 33.606625 -25.635875 C 39.700375 -31.43275 49.337094 -31.194469 55.133969 -25.104625 C 57.829281 -22.272594 59.333187 -18.514781 59.333187 -14.604625 " transform="matrix(1,0,0,-1,87.784,52.536)"/>
<path fill-rule="nonzero" fill="rgb(100%,100%,100%)" fill-opacity="1" stroke-width="1.39478" stroke-linecap="butt" stroke-linejoin="miter" stroke="rgb(18.429565%,32.157898%,56.077576%)" stroke-opacity="1" stroke-miterlimit="10" d="M 8.505062 -2.835094 L 36.852719 -2.835094 L 36.852719 22.676625 L 8.505062 22.676625 Z M 8.505062 -2.835094 " transform="matrix(1,0,0,-1,87.784,52.536)"/>
<g fill="rgb(0%,0%,0%)" fill-opacity="1">
<use xlink:href="#glyph-0-0" x="104.483" y="44.797"/>
<use xlink:href="#glyph-0-1" x="110.46056" y="44.797"/>
</g>
<g fill="rgb(0%,0%,0%)" fill-opacity="1">
<use xlink:href="#glyph-0-2" x="19.598" y="114.622"/>
</g>
<path fill="none" stroke-width="1.79329" stroke-linecap="butt" stroke-linejoin="miter" stroke="rgb(26.667786%,44.706726%,76.861572%)" stroke-opacity="1" stroke-miterlimit="10" d="M -65.198063 -47.272594 C -44.420719 -17.600719 -23.561344 -8.190562 2.99725 7.145375 " transform="matrix(1,0,0,-1,87.784,52.536)"/>
<path fill-rule="nonzero" fill="rgb(26.667786%,44.706726%,76.861572%)" fill-opacity="1" stroke-width="1.53073" stroke-linecap="butt" stroke-linejoin="miter" stroke="rgb(26.667786%,44.706726%,76.861572%)" stroke-opacity="1" stroke-miterlimit="10" d="M 7.161276 -0.00118636 L 2.251544 2.174834 L 3.900902 0.000217495 L 2.253055 -2.174285 Z M 7.161276 -0.00118636 " transform="matrix(0.86601,-0.49998,-0.49998,-0.86601,87.73517,47.14978)"/>
<g fill="rgb(0%,0%,0%)" fill-opacity="1">
<use xlink:href="#glyph-1-0" x="51.918" y="171.591"/>
</g>
<g fill="rgb(0%,0%,0%)" fill-opacity="1">
<use xlink:href="#glyph-1-1" x="66.26424" y="171.591"/>
</g>
<g fill="rgb(0%,0%,0%)" fill-opacity="1">
<use xlink:href="#glyph-1-2" x="80.61048" y="171.591"/>
<use xlink:href="#glyph-1-3" x="87.7836" y="171.591"/>
</g>
<g fill="rgb(0%,0%,0%)" fill-opacity="1">
<use xlink:href="#glyph-1-4" x="102.12984" y="171.591"/>
</g>
<g fill="rgb(0%,0%,0%)" fill-opacity="1">
<use xlink:href="#glyph-1-5" x="116.47608" y="171.591"/>
</g>
</svg>
