<?xml version="1.0" encoding="UTF-8" standalone="no"?>
<!-- Created with Inkscape (http://www.inkscape.org/) -->

<svg
   width="210mm"
   height="297mm"
   viewBox="0 0 210 297"
   version="1.1"
   id="svg5"
   inkscape:version="1.1.2 (0a00cf5339, 2022-02-04)"
   sodipodi:docname="drawing.svg"
   xmlns:inkscape="http://www.inkscape.org/namespaces/inkscape"
   xmlns:sodipodi="http://sodipodi.sourceforge.net/DTD/sodipodi-0.dtd"
   xmlns="http://www.w3.org/2000/svg"
   xmlns:svg="http://www.w3.org/2000/svg">
  <sodipodi:namedview
     id="namedview7"
     pagecolor="#ffffff"
     bordercolor="#666666"
     borderopacity="1.0"
     inkscape:pageshadow="2"
     inkscape:pageopacity="0.0"
     inkscape:pagecheckerboard="0"
     inkscape:document-units="mm"
     showgrid="false"
     inkscape:zoom="0.70710678"
     inkscape:cx="-465.98337"
     inkscape:cy="327.39044"
     inkscape:window-width="2579"
     inkscape:window-height="1440"
     inkscape:window-x="861"
     inkscape:window-y="0"
     inkscape:window-maximized="0"
     inkscape:current-layer="layer1" />
  <defs
     id="defs2">
    <inkscape:path-effect
       effect="powerstroke"
       id="path-effect11673"
       is_visible="true"
       lpeversion="1"
       offset_points="1.4428312,0.39598131 | 3.9201409,1.7596498 | 0.049911558,1.7168159"
       not_jump="false"
       sort_points="true"
       interpolator_type="CentripetalCatmullRom"
       interpolator_beta="0.2"
       start_linecap_type="zerowidth"
       linejoin_type="round"
       miter_limit="4"
       scale_width="1"
       end_linecap_type="zerowidth" />
    <inkscape:path-effect
       effect="powerstroke"
       id="path-effect8642"
       is_visible="true"
       lpeversion="1"
       offset_points="0.18661852,0.36810508 | 0.0035330829,0.14721139 | 0.51178246,0.62175604 | 0.81130084,0.32584583 | 0.97075218,0.230391"
       not_jump="false"
       sort_points="true"
       interpolator_type="CentripetalCatmullRom"
       interpolator_beta="0.2"
       start_linecap_type="zerowidth"
       linejoin_type="round"
       miter_limit="4"
       scale_width="1"
       end_linecap_type="zerowidth" />
    <inkscape:path-effect
       effect="powerstroke"
       id="path-effect5446"
       is_visible="true"
       lpeversion="1"
       offset_points="2.3057358,-0.30659854 | 0.9780408,1.0421296 | 3.8170749,0.59408337"
       not_jump="false"
       sort_points="true"
       interpolator_type="CentripetalCatmullRom"
       interpolator_beta="0.2"
       start_linecap_type="zerowidth"
       linejoin_type="round"
       miter_limit="4"
       scale_width="1"
       end_linecap_type="zerowidth" />
    <inkscape:path-effect
       effect="powerstroke"
       id="path-effect5444"
       is_visible="true"
       lpeversion="1"
       offset_points="2.5,0.22849999"
       not_jump="false"
       sort_points="true"
       interpolator_type="CentripetalCatmullRom"
       interpolator_beta="0.2"
       start_linecap_type="zerowidth"
       linejoin_type="round"
       miter_limit="4"
       scale_width="1"
       end_linecap_type="zerowidth" />
    <inkscape:path-effect
       effect="powerstroke"
       id="path-effect5366"
       is_visible="true"
       lpeversion="1"
       offset_points="2.5,0.86449999"
       not_jump="false"
       sort_points="true"
       interpolator_type="CentripetalCatmullRom"
       interpolator_beta="0.13017751"
       start_linecap_type="zerowidth"
       linejoin_type="round"
       miter_limit="4"
       scale_width="1"
       end_linecap_type="butt" />
    <inkscape:path-effect
       effect="powerstroke"
       id="path-effect5269"
       is_visible="true"
       lpeversion="1"
       offset_points="2.5,0.1322915"
       not_jump="false"
       sort_points="true"
       interpolator_type="CentripetalCatmullRom"
       interpolator_beta="0.2"
       start_linecap_type="zerowidth"
       linejoin_type="round"
       miter_limit="4"
       scale_width="1"
       end_linecap_type="zerowidth" />
    <inkscape:path-effect
       effect="powerstroke"
       id="path-effect2113"
       is_visible="true"
       lpeversion="1"
       offset_points="0.070802273,0.68416366 | 0.5,0.86449999 | 1,1.1979447 | 0.88649802,0.66220317"
       not_jump="false"
       sort_points="true"
       interpolator_type="CentripetalCatmullRom"
       interpolator_beta="0.2"
       start_linecap_type="zerowidth"
       linejoin_type="round"
       miter_limit="4"
       scale_width="1"
       end_linecap_type="zerowidth" />
    <inkscape:path-effect
       effect="powerstroke"
       id="path-effect1055"
       is_visible="true"
       lpeversion="1"
       offset_points="0.17047374,1.2027827 | 1.6795195,-0.25211907 | 1.0624287,0.45471819 | 3.4236414,0.92865162"
       not_jump="false"
       sort_points="true"
       interpolator_type="CentripetalCatmullRom"
       interpolator_beta="0.2"
       start_linecap_type="zerowidth"
       linejoin_type="round"
       miter_limit="4"
       scale_width="1"
       end_linecap_type="zerowidth" />
    <inkscape:path-effect
       effect="skeletal"
       id="path-effect1015"
       is_visible="true"
       lpeversion="1"
       pattern="M 0,0 H 1"
       copytype="single_stretched"
       prop_scale="1"
       scale_y_rel="false"
       spacing="0"
       normal_offset="0"
       tang_offset="0"
       prop_units="false"
       vertical_pattern="false"
       hide_knot="false"
       fuse_tolerance="0" />
    <inkscape:path-effect
       effect="powerstroke"
       id="path-effect3399"
       is_visible="true"
       lpeversion="1"
       offset_points="0.48129232,1.3673184 | 1.9996387,0.6130163 | 3.729133,1.115299"
       not_jump="false"
       sort_points="true"
       interpolator_type="CentripetalCatmullRom"
       interpolator_beta="0.2"
       start_linecap_type="zerowidth"
       linejoin_type="round"
       miter_limit="4"
       scale_width="1"
       end_linecap_type="zerowidth" />
    <inkscape:path-effect
       effect="powerstroke"
       id="path-effect2789"
       is_visible="true"
       lpeversion="1"
       offset_points="0.068549149,0.34086369 | 0.39109411,1.4989821 | 1.9079286,1.5081217"
       not_jump="false"
       sort_points="true"
       interpolator_type="CentripetalCatmullRom"
       interpolator_beta="0.2"
       start_linecap_type="zerowidth"
       linejoin_type="round"
       miter_limit="4"
       scale_width="1"
       end_linecap_type="zerowidth" />
    <inkscape:path-effect
       effect="powerstroke"
       id="path-effect1929"
       is_visible="true"
       lpeversion="1"
       offset_points="0.2,0.86449999 | 0.35756986,1.2499319 | 0.98568256,1.269644"
       not_jump="false"
       sort_points="true"
       interpolator_type="CentripetalCatmullRom"
       interpolator_beta="0.2"
       start_linecap_type="zerowidth"
       linejoin_type="round"
       miter_limit="4"
       scale_width="1"
       end_linecap_type="zerowidth" />
    <inkscape:path-effect
       effect="knot"
       id="path-effect1927"
       is_visible="true"
       lpeversion="1"
       switcher_size="15"
       interruption_width="3"
       prop_to_stroke_width="true"
       add_stroke_width="inkscape_1.0_and_up"
       both="false"
       inverse_width="false"
       add_other_stroke_width="inkscape_1.0_and_up"
       crossing_points_vector="" />
  </defs>
  <g
     inkscape:label="Layer 1"
     inkscape:groupmode="layer"
     id="layer1">
    <path
       style="fill:#000000;fill-rule:nonzero;stroke:none;stroke-width:1.729;stroke-linecap:round;stroke-linejoin:miter;stroke-miterlimit:4;stroke-dasharray:none;stroke-opacity:1"
       d="m 44.791267,204.36589 c 0.0334,0.0682 0.187997,0.1689 0.834957,0.0204 0.652305,-0.14977 1.607995,-0.51369 2.599796,-1.00802 0.542125,-0.2702 1.080083,-0.55766 1.604274,-0.85868 0.9544,-0.54808 2.297655,-1.38961 4.060104,-2.75237 1.288468,-0.99627 3.629107,-2.81692 6.18485,-5.37315 3.571956,-3.57263 7.396959,-8.40563 10.111691,-14.58891 1.856785,-4.22916 2.892867,-8.41751 3.291527,-12.26947 0.386171,-3.73129 0.116574,-6.71069 -0.2843,-7.86635 -0.374436,-1.07944 -1.108318,-1.12379 -1.320377,-1.33129 -0.199739,0.23956 -0.892922,0.34168 -1.218163,1.39293 -0.347753,1.12402 -0.522634,3.89017 -1.083831,7.28528 -0.584784,3.53781 -1.502815,7.26932 -3.107599,11.21169 -2.336325,5.7395 -5.523279,10.40305 -8.659415,14.05822 -2.233506,2.60316 -4.294142,4.51738 -5.490848,5.54092 -1.311361,1.12162 -3.134703,2.58289 -3.642789,2.99257 -0.457376,0.36879 -0.907696,0.73099 -1.370433,1.09805 -0.805642,0.63907 -1.630767,1.32533 -2.064134,1.75459 -0.460256,0.45588 -0.482279,0.61816 -0.44531,0.69363 z"
       id="path84"
       inkscape:path-effect="#path-effect1927;#path-effect1929"
       inkscape:original-d="m 44.791267,204.36589 c 0,0 28.702486,-14.05953 27.082522,-46.02788" />
    <path
       style="display:none;fill:#000000;fill-rule:nonzero;stroke:none;stroke-width:1.729;stroke-linecap:round;stroke-linejoin:miter;stroke-miterlimit:4;stroke-dasharray:none;stroke-opacity:1"
       d="m 134.17978,179.93837 c 0.003,-0.0594 -0.008,-0.2046 -0.22372,-0.3551 -0.51858,-0.36227 -1.76788,-0.95337 -6.60176,-1.75469 -0.98195,-0.16278 -2.25134,-0.36769 -3.83181,-0.63396 -4.59572,-0.77425 -13.67762,-2.36122 -22.11416,-5.04943 -5.116592,-1.67617 -9.443127,-3.52986 -12.933412,-5.60305 -2.071148,-1.23023 -3.560373,-2.36584 -4.718838,-3.36042 -1.135234,-0.97464 -1.884473,-1.75452 -2.439127,-2.17753 -0.878008,-0.66963 -1.848134,-0.79986 -2.208717,-1.01325 -0.103787,0.40593 -0.693574,1.29005 -0.361868,2.59117 0.210413,0.82534 0.841699,2.0814 2.050931,3.49961 1.226829,1.43885 2.949711,2.93446 5.270278,4.39272 3.850897,2.41993 8.725802,4.34933 14.075653,5.84621 9.03466,2.60345 17.83163,3.70685 22.94606,4.18763 1.61412,0.15174 2.9401,0.24515 3.93786,0.30036 4.88438,0.27025 6.38599,-0.28608 6.88574,-0.54501 0.23541,-0.12198 0.2636,-0.26632 0.26689,-0.32526 z"
       id="path2689"
       inkscape:path-effect="#path-effect2789"
       inkscape:original-d="m 134.17978,179.93837 c 0,0 -17.86238,-0.99663 -33.404,-5.70545 -9.911125,-3.00289 -18.878444,-7.51546 -21.667544,-14.24198"
       sodipodi:nodetypes="csc" />
    <path
       style="fill:#000000;fill-rule:nonzero;stroke:none;stroke-width:1.729;stroke-linecap:round;stroke-linejoin:miter;stroke-miterlimit:4;stroke-dasharray:none;stroke-opacity:1"
       d="m 79.108236,159.99094 c -0.04189,0.21491 0.118308,1.20288 2.23061,1.69601 0.05742,0.0134 0.116499,0.0264 0.177235,0.0391 1.262688,0.26256 3.531122,0.39253 6.27921,0.12235 1.645041,-0.13784 3.461909,-0.41076 5.26294,-0.90917 1.740631,-0.48169 3.469254,-1.1747 5.018976,-2.16305 1.550077,-0.98858 2.890183,-2.25278 3.896593,-3.85555 1.035,-1.64829 1.68142,-3.59683 1.90061,-5.88018 0,0 9.7e-4,-0.0101 9.7e-4,-0.0101 0.14151,-1.58828 0.15195,-3.18652 -0.10047,-4.8432 -0.23583,-1.54776 -0.68015,-2.99301 -1.30641,-4.32764 -1.33064,-2.49445 -3.225898,-4.50794 -5.14029,-6.08321 -2.160318,-1.77763 -4.44708,-3.08137 -6.260268,-3.95876 -2.189445,-1.05945 -3.964513,-1.63837 -4.981183,-1.87791 -2.400905,-0.56568 -2.830972,0.14381 -2.865898,0.28564 -0.04444,0.18049 0.064,0.84467 2.136021,1.82217 0.952682,0.44943 2.499048,1.06097 4.577641,2.08837 1.696316,0.83845 3.833664,2.01527 5.845181,3.57572 1.785462,1.38509 3.520711,3.10911 4.763676,5.22307 0.70895,1.05735 1.31925,2.24184 1.71421,3.58386 0.42148,1.43212 0.55911,2.92225 0.39781,4.39103 0,1e-5 -9.7e-4,0.009 -9.7e-4,0.009 -0.21893,2.11145 -0.87499,3.83594 -1.85561,5.22097 -0.951723,1.34423 -2.198259,2.35426 -3.618279,3.10438 -1.425689,0.75311 -3.014101,1.23785 -4.625684,1.53857 -1.668604,0.31137 -3.34923,0.42339 -4.884554,0.43657 -2.577104,-0.0179 -4.601701,-0.25827 -5.866473,-0.25312 -0.05813,2.3e-4 -0.114805,9.3e-4 -0.170086,0.002 -2.011956,0.043 -2.472478,0.75065 -2.525508,1.02268 z"
       id="path3299"
       inkscape:path-effect="#path-effect3399"
       inkscape:original-d="m 79.108236,159.99094 c 0,0 3.929732,0.76607 8.624561,0.54287 6.571063,-0.3124 14.640943,-2.56276 15.532593,-11.56397 0.32753,-3.30641 -0.40542,-6.14827 -1.75945,-8.57287 -4.965781,-8.89195 -18.285079,-12.17178 -18.285079,-12.17178"
       sodipodi:nodetypes="csssc"
       inkscape:label="path3299" />
    <path
       style="fill:#000000;fill-rule:nonzero;stroke:none;stroke-width:1.729;stroke-linecap:round;stroke-linejoin:miter;stroke-miterlimit:4;stroke-dasharray:none;stroke-opacity:1"
       d="m 79.108236,159.99094 c -0.111051,0.16142 -0.330503,0.95046 1.824677,2.66967 1.979507,1.57908 7.155244,4.9681 15.519145,9.61549 5.050622,2.80637 10.930642,5.84402 16.836842,8.43742 6.27077,2.75349 11.91394,4.719 16.71797,5.73943 1.3231,0.28096 2.51368,0.48971 3.58497,0.64438 3.62809,0.52383 6.25898,0.41643 8.19162,0.0646 1.4244,-0.25928 2.59139,-0.67404 3.5455,-1.18464 0.91102,-0.48754 1.66383,-1.08152 2.27446,-1.76387 0.54029,-0.60373 0.9794,-1.28775 1.32215,-2.05356 0.13415,-0.29972 0.25345,-0.61176 0.35839,-0.93639 0.12513,-0.38711 0.23093,-0.79043 0.3181,-1.21257 0.13993,-0.6777 0.22292,-1.35977 0.27102,-2.04859 0.0443,-0.63395 0.0541,-1.18811 0.0668,-1.71252 0.0232,-0.90559 -0.14182,-1.86049 -0.58033,-2.71637 -0.20833,-0.4066 -0.47869,-0.79013 -0.81965,-1.12743 -0.33597,-0.33235 -0.73953,-0.61857 -1.2143,-0.83327 -0.47328,-0.21403 -1.01083,-0.35397 -1.60975,-0.39983 -0.60315,-0.0462 -1.25902,0.004 -1.9618,0.16149 -1.46455,0.32864 -3.07849,1.11222 -4.79697,2.37088 -1.91159,1.40108 -3.15841,2.92127 -3.97342,4.289 -0.67392,1.13096 -1.07172,2.1898 -1.29954,3.0522 -0.11443,0.43316 -0.1963,0.85228 -0.25187,1.25115 -0.19445,1.39559 -0.0695,2.50867 0.1026,3.21951 0.2561,1.0576 0.56957,1.19227 0.63016,1.18024 0.0802,-0.0159 0.22273,-0.26597 0.39541,-1.21918 0.11168,-0.6165 0.28392,-1.68474 0.59074,-2.84118 0.0906,-0.34154 0.19461,-0.69864 0.31538,-1.06848 0.23828,-0.72972 0.58408,-1.65191 1.13286,-2.64374 0.66176,-1.19604 1.67917,-2.60667 3.32632,-3.97508 1.52742,-1.26794 2.90959,-2.0878 4.13811,-2.52228 0.58907,-0.20833 1.13744,-0.32618 1.64601,-0.36475 0.50436,-0.0382 0.97159,0.001 1.40131,0.11022 0.43185,0.10933 0.82749,0.28913 1.18229,0.53008 0.36107,0.2452 0.67745,0.55197 0.9448,0.90627 0.56634,0.75054 0.88957,1.68172 0.9813,2.63025 0.0501,0.51192 0.09,1.09968 0.0853,1.73927 -0.005,0.70551 -0.0643,1.42389 -0.20142,2.13236 -0.0858,0.44292 -0.19938,0.86831 -0.34174,1.27363 -0.11949,0.34019 -0.25788,0.66575 -0.41495,0.97614 -0.40264,0.79569 -0.9213,1.47867 -1.54155,2.05154 -0.70029,0.6468 -1.53281,1.15612 -2.48955,1.53622 -1.00096,0.39768 -2.18517,0.67283 -3.58864,0.79905 -1.89622,0.17054 -4.46783,0.0938 -7.9888,-0.54798 -1.04374,-0.19025 -2.2036,-0.4417 -3.49243,-0.77039 -4.64941,-1.18599 -10.13007,-3.36655 -16.20731,-6.33377 -5.74016,-2.80264 -11.42415,-6.01915 -16.3512,-8.96294 -8.141748,-4.86449 -13.218794,-8.29572 -15.43004,-9.48026 -2.402548,-1.28701 -3.027447,-0.83815 -3.149004,-0.66146 z"
       id="path861"
       inkscape:path-effect="#path-effect1055"
       inkscape:original-d="m 79.108236,159.99094 c 0,0 30.891124,21.25243 51.018094,25.95022 20.12696,4.69779 20.09654,-5.80748 19.9534,-9.69648 -0.14315,-3.88899 -3.94098,-7.13019 -10.63831,-1.91716 -6.69733,5.21303 -5.27639,12.36988 -5.27639,12.36988" />
    <path
       style="fill:#000000;fill-rule:nonzero;stroke:none;stroke-width:1.729;stroke-linecap:round;stroke-linejoin:miter;stroke-miterlimit:4;stroke-dasharray:none;stroke-opacity:1"
       d="m 71.07911,136.68446 c -0.105201,-0.0461 -0.489904,-0.16124 -0.908403,0.35597 -0.525975,0.65002 -1.284461,2.29466 -3.188679,6.10538 -2.207658,4.41797 -4.962411,9.67719 -8.074308,14.60935 -1.564064,2.47894 -3.264899,5.04163 -5.062025,7.4226 -1.806329,2.39317 -3.580893,4.43066 -5.312496,6.01714 -0.941702,0.86279 -1.832352,1.55685 -2.672993,2.09852 -0.979453,0.63111 -1.853499,1.03099 -2.619565,1.26105 -0.162149,0.0487 -0.318505,0.0895 -0.468969,0.12314 -0.712561,0.15935 -1.391876,0.0958 -1.97195,-0.0717 -1.060798,-0.30624 -1.665335,-0.91978 -2.072557,-0.70366 -0.309508,0.16425 -0.416864,0.87348 -0.515964,1.08113 -0.08599,0.18019 -0.64949,0.73769 -0.515964,1.08113 0.209078,0.53779 1.578206,0.77606 3.054388,0.53059 0.814305,-0.13541 1.564729,-0.37795 2.375873,-0.64124 0.170311,-0.0553 0.345917,-0.11625 0.526948,-0.18382 0.855528,-0.31929 1.806116,-0.7762 2.865408,-1.44597 0.908303,-0.5743 1.866338,-1.28612 2.877653,-2.15874 1.857018,-1.60234 3.764499,-3.63607 5.683637,-6.02708 1.905079,-2.3735 3.704823,-4.95455 5.290189,-7.45946 3.154502,-4.98418 6.059578,-10.24999 8.280666,-14.7 1.866411,-3.7394 2.644511,-5.66255 2.767733,-6.37514 0.115005,-0.66507 -0.234169,-0.87347 -0.338622,-0.91921 z"
       id="path2078"
       inkscape:path-effect="#path-effect2113"
       inkscape:original-d="m 71.07911,136.68446 c 0,0 -19.552253,44.65375 -32.867909,38.29894"
       sodipodi:nodetypes="cc" />
    <path
       style="fill:#000000;fill-rule:nonzero;stroke:none;stroke-width:0.120915;stroke-linecap:round;stroke-linejoin:miter;stroke-miterlimit:4;stroke-dasharray:none;stroke-opacity:1"
       d="m 45.502397,204.90443 c 1.779182,-0.1422 5.14653,-0.24894 8.229359,0.47526 1.177359,0.27658 2.267857,0.65861 3.277812,1.16271 0.947477,0.47291 1.783503,1.03279 2.543642,1.67103 0.07615,0.0639 0.152119,0.12907 0.227878,0.19543 0.827305,0.71616 1.513832,1.56685 2.035383,2.51929 0.502256,0.9172 0.846128,1.9213 0.991514,2.93289 0.14114,0.98205 0.09398,1.97009 -0.184144,2.84935 -0.137368,0.43427 -0.332052,0.84455 -0.590445,1.21197 -0.257119,0.36562 -0.578241,0.68994 -0.967795,0.94975 -0.443353,0.28898 -0.96838,0.52781 -1.555671,0.70743 -0.586319,0.17932 -1.231697,0.29872 -1.916062,0.35138 -0.305126,0.0235 -0.617717,0.0337 -0.935976,0.0301 -1.044324,-0.0119 -2.225726,-0.17226 -3.461757,-0.54165 -1.458524,-0.43589 -2.973596,-1.15811 -4.361002,-2.23331 -1.345137,-1.04245 -2.532636,-2.38792 -3.426647,-4.05897 -0.913,-1.70666 -1.297732,-3.08636 -1.398886,-4.17081 -0.110126,-1.18062 0.114615,-2.01769 0.37068,-2.57221 0.31689,-0.68623 0.73989,-1.06475 0.941169,-1.22938 0.08279,-0.0677 0.157227,-0.12213 0.206301,-0.15872 0.240256,-0.17912 0.232328,-0.18136 0.219038,-0.17336 z m -0.368373,-1.09982 c -0.01329,0.008 -0.09654,-9.4e-4 -0.399207,0.30645 -0.06447,0.0655 -0.145327,0.15682 -0.235426,0.27436 -0.223335,0.29136 -0.611548,0.88325 -0.825499,1.75797 -0.173332,0.70865 -0.246267,1.65283 0.01719,2.86262 0.240712,1.10534 0.765847,2.45199 1.780671,4.08452 0.993718,1.59847 2.243807,2.83807 3.598682,3.7744 1.398285,0.96634 2.885621,1.59482 4.290659,1.97683 1.191842,0.32406 2.319063,0.47004 3.311263,0.50619 0.302687,0.011 0.600015,0.0123 0.890628,0.004 0.651325,-0.0186 1.26975,-0.0852 1.839746,-0.19749 0.570256,-0.11236 1.094979,-0.27107 1.557739,-0.47547 0.405947,-0.17324 0.779835,-0.4144 1.116124,-0.71832 0.338573,-0.30599 0.637179,-0.67382 0.889887,-1.09389 0.512722,-0.85227 0.826091,-1.90247 0.906484,-3.03655 0.08237,-1.16197 -0.08073,-2.39889 -0.510045,-3.58654 -0.44629,-1.2346 -1.173881,-2.39791 -2.180994,-3.35897 -0.08179,-0.0792 -0.168539,-0.16041 -0.256154,-0.23978 -0.877768,-0.79515 -1.887365,-1.45915 -3.023954,-1.97777 -1.208051,-0.55124 -2.491406,-0.90759 -3.81462,-1.11693 -3.40093,-0.53804 -6.971308,-0.0524 -8.708782,0.17253 z"
       id="path2732"
       sodipodi:nodetypes="cccssc"
       inkscape:path-effect="#path-effect5446"
       inkscape:original-d="m 45.440406,204.31359 v 0 c 6.198401,-0.65034 11.371409,-0.0577 15.043136,3.33506 3.738134,3.41728 3.703854,9.39902 0.529493,11.12689 -3.629706,1.97573 -11.804445,0.85987 -15.572916,-5.66675 -3.76847,-6.52661 2.87e-4,-8.7952 2.87e-4,-8.7952 z" />
    <path
       style="fill:#000000;fill-rule:nonzero;stroke:none;stroke-width:0.264583px;stroke-linecap:butt;stroke-linejoin:miter;stroke-opacity:1"
       d="m 33.754642,169.1404 c 0.01095,0.0256 -0.0069,0.10348 0.06366,0.15366 0.227628,0.16177 1.32314,0.34644 2.087641,0.83355 0.293878,0.18724 0.539709,0.39835 0.736078,0.62086 0.200483,0.22718 0.38046,0.48819 0.533712,0.78418 0.273595,0.52841 0.445808,1.13693 0.517433,1.80399 0.07072,0.6586 0.03875,1.32755 -0.05642,1.97473 -0.0093,0.0631 -0.01913,0.12582 -0.02949,0.18807 -0.09886,0.59398 -0.247433,1.19291 -0.464537,1.77264 -0.247205,0.6601 -0.565447,1.24633 -0.944158,1.72746 -0.206737,0.26265 -0.424418,0.4849 -0.64687,0.66677 -0.248593,0.20324 -0.523003,0.36236 -0.806654,0.48293 -0.533628,0.22685 -1.064461,0.28433 -1.390179,0.37304 -0.223217,0.0608 -0.408227,0.1784 -0.497104,0.2077 0.08037,0.0468 0.249199,0.19874 0.504048,0.25303 0.388444,0.0828 0.988737,0.004 1.624459,-0.26726 0.330837,-0.14107 0.643463,-0.31981 0.950624,-0.52377 0.274344,-0.18217 0.555378,-0.39926 0.834866,-0.66202 0.510973,-0.4804 0.985143,-1.08498 1.364814,-1.80722 0.332054,-0.63166 0.571992,-1.31723 0.695996,-2.01129 0.01301,-0.0728 0.02491,-0.14637 0.03564,-0.22053 0.109851,-0.75895 0.09467,-1.56009 -0.06732,-2.33427 -0.164908,-0.78808 -0.469404,-1.4907 -0.883302,-2.08016 -0.231504,-0.32969 -0.487636,-0.61068 -0.756494,-0.85011 -0.264261,-0.23534 -0.564207,-0.46271 -0.91755,-0.66279 -0.943389,-0.53421 -2.077986,-0.69947 -2.39672,-0.56257 -0.08187,0.0352 -0.07734,0.11654 -0.09217,0.13938 z"
       id="path8275"
       sodipodi:nodetypes="cc"
       inkscape:path-effect="#path-effect8642"
       inkscape:original-d="m 33.754642,169.1404 c 7.38595,0.63489 4.907235,12.19725 -0.896887,11.58958" />
    <path
       style="fill:#000000;fill-opacity:1;stroke:#000000;stroke-width:0.529;stroke-linecap:round;stroke-linejoin:miter;stroke-miterlimit:4;stroke-dasharray:none;stroke-opacity:1"
       d="m 34.276771,164.30453 -1.425946,21.56829"
       id="path9204" />
    <path
       style="fill:none;stroke:#000000;stroke-width:0.529;stroke-linecap:round;stroke-linejoin:miter;stroke-miterlimit:4;stroke-dasharray:none;stroke-opacity:1"
       d="m 32.850825,185.87282 c -0.02984,2.71815 -0.501404,4.40703 -2.390553,5.27017 -0.728363,0.33278 -1.55653,0.57378 -2.793397,0.42908 -5.297669,-0.61976 -5.297669,-0.61976 -5.297669,-0.61976"
       id="path9409"
       sodipodi:nodetypes="cssc" />
    <path
       style="fill:none;stroke:#000000;stroke-width:0.529;stroke-linecap:round;stroke-linejoin:miter;stroke-miterlimit:4;stroke-dasharray:none;stroke-opacity:1"
       d="m 32.850825,185.87282 c -0.02984,2.71815 -0.501404,4.40703 -2.390553,5.27017 -0.728363,0.33278 -1.55653,0.57378 -2.793397,0.42908 -5.297669,-0.61976 -5.297669,-0.61976 -5.297669,-0.61976"
       id="path10855"
       sodipodi:nodetypes="cssc" />
    <path
       style="fill:none;stroke:#000000;stroke-width:0.529;stroke-linecap:round;stroke-linejoin:miter;stroke-miterlimit:4;stroke-dasharray:none;stroke-opacity:1"
       d="m 32.850825,185.87282 c -0.02984,2.71815 -0.501404,4.40703 -2.390553,5.27017 -0.728363,0.33278 -1.55653,0.57378 -2.793397,0.42908 -5.297669,-0.61976 -5.297669,-0.61976 -5.297669,-0.61976"
       id="path10857"
       sodipodi:nodetypes="cssc" />
    <path
       style="fill:#000000;fill-opacity:1;stroke:#000000;stroke-width:0.529;stroke-linecap:round;stroke-linejoin:miter;stroke-miterlimit:4;stroke-dasharray:none;stroke-opacity:1"
       d="m 32.850825,185.87282 c -0.02984,2.71815 -0.501404,4.40703 -2.390553,5.27017 -0.728363,0.33278 -1.55653,0.57378 -2.793397,0.42908 -5.297669,-0.61976 -5.297669,-0.61976 -5.297669,-0.61976"
       id="path10859"
       sodipodi:nodetypes="cssc" />
    <path
       style="fill:#000000;fill-opacity:1;stroke:#000000;stroke-width:0.529;stroke-linecap:round;stroke-linejoin:miter;stroke-miterlimit:4;stroke-dasharray:none;stroke-opacity:1"
       d="m 34.276771,164.30453 c 0.240307,-2.70769 -0.06123,-4.43506 -1.8553,-5.48151 -0.691716,-0.40351 -1.491852,-0.72558 -2.736976,-0.70444 -5.333028,0.0905 -5.333028,0.0905 -5.333028,0.0905"
       id="path9409-3"
       sodipodi:nodetypes="cssc" />
    <path
       style="fill:#000000;fill-opacity:1;stroke:#000000;stroke-width:0.529;stroke-linecap:round;stroke-linejoin:miter;stroke-miterlimit:4;stroke-dasharray:none;stroke-opacity:1"
       d="m 24.351467,158.20908 -1.982261,32.74323"
       id="path11105" />
    <path
       style="fill:#000000;fill-opacity:1;fill-rule:nonzero;stroke:none;stroke-width:0.529;stroke-linecap:round;stroke-miterlimit:4;stroke-dasharray:none;paint-order:markers stroke fill"
       id="path11569"
       inkscape:path-effect="#path-effect11673"
       sodipodi:type="arc"
       sodipodi:cx="76.313194"
       sodipodi:cy="119.64358"
       sodipodi:rx="11.858834"
       sodipodi:ry="10.724792"
       d="m 86.455213,119.64358 c 0,0.0563 -0.01328,0.38801 -0.03232,0.72484 -0.02831,0.50062 -0.08073,1.55448 -0.543545,2.81332 -0.359482,0.97777 -0.970944,2.09392 -1.980428,3.16111 -1.639478,1.73319 -4.250147,3.2125 -7.58572,3.36942 -2.869712,0.13501 -5.451014,-0.73714 -7.378634,-2.16457 -0.251984,-0.18659 -0.501708,-0.38923 -0.746395,-0.60852 -0.953693,-0.8547 -1.82424,-1.95792 -2.424888,-3.29734 -0.530269,-1.18249 -0.841512,-2.53335 -0.803,-3.99826 0.0361,-1.37301 0.379616,-2.69549 0.998915,-3.90663 0.60021,-1.17382 1.450437,-2.2247 2.494117,-3.09579 2.134124,-1.78121 4.943076,-2.71012 7.859883,-2.5906 3.321428,0.13611 5.830584,1.58574 7.374969,3.12679 1.026988,1.02476 1.651432,2.09458 2.028347,3.00422 0.413241,0.99732 0.546951,1.84659 0.614252,2.31658 0.07794,0.54426 0.120671,1.04191 0.124451,1.14543 z m 3.433631,0 c 0.0049,-0.19163 0.0456,-0.81181 -0.07457,-1.64601 -0.09944,-0.69033 -0.360583,-1.88079 -1.050583,-3.24113 -0.627166,-1.23647 -1.600506,-2.59513 -3.054546,-3.81378 -2.193853,-1.83869 -5.494376,-3.29063 -9.395952,-3.15565 -3.460139,0.11971 -6.627226,1.47794 -8.911044,3.69184 -1.119574,1.0853 -1.998215,2.34993 -2.588775,3.72221 -0.609837,1.41707 -0.901057,2.92077 -0.864937,4.44252 0.0385,1.6221 0.447121,3.08722 1.060853,4.35089 0.694592,1.43015 1.648166,2.59961 2.658003,3.52065 0.259793,0.23695 0.523566,0.45779 0.78853,0.66347 2.011326,1.56128 4.701177,2.71125 7.857367,2.84588 3.670638,0.15656 6.876086,-1.07627 9.185203,-2.91301 1.419831,-1.12938 2.424681,-2.41828 3.102464,-3.6569 0.881102,-1.61017 1.158746,-3.04264 1.24196,-3.77971 0.05925,-0.5248 0.04602,-0.90611 0.04602,-1.03127 z" />
    <path
       style="fill:none;stroke:#000000;stroke-width:0.665;stroke-linecap:round;stroke-linejoin:miter;stroke-miterlimit:4;stroke-dasharray:none;stroke-opacity:1"
       d="M 64.572403,120.78258 93.039569,104.61533"
       id="path14531" />
    <path
       style="fill:none;stroke:#000000;stroke-width:0.665;stroke-linecap:round;stroke-linejoin:miter;stroke-miterlimit:4;stroke-dasharray:none;stroke-opacity:1"
       d="m 93.039569,104.61533 c 0.189329,-0.10631 0,0 0.524865,-0.31793 1.044955,-0.63296 1.473478,-1.37014 1.596579,-1.70276"
       id="path14634"
       sodipodi:nodetypes="csc" />
  </g>
</svg>
