<?xml version="1.0" encoding="UTF-8" standalone="no"?>
<svg
   width="593.58704"
   height="490.7912"
   overflow="hidden"
   version="1.1"
   id="svg269"
   sodipodi:docname="newt.svg"
   inkscape:version="1.1.2 (0a00cf5339, 2022-02-04)"
   xmlns:inkscape="http://www.inkscape.org/namespaces/inkscape"
   xmlns:sodipodi="http://sodipodi.sourceforge.net/DTD/sodipodi-0.dtd"
   xmlns="http://www.w3.org/2000/svg"
   xmlns:svg="http://www.w3.org/2000/svg">
  <sodipodi:namedview
     id="namedview271"
     pagecolor="#505050"
     bordercolor="#eeeeee"
     borderopacity="1"
     inkscape:pageshadow="0"
     inkscape:pageopacity="0"
     inkscape:pagecheckerboard="0"
     showgrid="false"
     inkscape:zoom="1.7965737"
     inkscape:cx="649.84808"
     inkscape:cy="165.87129"
     inkscape:window-width="3440"
     inkscape:window-height="1405"
     inkscape:window-x="0"
     inkscape:window-y="35"
     inkscape:window-maximized="0"
     inkscape:current-layer="g267"
     fit-margin-top="0"
     fit-margin-left="0"
     fit-margin-right="0"
     fit-margin-bottom="0"
     units="mm" />
  <defs
     id="defs175">
    <clipPath
       id="clip0">
      <rect
         x="334"
         y="76"
         width="656"
         height="568"
         id="rect172" />
    </clipPath>
  </defs>
  <g
     clip-path="url(#clip0)"
     transform="translate(-334,-76)"
     id="g267">
    <path
       d="M 837,489 V 242"
       stroke="#0000ff"
       stroke-width="2.49795"
       stroke-miterlimit="8"
       stroke-dasharray="9.99181, 7.49386"
       fill="none"
       fill-rule="evenodd"
       id="path177"
       style="display:inline" />
    <path
       d="M 393,519 V 99"
       stroke="#000000"
       stroke-width="2.49795"
       stroke-miterlimit="8"
       fill="none"
       fill-rule="evenodd"
       id="path179"
       style="stroke:#ffffff;stroke-opacity:1" />
    <path
       d="M 383,104 393.004,76 403,104 Z"
       fill-rule="evenodd"
       id="path181"
       style="fill:#ffffff" />
    <path
       d="M 334,490 H 902"
       stroke="#000000"
       stroke-width="2.49795"
       stroke-miterlimit="8"
       fill="none"
       fill-rule="evenodd"
       id="path183"
       style="fill:#ffffff;stroke:#ffffff;stroke-opacity:1" />
    <path
       d="M 898,480 925,490.004 898,500 Z"
       fill-rule="evenodd"
       id="path185"
       style="fill:#ffffff" />
    <path
       d="M 600,558 925,122"
       stroke="#ff0000"
       stroke-width="2.49795"
       stroke-miterlimit="8"
       fill="none"
       fill-rule="evenodd"
       id="path187"
       style="display:inline" />
    <path
       d="m 334,565 c 0,0 178.82224,-29.90166 354.14235,-169.91911 C 739.44752,354.10659 790.45278,303.70236 836.589,241.858 882.232,180.676 926,102 926,102"
       stroke="#0000ff"
       stroke-width="2.49795"
       stroke-miterlimit="8"
       fill="none"
       fill-rule="evenodd"
       id="path189"
       sodipodi:nodetypes="cscc"
       style="stroke:#0052ff;stroke-width:3.632;stroke-miterlimit:8;stroke-dasharray:none;stroke-opacity:1" />
    <text
       font-family="'Cambria Math', 'Cambria Math_MSFontService', sans-serif"
       font-weight="400"
       font-size="21px"
       id="text243"
       transform="translate(672.913,479)" />
    <text
       font-family="'Cambria Math', 'Cambria Math_MSFontService', sans-serif"
       font-weight="400"
       font-size="21px"
       transform="translate(513.134,313)"
       id="text247" />
    <text
       font-family="'Cambria Math', 'Cambria Math_MSFontService', sans-serif"
       font-weight="400"
       font-size="21px"
       transform="rotate(-53.653931,677.27383,-725.46838)"
       id="text261" />
    <path
       d="m 828,243 c 0,-3.866 3.134,-7 7,-7 3.866,0 7,3.134 7,7 0,3.866 -3.134,7 -7,7 -3.866,0 -7,-3.134 -7,-7 z"
       fill-rule="evenodd"
       id="path263"
       style="display:inline;fill:#ffffff" />
    <path
       d="m 643,490.5 c 0,-3.59 3.134,-6.5 7,-6.5 3.866,0 7,2.91 7,6.5 0,3.59 -3.134,6.5 -7,6.5 -3.866,0 -7,-2.91 -7,-6.5 z"
       fill-rule="evenodd"
       id="path265"
       style="display:inline;fill:#ffffff" />
    <path
       d="m 534.19925,490.59385 c 0,-3.59 3.134,-6.5 7,-6.5 3.866,0 7,2.91 7,6.5 0,3.59 -3.134,6.5 -7,6.5 -3.866,0 -7,-2.91 -7,-6.5 z"
       fill-rule="evenodd"
       id="path265-3"
       style="display:inline;fill:#ffffff" />
    <path
       d="m 830.43915,490.45567 c 0,-3.59 3.134,-6.5 7,-6.5 3.866,0 7,2.91 7,6.5 0,3.59 -3.134,6.5 -7,6.5 -3.866,0 -7,-2.91 -7,-6.5 z"
       fill-rule="evenodd"
       id="path265-9"
       style="display:inline;fill:#ffffff" />
    <text
       xml:space="preserve"
       style="font-style:normal;font-variant:normal;font-weight:normal;font-stretch:normal;font-size:40px;line-height:1.25;font-family:'DejaVu Math TeX Gyre';-inkscape-font-specification:'DejaVu Math TeX Gyre';display:inline"
       x="656.05884"
       y="510.57864"
       id="text40388"><tspan
         sodipodi:role="line"
         id="tspan40386"
         x="656.05884"
         y="510.57864" /></text>
    <g
       aria-label="xn + 1"
       id="text42064"
       style="font-style:italic;font-size:37.3333px;line-height:1.25;font-family:'TeX Gyre Termes';-inkscape-font-specification:'TeX Gyre Termes Italic';display:inline">
      <path
         d="m 650.62088,519.62963 q 0,-0.896 0.56,-1.456 0.56,-0.56 1.30666,-0.56 1.26933,0 1.26933,1.19467 0,0.52267 -0.37333,1.08267 -0.336,0.52266 -1.08266,0.70933 0.63466,0.52266 1.64266,0.52266 0.784,0 1.38133,-0.448 0.63467,-0.448 1.04534,-1.38133 0.44799,-0.93333 0.67199,-1.64266 0.224,-0.74667 0.52267,-1.94133 0.448,-1.82934 0.85867,-3.39734 0.784,-3.21066 0.784,-4.10666 0,-1.12 -0.48534,-1.71733 -0.48533,-0.63467 -1.30666,-0.63467 -1.232,0 -2.50133,1.19467 -1.232,1.19467 -1.94134,3.472 -0.14933,0.448 -0.22399,0.56 -0.0747,0.0747 -0.448,0.0747 -0.56,0 -0.56,-0.37333 0,-0.37333 0.37333,-1.26933 0.41067,-0.896 1.08266,-1.904 0.672,-1.04533 1.82934,-1.792 1.15733,-0.784 2.46399,-0.784 2.65067,0 3.584,2.53867 0.448,-0.85867 1.38133,-1.68 0.93334,-0.85867 2.27733,-0.85867 1.12,0 2.16534,0.56 1.08266,0.52267 1.08266,1.792 0,0.97066 -0.59733,1.49333 -0.59733,0.48533 -1.232,0.48533 -0.672,0 -1.008,-0.37333 -0.29867,-0.37333 -0.29867,-0.82133 0,-0.18667 0.0373,-0.41067 0.0373,-0.26133 0.41066,-0.74666 0.37334,-0.48534 1.04534,-0.63467 -0.59734,-0.52267 -1.64267,-0.52267 -2.20266,0 -3.28533,3.99467 -0.85866,3.62133 -1.26933,5.11466 -0.70933,3.024 -0.70933,3.77066 0,1.30667 0.52266,1.86667 0.52267,0.52266 1.232,0.52266 1.26933,0 2.50133,-1.19466 1.232,-1.19467 1.94133,-3.472 0.14934,-0.448 0.224,-0.52266 0.112,-0.112 0.448,-0.112 0.56,0 0.56,0.37333 0,0.336 -0.37333,1.232 -0.37333,0.85866 -1.04533,1.904 -0.672,1.04533 -1.82933,1.82933 -1.15734,0.784 -2.50134,0.784 -1.00799,0 -2.05333,-0.56 -1.008,-0.56 -1.49333,-1.97867 -1.456,2.53867 -3.65866,2.53867 -1.344,0 -2.31467,-0.63467 -0.97066,-0.63467 -0.97066,-1.68 z"
         style="font-family:'CMU Serif';-inkscape-font-specification:'CMU Serif Italic';fill:#ffffff"
         id="path1952" />
      <path
         d="m 667.94164,522.0115 q 0,-0.0485 0.0971,-0.41254 0.0971,-0.38826 0.2912,-0.99493 0.19414,-0.60666 0.38827,-1.04346 0.67947,-1.28614 1.7472,-1.28614 0.8008,0 1.35893,0.53387 0.55813,0.5096 0.67947,1.3832 0.24266,-0.364 0.5824,-0.728 0.364,-0.364 1.16479,-0.77653 0.82507,-0.41254 1.72294,-0.41254 1.06773,0 1.79573,0.5824 0.728,0.5824 0.728,1.94133 0,1.48027 -1.48027,5.41147 -0.4368,1.3104 -0.4368,1.82 0,0.70373 0.53387,0.70373 1.35893,0 2.2568,-3.03333 0.0728,-0.2912 0.12133,-0.33974 0.0728,-0.0728 0.2912,-0.0728 0.364,0 0.364,0.24267 0,0.0728 -0.0971,0.4368 -0.0971,0.364 -0.33973,0.9464 -0.24267,0.55813 -0.5824,1.092 -0.33973,0.5096 -0.89787,0.89786 -0.53386,0.364 -1.16479,0.364 -0.84934,0 -1.35894,-0.55813 -0.48533,-0.55813 -0.48533,-1.3832 0,-0.53386 0.38827,-1.55306 1.40746,-4.02827 1.40746,-5.36293 0,-1.6016 -1.11626,-1.6016 -1.86853,0 -3.276,2.4024 -0.41253,0.67946 -0.728,1.9656 -0.0485,0.26693 -0.19413,0.8008 -0.1456,0.50959 -0.19414,0.77653 l -0.97066,3.88266 q -0.24267,0.63093 -0.8736,0.63093 -0.33973,0 -0.5096,-0.19413 -0.16987,-0.19413 -0.16987,-0.4368 0,-0.12133 0.0728,-0.33973 l 1.82,-7.28 q 0.16987,-0.67946 0.16987,-1.23759 0,-0.97067 -0.63094,-0.97067 -0.53386,0 -0.92213,0.728 -0.364,0.728 -0.728,2.15973 -0.0971,0.38827 -0.16986,0.48533 -0.0485,0.0728 -0.2912,0.0728 -0.364,0 -0.364,-0.24266 z"
         style="font-size:65%;letter-spacing:-2.44px;baseline-shift:sub;fill:#ffffff"
         id="path1954" />
      <path
         d="m 685.31411,523.22483 q -0.55814,0 -0.55814,-0.2912 0,-0.2912 0.5824,-0.2912 0.0728,0 0.19414,0.0243 0.12133,0 0.1456,0 h 6.84319 v -6.86746 q 0,-0.0243 -0.0243,-0.12134 0,-0.12133 0,-0.19413 0,-0.5824 0.2912,-0.5824 0.2912,0 0.2912,0.5824 v 7.18293 h 6.8432 q 0.0243,0 0.1456,0 0.12133,-0.0243 0.19413,-0.0243 0.55813,0 0.55813,0.2912 0,0.2912 -0.5824,0.2912 -0.0728,0 -0.19413,0 -0.0971,-0.0243 -0.12133,-0.0243 h -6.8432 v 7.2072 q 0,0.55813 -0.2912,0.55813 -0.2912,0 -0.2912,-0.5824 0,-0.0728 0,-0.19413 0.0243,-0.0971 0.0243,-0.12134 v -6.86746 h -6.84319 q -0.0243,0 -0.16987,0.0243 -0.12133,0 -0.19413,0 z"
         style="font-style:normal;font-size:65%;letter-spacing:-2.44px;baseline-shift:sub;fill:#ffffff"
         id="path1956" />
      <path
         d="m 707.6127,515.14404 v -0.75227 q 2.912,0 4.41653,-1.55306 0.41254,0 0.48534,0.0971 0.0728,0.0971 0.0728,0.53387 v 13.61359 q 0,0.728 0.33973,0.9464 0.364,0.21839 1.91706,0.21839 h 0.77654 v 0.75227 q -0.84934,-0.0728 -3.9312,-0.0728 -3.08186,0 -3.9312,0.0728 v -0.75227 h 0.77654 q 1.5288,0 1.89279,-0.21839 0.364,-0.2184 0.364,-0.9464 V 514.5131 q -1.26186,0.63094 -3.17893,0.63094 z"
         style="font-style:normal;font-size:65%;letter-spacing:-2.44px;baseline-shift:sub;fill:#ffffff"
         id="path1958" />
    </g>
    <g
       aria-label="f"
       id="text42064-3"
       style="font-style:italic;font-size:37.3333px;line-height:1.25;font-family:'TeX Gyre Termes';-inkscape-font-specification:'TeX Gyre Termes Italic';display:inline">
      <path
         d="m 882.89695,128.14359 q 0,-0.93333 0.56,-1.49333 0.56,-0.56 1.30666,-0.56 0.48534,0 0.85867,0.29866 0.41066,0.336 0.41066,0.896 0,0.63467 -0.44799,1.15734 -0.41067,0.52266 -1.19467,0.67199 0.48533,0.672 1.49333,0.672 1.38133,0 2.128,-3.21066 0.448,-1.60533 1.04533,-4.62933 l 2.72533,-13.92532 h -2.31466 q -0.93333,0 -0.93333,-0.41067 0,-0.52266 0.224,-0.63466 0.224,-0.112 0.784,-0.112 h 2.46399 l 0.784,-4.10667 q 1.26933,-6.122662 4.85333,-6.122662 1.232,0 2.128,0.672 0.93333,0.634666 0.93333,1.791998 0,0.933334 -0.56,1.493334 -0.56,0.56 -1.30666,0.56 -0.48534,0 -0.896,-0.29867 -0.37333,-0.336 -0.37333,-0.895998 0,-0.634666 0.41066,-1.157332 0.448,-0.522666 1.232,-0.672 -0.56,-0.671999 -1.568,-0.671999 -0.63466,0 -1.08266,0.634666 -0.448,0.634666 -0.59734,1.194666 -0.14933,0.522666 -0.37333,1.530667 -0.448,2.016 -1.19467,6.048 h 2.912 q 0.37333,0 0.52267,0.0373 0.18666,0 0.29866,0.112 0.112,0.112 0.112,0.336 0,0.448 -0.224,0.56 -0.224,0.112 -0.78399,0.112 h -3.06134 l -2.61333,13.40265 q -0.224,1.08267 -0.52266,2.09067 -0.26134,1.04533 -0.93334,2.912 -0.67199,1.86666 -1.79199,3.02399 -1.08267,1.15734 -2.42667,1.15734 -1.15733,0 -2.05333,-0.672 -0.93333,-0.63467 -0.93333,-1.792 z"
         style="font-family:'CMU Serif';-inkscape-font-specification:'CMU Serif Italic';display:none;fill:#ffffff"
         id="path96655" />
    </g>
    <g
       aria-label="x0 "
       id="text42064-9"
       style="font-style:italic;font-size:37.3333px;line-height:1.25;font-family:'TeX Gyre Termes';-inkscape-font-specification:'TeX Gyre Termes Italic';letter-spacing:0.04px;fill:#ffffff">
      <path
         d="m 825.80044,518.60888 q 0,-0.896 0.56,-1.456 0.56,-0.56 1.30667,-0.56 1.26933,0 1.26933,1.19467 0,0.52266 -0.37333,1.08266 -0.336,0.52267 -1.08267,0.70934 0.63467,0.52266 1.64267,0.52266 0.784,0 1.38133,-0.448 0.63466,-0.448 1.04533,-1.38133 0.448,-0.93333 0.672,-1.64266 0.224,-0.74667 0.52267,-1.94134 0.448,-1.82933 0.85866,-3.39733 0.784,-3.21066 0.784,-4.10666 0,-1.12 -0.48533,-1.71733 -0.48533,-0.63467 -1.30667,-0.63467 -1.232,0 -2.50133,1.19467 -1.232,1.19466 -1.94133,3.47199 -0.14933,0.448 -0.224,0.56 -0.0747,0.0747 -0.448,0.0747 -0.56,0 -0.56,-0.37333 0,-0.37334 0.37333,-1.26933 0.41067,-0.896 1.08267,-1.904 0.672,-1.04534 1.82933,-1.792 1.15733,-0.784 2.464,-0.784 2.65066,0 3.584,2.53866 0.448,-0.85866 1.38133,-1.67999 0.93333,-0.85867 2.27733,-0.85867 1.12,0 2.16533,0.56 1.08267,0.52266 1.08267,1.792 0,0.97066 -0.59734,1.49333 -0.59733,0.48533 -1.23199,0.48533 -0.672,0 -1.008,-0.37333 -0.29867,-0.37333 -0.29867,-0.82133 0,-0.18667 0.0373,-0.41067 0.0373,-0.26133 0.41067,-0.74667 0.37333,-0.48533 1.04533,-0.63466 -0.59733,-0.52267 -1.64266,-0.52267 -2.20267,0 -3.28533,3.99467 -0.85867,3.62133 -1.26934,5.11466 -0.70933,3.02399 -0.70933,3.77066 0,1.30667 0.52267,1.86667 0.52266,0.52266 1.232,0.52266 1.26933,0 2.50133,-1.19466 1.232,-1.19467 1.94133,-3.472 0.14933,-0.448 0.224,-0.52267 0.112,-0.112 0.448,-0.112 0.56,0 0.56,0.37334 0,0.336 -0.37333,1.232 -0.37334,0.85866 -1.04534,1.90399 -0.672,1.04534 -1.82933,1.82934 -1.15733,0.78399 -2.50133,0.78399 -1.008,0 -2.05333,-0.55999 -1.008,-0.56 -1.49333,-1.97867 -1.456,2.53866 -3.65867,2.53866 -1.344,0 -2.31466,-0.63466 -0.97067,-0.63467 -0.97067,-1.68 z"
         style="letter-spacing:1.2px;fill:#ffffff"
         id="path83678" />
      <path
         d="m 843.25347,520.21421 q 0,-3.56719 0.89787,-5.50853 1.26186,-2.88773 4.22239,-2.88773 0.63094,0 1.28614,0.16987 0.65519,0.16987 1.48026,0.82507 0.84933,0.65519 1.35893,1.72293 0.97067,2.06266 0.97067,5.67839 0,3.54293 -0.89787,5.48426 -1.3104,2.81494 -4.22239,2.81494 -1.092,0 -2.20827,-0.55814 -1.092,-0.55813 -1.79573,-1.8928 -1.092,-2.01413 -1.092,-5.84826 z m 2.01413,-0.2912 q 0,3.66427 0.26694,5.12026 0.2912,1.57734 1.09199,2.2568 0.82507,0.67947 1.72294,0.67947 0.97066,0 1.77146,-0.728 0.82507,-0.728 1.06773,-2.30533 0.26694,-1.55307 0.26694,-5.0232 0,-3.37306 -0.24267,-4.73199 -0.31547,-1.57734 -1.1648,-2.20827 -0.84933,-0.63093 -1.69866,-0.63093 -0.31547,0 -0.6552,0.0971 -0.33974,0.0971 -0.82507,0.364 -0.48533,0.26693 -0.8736,0.94639 -0.364,0.67947 -0.53386,1.69867 -0.19414,1.3104 -0.19414,4.46506 z"
         style="font-style:normal;font-size:65%;letter-spacing:1.2px;baseline-shift:sub;fill:#ffffff"
         id="path83680" />
    </g>
    <g
       aria-label="x "
       id="text42064-9-6"
       style="font-style:italic;font-size:37.3333px;line-height:1.25;font-family:'TeX Gyre Termes';-inkscape-font-specification:'TeX Gyre Termes Italic';letter-spacing:0.04px;fill:#ffffff"
       transform="translate(1.5518053,2.5137863)">
      <path
         d="m 530.05252,519.61926 q 0,-0.896 0.56,-1.456 0.56,-0.56 1.30666,-0.56 1.26933,0 1.26933,1.19466 0,0.52267 -0.37333,1.08267 -0.336,0.52267 -1.08266,0.70933 0.63466,0.52267 1.64266,0.52267 0.784,0 1.38133,-0.448 0.63467,-0.448 1.04534,-1.38133 0.448,-0.93334 0.672,-1.64267 0.224,-0.74666 0.52266,-1.94133 0.448,-1.82933 0.85867,-3.39733 0.784,-3.21067 0.784,-4.10666 0,-1.12 -0.48534,-1.71734 -0.48533,-0.63466 -1.30666,-0.63466 -1.232,0 -2.50133,1.19466 -1.232,1.19467 -1.94133,3.472 -0.14934,0.448 -0.224,0.56 -0.0747,0.0747 -0.448,0.0747 -0.56,0 -0.56,-0.37334 0,-0.37333 0.37333,-1.26933 0.41067,-0.896 1.08267,-1.904 0.67199,-1.04533 1.82933,-1.792 1.15733,-0.78399 2.464,-0.78399 2.65066,0 3.58399,2.53866 0.448,-0.85867 1.38133,-1.68 0.93334,-0.85866 2.27734,-0.85866 1.11999,0 2.16533,0.55999 1.08266,0.52267 1.08266,1.792 0,0.97067 -0.59733,1.49334 -0.59733,0.48533 -1.232,0.48533 -0.672,0 -1.008,-0.37333 -0.29866,-0.37334 -0.29866,-0.82134 0,-0.18666 0.0373,-0.41066 0.0373,-0.26134 0.41067,-0.74667 0.37333,-0.48533 1.04533,-0.63467 -0.59734,-0.52266 -1.64267,-0.52266 -2.20266,0 -3.28533,3.99466 -0.85866,3.62133 -1.26933,5.11466 -0.70933,3.024 -0.70933,3.77067 0,1.30666 0.52266,1.86666 0.52267,0.52267 1.232,0.52267 1.26933,0 2.50133,-1.19467 1.232,-1.19466 1.94133,-3.47199 0.14934,-0.448 0.224,-0.52267 0.112,-0.112 0.448,-0.112 0.56,0 0.56,0.37333 0,0.336 -0.37333,1.232 -0.37333,0.85867 -1.04533,1.904 -0.672,1.04533 -1.82933,1.82933 -1.15734,0.784 -2.50133,0.784 -1.008,0 -2.05334,-0.56 -1.008,-0.56 -1.49333,-1.97866 -1.456,2.53866 -3.65866,2.53866 -1.344,0 -2.31467,-0.63467 -0.97066,-0.63466 -0.97066,-1.67999 z"
         style="letter-spacing:1.2px;fill:#ffffff"
         id="path83639" />
    </g>
    <path
       style="fill:#ffffff;stroke:#ffffff;stroke-width:0.919349px;stroke-linecap:butt;stroke-linejoin:miter;stroke-opacity:1"
       d="m 534.66476,504.4581 13.75571,0.0404"
       id="path83267" />
    <text
       xml:space="preserve"
       style="font-style:normal;font-weight:normal;font-size:40px;line-height:1.25;font-family:sans-serif;fill:#000000;fill-opacity:1;stroke:none"
       x="849.11676"
       y="114.85411"
       id="text85819"><tspan
         sodipodi:role="line"
         id="tspan85817"
         x="849.11676"
         y="114.85411" /></text>
  </g>
</svg>
