<?xml version="1.0" encoding="utf-8" standalone="no"?>
<!DOCTYPE svg PUBLIC "-//W3C//DTD SVG 1.1//EN"
  "http://www.w3.org/Graphics/SVG/1.1/DTD/svg11.dtd">
<svg xmlns:xlink="http://www.w3.org/1999/xlink" width="460.8pt" height="345.6pt" viewBox="0 0 460.8 345.6" xmlns="http://www.w3.org/2000/svg" version="1.1">
 <metadata>
  <rdf:RDF xmlns:dc="http://purl.org/dc/elements/1.1/" xmlns:cc="http://creativecommons.org/ns#" xmlns:rdf="http://www.w3.org/1999/02/22-rdf-syntax-ns#">
   <cc:Work>
    <dc:type rdf:resource="http://purl.org/dc/dcmitype/StillImage"/>
    <dc:date>2025-06-09T13:02:24.918880</dc:date>
    <dc:format>image/svg+xml</dc:format>
    <dc:creator>
     <cc:Agent>
      <dc:title>Matplotlib v3.7.1, https://matplotlib.org/</dc:title>
     </cc:Agent>
    </dc:creator>
   </cc:Work>
  </rdf:RDF>
 </metadata>
 <defs>
  <style type="text/css">*{stroke-linejoin: round; stroke-linecap: butt}</style>
 </defs>
 <g id="figure_1">
  <g id="patch_1">
   <path d="M 0 345.6 
L 460.8 345.6 
L 460.8 0 
L 0 0 
z
" style="fill: #ffffff"/>
  </g>
  <g id="axes_1">
   <g id="patch_2">
    <path d="M 57.6 307.584 
L 414.72 307.584 
L 414.72 41.472 
L 57.6 41.472 
z
" style="fill: #ffffff"/>
   </g>
   <g id="matplotlib.axis_1">
    <g id="xtick_1">
     <g id="line2d_1">
      <defs>
       <path id="m418a707f20" d="M 0 0 
L 0 3.5 
" style="stroke: #000000; stroke-width: 0.8"/>
      </defs>
      <g>
       <use xlink:href="#m418a707f20" x="103.104" y="307.584" style="stroke: #000000; stroke-width: 0.8"/>
      </g>
     </g>
     <g id="text_1">
      <!-- −4 -->
      <g transform="translate(95.732906 322.182437) scale(0.1 -0.1)">
       <defs>
        <path id="DejaVuSans-2212" d="M 678 2272 
L 4684 2272 
L 4684 1741 
L 678 1741 
L 678 2272 
z
" transform="scale(0.015625)"/>
        <path id="DejaVuSans-34" d="M 2419 4116 
L 825 1625 
L 2419 1625 
L 2419 4116 
z
M 2253 4666 
L 3047 4666 
L 3047 1625 
L 3713 1625 
L 3713 1100 
L 3047 1100 
L 3047 0 
L 2419 0 
L 2419 1100 
L 313 1100 
L 313 1709 
L 2253 4666 
z
" transform="scale(0.015625)"/>
       </defs>
       <use xlink:href="#DejaVuSans-2212"/>
       <use xlink:href="#DejaVuSans-34" x="83.789062"/>
      </g>
     </g>
    </g>
    <g id="xtick_2">
     <g id="line2d_2">
      <g>
       <use xlink:href="#m418a707f20" x="169.632" y="307.584" style="stroke: #000000; stroke-width: 0.8"/>
      </g>
     </g>
     <g id="text_2">
      <!-- −2 -->
      <g transform="translate(162.260906 322.182437) scale(0.1 -0.1)">
       <defs>
        <path id="DejaVuSans-32" d="M 1228 531 
L 3431 531 
L 3431 0 
L 469 0 
L 469 531 
Q 828 903 1448 1529 
Q 2069 2156 2228 2338 
Q 2531 2678 2651 2914 
Q 2772 3150 2772 3378 
Q 2772 3750 2511 3984 
Q 2250 4219 1831 4219 
Q 1534 4219 1204 4116 
Q 875 4013 500 3803 
L 500 4441 
Q 881 4594 1212 4672 
Q 1544 4750 1819 4750 
Q 2544 4750 2975 4387 
Q 3406 4025 3406 3419 
Q 3406 3131 3298 2873 
Q 3191 2616 2906 2266 
Q 2828 2175 2409 1742 
Q 1991 1309 1228 531 
z
" transform="scale(0.015625)"/>
       </defs>
       <use xlink:href="#DejaVuSans-2212"/>
       <use xlink:href="#DejaVuSans-32" x="83.789062"/>
      </g>
     </g>
    </g>
    <g id="xtick_3">
     <g id="line2d_3">
      <g>
       <use xlink:href="#m418a707f20" x="236.16" y="307.584" style="stroke: #000000; stroke-width: 0.8"/>
      </g>
     </g>
     <g id="text_3">
      <!-- 0 -->
      <g transform="translate(232.97875 322.182437) scale(0.1 -0.1)">
       <defs>
        <path id="DejaVuSans-30" d="M 2034 4250 
Q 1547 4250 1301 3770 
Q 1056 3291 1056 2328 
Q 1056 1369 1301 889 
Q 1547 409 2034 409 
Q 2525 409 2770 889 
Q 3016 1369 3016 2328 
Q 3016 3291 2770 3770 
Q 2525 4250 2034 4250 
z
M 2034 4750 
Q 2819 4750 3233 4129 
Q 3647 3509 3647 2328 
Q 3647 1150 3233 529 
Q 2819 -91 2034 -91 
Q 1250 -91 836 529 
Q 422 1150 422 2328 
Q 422 3509 836 4129 
Q 1250 4750 2034 4750 
z
" transform="scale(0.015625)"/>
       </defs>
       <use xlink:href="#DejaVuSans-30"/>
      </g>
     </g>
    </g>
    <g id="xtick_4">
     <g id="line2d_4">
      <g>
       <use xlink:href="#m418a707f20" x="302.688" y="307.584" style="stroke: #000000; stroke-width: 0.8"/>
      </g>
     </g>
     <g id="text_4">
      <!-- 2 -->
      <g transform="translate(299.50675 322.182437) scale(0.1 -0.1)">
       <use xlink:href="#DejaVuSans-32"/>
      </g>
     </g>
    </g>
    <g id="xtick_5">
     <g id="line2d_5">
      <g>
       <use xlink:href="#m418a707f20" x="369.216" y="307.584" style="stroke: #000000; stroke-width: 0.8"/>
      </g>
     </g>
     <g id="text_5">
      <!-- 4 -->
      <g transform="translate(366.03475 322.182437) scale(0.1 -0.1)">
       <use xlink:href="#DejaVuSans-34"/>
      </g>
     </g>
    </g>
   </g>
   <g id="matplotlib.axis_2">
    <g id="ytick_1">
     <g id="line2d_6">
      <defs>
       <path id="ma005e397e6" d="M 0 0 
L -3.5 0 
" style="stroke: #000000; stroke-width: 0.8"/>
      </defs>
      <g>
       <use xlink:href="#ma005e397e6" x="57.6" y="307.584" style="stroke: #000000; stroke-width: 0.8"/>
      </g>
     </g>
     <g id="text_6">
      <!-- −4 -->
      <g transform="translate(35.857813 311.383219) scale(0.1 -0.1)">
       <use xlink:href="#DejaVuSans-2212"/>
       <use xlink:href="#DejaVuSans-34" x="83.789062"/>
      </g>
     </g>
    </g>
    <g id="ytick_2">
     <g id="line2d_7">
      <g>
       <use xlink:href="#ma005e397e6" x="57.6" y="274.32" style="stroke: #000000; stroke-width: 0.8"/>
      </g>
     </g>
     <g id="text_7">
      <!-- −3 -->
      <g transform="translate(35.857813 278.119219) scale(0.1 -0.1)">
       <defs>
        <path id="DejaVuSans-33" d="M 2597 2516 
Q 3050 2419 3304 2112 
Q 3559 1806 3559 1356 
Q 3559 666 3084 287 
Q 2609 -91 1734 -91 
Q 1441 -91 1130 -33 
Q 819 25 488 141 
L 488 750 
Q 750 597 1062 519 
Q 1375 441 1716 441 
Q 2309 441 2620 675 
Q 2931 909 2931 1356 
Q 2931 1769 2642 2001 
Q 2353 2234 1838 2234 
L 1294 2234 
L 1294 2753 
L 1863 2753 
Q 2328 2753 2575 2939 
Q 2822 3125 2822 3475 
Q 2822 3834 2567 4026 
Q 2313 4219 1838 4219 
Q 1578 4219 1281 4162 
Q 984 4106 628 3988 
L 628 4550 
Q 988 4650 1302 4700 
Q 1616 4750 1894 4750 
Q 2613 4750 3031 4423 
Q 3450 4097 3450 3541 
Q 3450 3153 3228 2886 
Q 3006 2619 2597 2516 
z
" transform="scale(0.015625)"/>
       </defs>
       <use xlink:href="#DejaVuSans-2212"/>
       <use xlink:href="#DejaVuSans-33" x="83.789062"/>
      </g>
     </g>
    </g>
    <g id="ytick_3">
     <g id="line2d_8">
      <g>
       <use xlink:href="#ma005e397e6" x="57.6" y="241.056" style="stroke: #000000; stroke-width: 0.8"/>
      </g>
     </g>
     <g id="text_8">
      <!-- −2 -->
      <g transform="translate(35.857813 244.855219) scale(0.1 -0.1)">
       <use xlink:href="#DejaVuSans-2212"/>
       <use xlink:href="#DejaVuSans-32" x="83.789062"/>
      </g>
     </g>
    </g>
    <g id="ytick_4">
     <g id="line2d_9">
      <g>
       <use xlink:href="#ma005e397e6" x="57.6" y="207.792" style="stroke: #000000; stroke-width: 0.8"/>
      </g>
     </g>
     <g id="text_9">
      <!-- −1 -->
      <g transform="translate(35.857813 211.591219) scale(0.1 -0.1)">
       <defs>
        <path id="DejaVuSans-31" d="M 794 531 
L 1825 531 
L 1825 4091 
L 703 3866 
L 703 4441 
L 1819 4666 
L 2450 4666 
L 2450 531 
L 3481 531 
L 3481 0 
L 794 0 
L 794 531 
z
" transform="scale(0.015625)"/>
       </defs>
       <use xlink:href="#DejaVuSans-2212"/>
       <use xlink:href="#DejaVuSans-31" x="83.789062"/>
      </g>
     </g>
    </g>
    <g id="ytick_5">
     <g id="line2d_10">
      <g>
       <use xlink:href="#ma005e397e6" x="57.6" y="174.528" style="stroke: #000000; stroke-width: 0.8"/>
      </g>
     </g>
     <g id="text_10">
      <!-- 0 -->
      <g transform="translate(44.2375 178.327219) scale(0.1 -0.1)">
       <use xlink:href="#DejaVuSans-30"/>
      </g>
     </g>
    </g>
    <g id="ytick_6">
     <g id="line2d_11">
      <g>
       <use xlink:href="#ma005e397e6" x="57.6" y="141.264" style="stroke: #000000; stroke-width: 0.8"/>
      </g>
     </g>
     <g id="text_11">
      <!-- 1 -->
      <g transform="translate(44.2375 145.063219) scale(0.1 -0.1)">
       <use xlink:href="#DejaVuSans-31"/>
      </g>
     </g>
    </g>
    <g id="ytick_7">
     <g id="line2d_12">
      <g>
       <use xlink:href="#ma005e397e6" x="57.6" y="108" style="stroke: #000000; stroke-width: 0.8"/>
      </g>
     </g>
     <g id="text_12">
      <!-- 2 -->
      <g transform="translate(44.2375 111.799219) scale(0.1 -0.1)">
       <use xlink:href="#DejaVuSans-32"/>
      </g>
     </g>
    </g>
    <g id="ytick_8">
     <g id="line2d_13">
      <g>
       <use xlink:href="#ma005e397e6" x="57.6" y="74.736" style="stroke: #000000; stroke-width: 0.8"/>
      </g>
     </g>
     <g id="text_13">
      <!-- 3 -->
      <g transform="translate(44.2375 78.535219) scale(0.1 -0.1)">
       <use xlink:href="#DejaVuSans-33"/>
      </g>
     </g>
    </g>
    <g id="ytick_9">
     <g id="line2d_14">
      <g>
       <use xlink:href="#ma005e397e6" x="57.6" y="41.472" style="stroke: #000000; stroke-width: 0.8"/>
      </g>
     </g>
     <g id="text_14">
      <!-- 4 -->
      <g transform="translate(44.2375 45.271219) scale(0.1 -0.1)">
       <use xlink:href="#DejaVuSans-34"/>
      </g>
     </g>
    </g>
   </g>
   <g id="PathCollection_1">
    <path d="M 202.896 174.528 
L 202.896 174.528 
L 202.896 174.528 
L 202.896 174.528 
L 202.896 174.528 
z
" clip-path="url(#p393b7f27cf)" style="fill: none; stroke: #440154; stroke-width: 1.5"/>
   </g>
   <g id="PathCollection_2">
    <path d="M 170.196125 170.310244 
L 169.632 174.528 
L 169.632 174.528 
L 169.632 174.528 
L 170.521812 181.1808 
L 173.470993 187.8336 
L 176.2848 191.23392 
L 179.716244 194.4864 
L 182.9376 196.48224 
L 189.5904 198.885394 
L 196.2432 199.36512 
L 202.896 197.999078 
L 209.5488 194.4864 
L 209.5488 194.4864 
L 215.497186 187.8336 
L 216.2016 186.79872 
L 218.19744 181.1808 
L 219.044797 174.528 
L 218.19744 167.8752 
L 216.2016 162.25728 
L 215.497186 161.2224 
L 209.5488 154.5696 
L 209.5488 154.5696 
L 202.896 151.056922 
L 196.2432 149.69088 
L 189.5904 150.170606 
L 182.9376 152.57376 
L 179.716244 154.5696 
L 179.409353 154.860485 
" clip-path="url(#p393b7f27cf)" style="fill: none; stroke: #482475; stroke-width: 1.5"/>
   </g>
   <g id="PathCollection_3">
    <path d="M 163.385203 215.311031 
L 169.632 217.472336 
L 176.2848 218.675298 
L 182.9376 218.858677 
L 189.5904 218.041698 
L 196.2432 216.133588 
L 199.565308 214.4448 
L 202.896 212.99328 
L 209.5488 208.257696 
L 209.961974 207.792 
L 216.2016 201.1392 
L 216.2016 201.1392 
L 219.993696 194.4864 
L 222.8544 188.339213 
L 223.00224 187.8336 
L 224.35128 181.1808 
L 224.809745 174.528 
L 224.35128 167.8752 
L 223.00224 161.2224 
L 222.8544 160.716787 
L 219.993696 154.5696 
L 216.2016 147.9168 
L 216.2016 147.9168 
L 209.961974 141.264 
L 209.5488 140.798304 
L 202.896 136.06272 
L 199.565308 134.6112 
L 196.2432 132.922412 
L 189.5904 131.014302 
L 182.9376 130.197323 
L 176.2848 130.380702 
L 169.632 131.583664 
L 162.9792 133.88544 
L 161.442497 134.6112 
L 156.3264 137.54448 
L 151.378223 141.264 
L 149.6736 142.935729 
L 145.200654 147.9168 
L 143.0208 151.351817 
L 141.06276 154.5696 
L 138.352813 161.2224 
L 136.849605 167.8752 
L 136.368 174.528 
L 136.368 174.528 
L 136.368 174.528 
L 136.849605 181.1808 
L 138.352813 187.8336 
L 141.06276 194.4864 
L 143.0208 197.704183 
L 145.200654 201.1392 
L 149.6736 206.120271 
L 149.811672 206.255679 
" clip-path="url(#p393b7f27cf)" style="fill: none; stroke: #414487; stroke-width: 1.5"/>
   </g>
   <g id="PathCollection_4">
    <path d="M 103.104 232.10681 
L 105.825335 234.4032 
L 109.7568 237.269248 
L 115.813607 241.056 
L 116.4096 241.38688 
L 123.0624 244.622795 
L 129.7152 247.105296 
L 131.815786 247.7088 
L 136.368 248.92443 
L 143.0208 250.12199 
L 149.6736 250.717023 
L 156.3264 250.726664 
L 162.9792 250.149037 
L 169.632 248.953741 
L 173.946816 247.7088 
L 176.2848 247.128704 
L 182.9376 244.71504 
L 189.5904 241.409006 
L 190.106593 241.056 
L 196.2432 237.409799 
L 199.912744 234.4032 
L 202.896 232.261781 
L 207.350483 227.7504 
L 209.5488 225.75456 
L 213.111267 221.0976 
L 216.2016 217.276505 
L 217.77408 214.4448 
L 221.427072 207.792 
L 222.8544 205.13088 
L 224.287311 201.1392 
L 226.34712 194.4864 
L 227.88096 187.8336 
L 228.84192 181.1808 
L 229.171667 174.528 
L 228.84192 167.8752 
L 227.88096 161.2224 
L 226.34712 154.5696 
L 224.287311 147.9168 
L 222.8544 143.92512 
L 221.427072 141.264 
L 217.77408 134.6112 
L 216.2016 131.779495 
L 213.111267 127.9584 
L 209.5488 123.30144 
L 209.032837 122.833 
" clip-path="url(#p393b7f27cf)" style="fill: none; stroke: #355f8d; stroke-width: 1.5"/>
    <path d="M 196.303624 111.695709 
L 196.2432 111.646201 
L 190.106593 108 
L 189.5904 107.646994 
L 182.9376 104.34096 
L 176.2848 101.927296 
L 173.946816 101.3472 
L 169.632 100.102259 
L 162.9792 98.906963 
L 156.3264 98.329336 
L 149.6736 98.338977 
L 143.0208 98.93401 
L 136.368 100.13157 
L 131.815786 101.3472 
L 129.7152 101.950704 
L 123.0624 104.433205 
L 116.4096 107.66912 
L 115.813607 108 
L 109.7568 111.786752 
L 105.825335 114.6528 
L 103.104 116.94919 
" clip-path="url(#p393b7f27cf)" style="fill: none; stroke: #355f8d; stroke-width: 1.5"/>
   </g>
   <g id="PathCollection_5">
    <path d="M 163.86624 307.584 
L 169.632 303.438794 
L 172.570919 300.9312 
L 176.2848 298.010361 
L 180.252463 294.2784 
L 182.9376 291.943267 
L 187.056147 287.6256 
L 189.5904 285.15456 
L 190.456227 284.128756 
" clip-path="url(#p393b7f27cf)" style="fill: none; stroke: #2a788e; stroke-width: 1.5"/>
    <path d="M 201.64896 270.304028 
L 202.896 268.67659 
L 203.523548 267.6672 
L 207.87413 261.0144 
L 209.5488 258.552864 
L 211.811599 254.3616 
L 215.397306 247.7088 
L 216.2016 246.29376 
L 218.509395 241.056 
L 221.324256 234.4032 
L 222.8544 230.763727 
L 223.817909 227.7504 
L 225.9036 221.0976 
L 227.748155 214.4448 
L 229.357512 207.792 
L 229.5072 207.171072 
L 230.571648 201.1392 
L 231.50304 194.4864 
L 232.16832 187.8336 
L 232.567488 181.1808 
L 232.700544 174.528 
L 232.567488 167.8752 
L 232.16832 161.2224 
L 231.50304 154.5696 
L 230.571648 147.9168 
L 229.5072 141.884928 
L 229.357512 141.264 
L 227.748155 134.6112 
L 225.9036 127.9584 
L 223.817909 121.3056 
L 222.8544 118.292273 
L 221.324256 114.6528 
L 218.509395 108 
L 216.2016 102.76224 
L 215.397306 101.3472 
L 211.811599 94.6944 
L 209.5488 90.503136 
L 207.87413 88.0416 
L 203.523548 81.3888 
L 202.896 80.37941 
L 198.57168 74.736 
L 196.2432 71.561255 
L 193.120003 68.0832 
L 189.5904 63.90144 
L 187.056147 61.4304 
L 182.9376 57.112733 
L 180.252463 54.7776 
L 176.2848 51.045639 
L 172.570919 48.1248 
L 169.632 45.617206 
L 163.86624 41.472 
" clip-path="url(#p393b7f27cf)" style="fill: none; stroke: #2a788e; stroke-width: 1.5"/>
   </g>
   <g id="PathCollection_6">
    <path d="M 236.16 307.584 
L 236.16 300.9312 
L 236.16 294.2784 
L 236.16 287.6256 
L 236.16 287.4528 
" clip-path="url(#p393b7f27cf)" style="fill: none; stroke: #21918c; stroke-width: 1.5"/>
    <path d="M 236.16 274.4928 
L 236.16 274.32 
L 236.16 267.6672 
L 236.16 261.0144 
L 236.16 254.3616 
L 236.16 247.7088 
L 236.16 241.056 
L 236.16 234.4032 
L 236.16 227.7504 
L 236.16 221.0976 
L 236.16 214.4448 
L 236.16 207.792 
L 236.16 201.1392 
L 236.16 194.4864 
L 236.16 187.8336 
L 236.16 181.1808 
L 236.16 174.528 
L 236.16 167.8752 
L 236.16 161.2224 
L 236.16 154.5696 
L 236.16 147.9168 
L 236.16 141.264 
L 236.16 134.6112 
L 236.16 127.9584 
L 236.16 121.3056 
L 236.16 114.6528 
L 236.16 108 
L 236.16 101.3472 
L 236.16 94.6944 
L 236.16 88.0416 
L 236.16 81.3888 
L 236.16 74.736 
L 236.16 68.0832 
L 236.16 61.4304 
L 236.16 54.7776 
L 236.16 48.1248 
L 236.16 41.472 
" clip-path="url(#p393b7f27cf)" style="fill: none; stroke: #21918c; stroke-width: 1.5"/>
   </g>
   <g id="PathCollection_7">
    <path d="M 308.45376 307.584 
L 302.688 303.438794 
L 299.749081 300.9312 
L 296.0352 298.010361 
L 292.067537 294.2784 
L 289.3824 291.943267 
L 285.263853 287.6256 
L 282.7296 285.15456 
L 279.199997 280.9728 
L 276.0768 277.494745 
L 273.74832 274.32 
L 269.424 268.67659 
L 268.796452 267.6672 
L 264.44587 261.0144 
L 262.7712 258.552864 
L 260.508401 254.3616 
L 256.922694 247.7088 
L 256.1184 246.29376 
L 253.810605 241.056 
L 250.995744 234.4032 
L 249.4656 230.763727 
L 248.502091 227.7504 
L 246.4164 221.0976 
L 244.571845 214.4448 
L 242.962488 207.792 
L 242.8128 207.171072 
L 241.748352 201.1392 
L 240.81696 194.4864 
L 240.15168 187.8336 
L 239.752512 181.1808 
L 239.619456 174.528 
L 239.752512 167.8752 
L 240.15168 161.2224 
L 240.81696 154.5696 
L 241.748352 147.9168 
L 242.8128 141.884928 
L 242.962488 141.264 
L 244.571845 134.6112 
L 244.744232 133.989448 
" clip-path="url(#p393b7f27cf)" style="fill: none; stroke: #22a884; stroke-width: 1.5"/>
    <path d="M 248.275936 122.026975 
L 248.502091 121.3056 
L 249.4656 118.292273 
L 250.995744 114.6528 
L 253.810605 108 
L 256.1184 102.76224 
L 256.922694 101.3472 
L 260.508401 94.6944 
L 262.7712 90.503136 
L 264.44587 88.0416 
L 268.796452 81.3888 
L 269.424 80.37941 
L 273.74832 74.736 
L 276.0768 71.561255 
L 279.199997 68.0832 
L 282.7296 63.90144 
L 285.263853 61.4304 
L 289.3824 57.112733 
L 292.067537 54.7776 
L 296.0352 51.045639 
L 299.749081 48.1248 
L 302.688 45.617206 
L 308.45376 41.472 
" clip-path="url(#p393b7f27cf)" style="fill: none; stroke: #22a884; stroke-width: 1.5"/>
   </g>
   <g id="PathCollection_8">
    <path d="M 369.216 232.10681 
L 366.494665 234.4032 
L 362.5632 237.269248 
L 356.506393 241.056 
L 355.9104 241.38688 
L 349.2576 244.622795 
L 342.6048 247.105296 
L 340.504214 247.7088 
L 335.952 248.92443 
L 329.2992 250.12199 
L 322.6464 250.717023 
L 315.9936 250.726664 
L 309.3408 250.149037 
L 302.688 248.953741 
L 298.373184 247.7088 
L 296.0352 247.128704 
L 289.3824 244.71504 
L 287.226315 243.643598 
" clip-path="url(#p393b7f27cf)" style="fill: none; stroke: #44bf70; stroke-width: 1.5"/>
    <path d="M 278.358581 238.76557 
L 276.0768 237.409799 
L 272.407256 234.4032 
L 269.424 232.261781 
L 264.969517 227.7504 
L 262.7712 225.75456 
L 259.208733 221.0976 
L 256.1184 217.276505 
L 254.54592 214.4448 
L 250.892928 207.792 
L 249.4656 205.13088 
L 248.032689 201.1392 
L 245.97288 194.4864 
L 244.43904 187.8336 
L 243.47808 181.1808 
L 243.148333 174.528 
L 243.47808 167.8752 
L 244.43904 161.2224 
L 245.97288 154.5696 
L 248.032689 147.9168 
L 249.4656 143.92512 
L 250.892928 141.264 
L 254.54592 134.6112 
L 256.1184 131.779495 
L 259.208733 127.9584 
L 262.7712 123.30144 
L 264.969517 121.3056 
L 269.424 116.794219 
L 272.407256 114.6528 
L 276.0768 111.646201 
L 282.213407 108 
L 282.7296 107.646994 
L 289.3824 104.34096 
L 296.0352 101.927296 
L 298.373184 101.3472 
L 302.688 100.102259 
L 309.3408 98.906963 
L 315.9936 98.329336 
L 322.6464 98.338977 
L 329.2992 98.93401 
L 335.952 100.13157 
L 340.504214 101.3472 
L 342.6048 101.950704 
L 349.2576 104.433205 
L 355.9104 107.66912 
L 356.506393 108 
L 362.5632 111.786752 
L 366.494665 114.6528 
L 369.216 116.94919 
" clip-path="url(#p393b7f27cf)" style="fill: none; stroke: #44bf70; stroke-width: 1.5"/>
   </g>
   <g id="PathCollection_9">
    <path d="M 267.007297 137.782973 
L 269.424 136.06272 
L 272.754692 134.6112 
L 276.0768 132.922412 
L 282.7296 131.014302 
L 289.3824 130.197323 
L 296.0352 130.380702 
L 302.688 131.583664 
L 309.3408 133.88544 
L 310.877503 134.6112 
L 315.9936 137.54448 
L 320.941777 141.264 
L 322.6464 142.935729 
L 327.119346 147.9168 
L 329.2992 151.351817 
L 331.25724 154.5696 
L 333.967187 161.2224 
L 335.470395 167.8752 
L 335.952 174.528 
L 335.470395 181.1808 
L 333.967187 187.8336 
L 331.25724 194.4864 
L 329.2992 197.704183 
L 327.119346 201.1392 
L 322.6464 206.120271 
L 320.941777 207.792 
L 315.9936 211.51152 
L 310.877503 214.4448 
L 309.3408 215.17056 
L 302.688 217.472336 
L 296.0352 218.675298 
L 289.3824 218.858677 
L 282.7296 218.041698 
L 276.0768 216.133588 
L 272.754692 214.4448 
L 269.424 212.99328 
L 262.7712 208.257696 
L 262.358026 207.792 
L 256.1184 201.1392 
L 256.1184 201.1392 
L 252.326304 194.4864 
L 249.4656 188.339213 
L 249.31776 187.8336 
L 247.96872 181.1808 
L 247.510255 174.528 
L 247.96872 167.8752 
L 249.31776 161.2224 
L 249.4656 160.716787 
L 252.326304 154.5696 
L 256.1184 147.9168 
L 256.1184 147.9168 
L 259.026091 144.816569 
" clip-path="url(#p393b7f27cf)" style="fill: none; stroke: #7ad151; stroke-width: 1.5"/>
   </g>
   <g id="PathCollection_10">
    <path d="M 259.08762 190.366607 
L 256.822814 187.8336 
L 256.1184 186.79872 
L 254.12256 181.1808 
L 253.275203 174.528 
L 254.12256 167.8752 
L 256.1184 162.25728 
L 256.822814 161.2224 
L 262.7712 154.5696 
L 262.7712 154.5696 
L 269.424 151.056922 
L 276.0768 149.69088 
L 282.7296 150.170606 
L 289.3824 152.57376 
L 292.603756 154.5696 
L 296.0352 157.82208 
L 298.849007 161.2224 
L 301.798188 167.8752 
L 302.688 174.528 
L 301.798188 181.1808 
L 298.849007 187.8336 
L 296.0352 191.23392 
L 292.603756 194.4864 
L 289.3824 196.48224 
L 282.7296 198.885394 
L 276.0768 199.36512 
L 269.424 197.999078 
L 267.233365 196.842423 
" clip-path="url(#p393b7f27cf)" style="fill: none; stroke: #bddf26; stroke-width: 1.5"/>
   </g>
   <g id="PathCollection_11"/>
   <g id="patch_3">
    <path d="M 57.6 307.584 
L 57.6 41.472 
" style="fill: none; stroke: #000000; stroke-width: 0.8; stroke-linejoin: miter; stroke-linecap: square"/>
   </g>
   <g id="patch_4">
    <path d="M 414.72 307.584 
L 414.72 41.472 
" style="fill: none; stroke: #000000; stroke-width: 0.8; stroke-linejoin: miter; stroke-linecap: square"/>
   </g>
   <g id="patch_5">
    <path d="M 57.6 307.584 
L 414.72 307.584 
" style="fill: none; stroke: #000000; stroke-width: 0.8; stroke-linejoin: miter; stroke-linecap: square"/>
   </g>
   <g id="patch_6">
    <path d="M 57.6 41.472 
L 414.72 41.472 
" style="fill: none; stroke: #000000; stroke-width: 0.8; stroke-linejoin: miter; stroke-linecap: square"/>
   </g>
   <g id="text_15">
    <!-- Représentation sous la forme de courbes de niveau -->
    <g transform="translate(81.436875 35.472) scale(0.12 -0.12)">
     <defs>
      <path id="DejaVuSans-52" d="M 2841 2188 
Q 3044 2119 3236 1894 
Q 3428 1669 3622 1275 
L 4263 0 
L 3584 0 
L 2988 1197 
Q 2756 1666 2539 1819 
Q 2322 1972 1947 1972 
L 1259 1972 
L 1259 0 
L 628 0 
L 628 4666 
L 2053 4666 
Q 2853 4666 3247 4331 
Q 3641 3997 3641 3322 
Q 3641 2881 3436 2590 
Q 3231 2300 2841 2188 
z
M 1259 4147 
L 1259 2491 
L 2053 2491 
Q 2509 2491 2742 2702 
Q 2975 2913 2975 3322 
Q 2975 3731 2742 3939 
Q 2509 4147 2053 4147 
L 1259 4147 
z
" transform="scale(0.015625)"/>
      <path id="DejaVuSans-65" d="M 3597 1894 
L 3597 1613 
L 953 1613 
Q 991 1019 1311 708 
Q 1631 397 2203 397 
Q 2534 397 2845 478 
Q 3156 559 3463 722 
L 3463 178 
Q 3153 47 2828 -22 
Q 2503 -91 2169 -91 
Q 1331 -91 842 396 
Q 353 884 353 1716 
Q 353 2575 817 3079 
Q 1281 3584 2069 3584 
Q 2775 3584 3186 3129 
Q 3597 2675 3597 1894 
z
M 3022 2063 
Q 3016 2534 2758 2815 
Q 2500 3097 2075 3097 
Q 1594 3097 1305 2825 
Q 1016 2553 972 2059 
L 3022 2063 
z
" transform="scale(0.015625)"/>
      <path id="DejaVuSans-70" d="M 1159 525 
L 1159 -1331 
L 581 -1331 
L 581 3500 
L 1159 3500 
L 1159 2969 
Q 1341 3281 1617 3432 
Q 1894 3584 2278 3584 
Q 2916 3584 3314 3078 
Q 3713 2572 3713 1747 
Q 3713 922 3314 415 
Q 2916 -91 2278 -91 
Q 1894 -91 1617 61 
Q 1341 213 1159 525 
z
M 3116 1747 
Q 3116 2381 2855 2742 
Q 2594 3103 2138 3103 
Q 1681 3103 1420 2742 
Q 1159 2381 1159 1747 
Q 1159 1113 1420 752 
Q 1681 391 2138 391 
Q 2594 391 2855 752 
Q 3116 1113 3116 1747 
z
" transform="scale(0.015625)"/>
      <path id="DejaVuSans-72" d="M 2631 2963 
Q 2534 3019 2420 3045 
Q 2306 3072 2169 3072 
Q 1681 3072 1420 2755 
Q 1159 2438 1159 1844 
L 1159 0 
L 581 0 
L 581 3500 
L 1159 3500 
L 1159 2956 
Q 1341 3275 1631 3429 
Q 1922 3584 2338 3584 
Q 2397 3584 2469 3576 
Q 2541 3569 2628 3553 
L 2631 2963 
z
" transform="scale(0.015625)"/>
      <path id="DejaVuSans-e9" d="M 3597 1894 
L 3597 1613 
L 953 1613 
Q 991 1019 1311 708 
Q 1631 397 2203 397 
Q 2534 397 2845 478 
Q 3156 559 3463 722 
L 3463 178 
Q 3153 47 2828 -22 
Q 2503 -91 2169 -91 
Q 1331 -91 842 396 
Q 353 884 353 1716 
Q 353 2575 817 3079 
Q 1281 3584 2069 3584 
Q 2775 3584 3186 3129 
Q 3597 2675 3597 1894 
z
M 3022 2063 
Q 3016 2534 2758 2815 
Q 2500 3097 2075 3097 
Q 1594 3097 1305 2825 
Q 1016 2553 972 2059 
L 3022 2063 
z
M 2466 5119 
L 3088 5119 
L 2070 3944 
L 1591 3944 
L 2466 5119 
z
" transform="scale(0.015625)"/>
      <path id="DejaVuSans-73" d="M 2834 3397 
L 2834 2853 
Q 2591 2978 2328 3040 
Q 2066 3103 1784 3103 
Q 1356 3103 1142 2972 
Q 928 2841 928 2578 
Q 928 2378 1081 2264 
Q 1234 2150 1697 2047 
L 1894 2003 
Q 2506 1872 2764 1633 
Q 3022 1394 3022 966 
Q 3022 478 2636 193 
Q 2250 -91 1575 -91 
Q 1294 -91 989 -36 
Q 684 19 347 128 
L 347 722 
Q 666 556 975 473 
Q 1284 391 1588 391 
Q 1994 391 2212 530 
Q 2431 669 2431 922 
Q 2431 1156 2273 1281 
Q 2116 1406 1581 1522 
L 1381 1569 
Q 847 1681 609 1914 
Q 372 2147 372 2553 
Q 372 3047 722 3315 
Q 1072 3584 1716 3584 
Q 2034 3584 2315 3537 
Q 2597 3491 2834 3397 
z
" transform="scale(0.015625)"/>
      <path id="DejaVuSans-6e" d="M 3513 2113 
L 3513 0 
L 2938 0 
L 2938 2094 
Q 2938 2591 2744 2837 
Q 2550 3084 2163 3084 
Q 1697 3084 1428 2787 
Q 1159 2491 1159 1978 
L 1159 0 
L 581 0 
L 581 3500 
L 1159 3500 
L 1159 2956 
Q 1366 3272 1645 3428 
Q 1925 3584 2291 3584 
Q 2894 3584 3203 3211 
Q 3513 2838 3513 2113 
z
" transform="scale(0.015625)"/>
      <path id="DejaVuSans-74" d="M 1172 4494 
L 1172 3500 
L 2356 3500 
L 2356 3053 
L 1172 3053 
L 1172 1153 
Q 1172 725 1289 603 
Q 1406 481 1766 481 
L 2356 481 
L 2356 0 
L 1766 0 
Q 1100 0 847 248 
Q 594 497 594 1153 
L 594 3053 
L 172 3053 
L 172 3500 
L 594 3500 
L 594 4494 
L 1172 4494 
z
" transform="scale(0.015625)"/>
      <path id="DejaVuSans-61" d="M 2194 1759 
Q 1497 1759 1228 1600 
Q 959 1441 959 1056 
Q 959 750 1161 570 
Q 1363 391 1709 391 
Q 2188 391 2477 730 
Q 2766 1069 2766 1631 
L 2766 1759 
L 2194 1759 
z
M 3341 1997 
L 3341 0 
L 2766 0 
L 2766 531 
Q 2569 213 2275 61 
Q 1981 -91 1556 -91 
Q 1019 -91 701 211 
Q 384 513 384 1019 
Q 384 1609 779 1909 
Q 1175 2209 1959 2209 
L 2766 2209 
L 2766 2266 
Q 2766 2663 2505 2880 
Q 2244 3097 1772 3097 
Q 1472 3097 1187 3025 
Q 903 2953 641 2809 
L 641 3341 
Q 956 3463 1253 3523 
Q 1550 3584 1831 3584 
Q 2591 3584 2966 3190 
Q 3341 2797 3341 1997 
z
" transform="scale(0.015625)"/>
      <path id="DejaVuSans-69" d="M 603 3500 
L 1178 3500 
L 1178 0 
L 603 0 
L 603 3500 
z
M 603 4863 
L 1178 4863 
L 1178 4134 
L 603 4134 
L 603 4863 
z
" transform="scale(0.015625)"/>
      <path id="DejaVuSans-6f" d="M 1959 3097 
Q 1497 3097 1228 2736 
Q 959 2375 959 1747 
Q 959 1119 1226 758 
Q 1494 397 1959 397 
Q 2419 397 2687 759 
Q 2956 1122 2956 1747 
Q 2956 2369 2687 2733 
Q 2419 3097 1959 3097 
z
M 1959 3584 
Q 2709 3584 3137 3096 
Q 3566 2609 3566 1747 
Q 3566 888 3137 398 
Q 2709 -91 1959 -91 
Q 1206 -91 779 398 
Q 353 888 353 1747 
Q 353 2609 779 3096 
Q 1206 3584 1959 3584 
z
" transform="scale(0.015625)"/>
      <path id="DejaVuSans-20" transform="scale(0.015625)"/>
      <path id="DejaVuSans-75" d="M 544 1381 
L 544 3500 
L 1119 3500 
L 1119 1403 
Q 1119 906 1312 657 
Q 1506 409 1894 409 
Q 2359 409 2629 706 
Q 2900 1003 2900 1516 
L 2900 3500 
L 3475 3500 
L 3475 0 
L 2900 0 
L 2900 538 
Q 2691 219 2414 64 
Q 2138 -91 1772 -91 
Q 1169 -91 856 284 
Q 544 659 544 1381 
z
M 1991 3584 
L 1991 3584 
z
" transform="scale(0.015625)"/>
      <path id="DejaVuSans-6c" d="M 603 4863 
L 1178 4863 
L 1178 0 
L 603 0 
L 603 4863 
z
" transform="scale(0.015625)"/>
      <path id="DejaVuSans-66" d="M 2375 4863 
L 2375 4384 
L 1825 4384 
Q 1516 4384 1395 4259 
Q 1275 4134 1275 3809 
L 1275 3500 
L 2222 3500 
L 2222 3053 
L 1275 3053 
L 1275 0 
L 697 0 
L 697 3053 
L 147 3053 
L 147 3500 
L 697 3500 
L 697 3744 
Q 697 4328 969 4595 
Q 1241 4863 1831 4863 
L 2375 4863 
z
" transform="scale(0.015625)"/>
      <path id="DejaVuSans-6d" d="M 3328 2828 
Q 3544 3216 3844 3400 
Q 4144 3584 4550 3584 
Q 5097 3584 5394 3201 
Q 5691 2819 5691 2113 
L 5691 0 
L 5113 0 
L 5113 2094 
Q 5113 2597 4934 2840 
Q 4756 3084 4391 3084 
Q 3944 3084 3684 2787 
Q 3425 2491 3425 1978 
L 3425 0 
L 2847 0 
L 2847 2094 
Q 2847 2600 2669 2842 
Q 2491 3084 2119 3084 
Q 1678 3084 1418 2786 
Q 1159 2488 1159 1978 
L 1159 0 
L 581 0 
L 581 3500 
L 1159 3500 
L 1159 2956 
Q 1356 3278 1631 3431 
Q 1906 3584 2284 3584 
Q 2666 3584 2933 3390 
Q 3200 3197 3328 2828 
z
" transform="scale(0.015625)"/>
      <path id="DejaVuSans-64" d="M 2906 2969 
L 2906 4863 
L 3481 4863 
L 3481 0 
L 2906 0 
L 2906 525 
Q 2725 213 2448 61 
Q 2172 -91 1784 -91 
Q 1150 -91 751 415 
Q 353 922 353 1747 
Q 353 2572 751 3078 
Q 1150 3584 1784 3584 
Q 2172 3584 2448 3432 
Q 2725 3281 2906 2969 
z
M 947 1747 
Q 947 1113 1208 752 
Q 1469 391 1925 391 
Q 2381 391 2643 752 
Q 2906 1113 2906 1747 
Q 2906 2381 2643 2742 
Q 2381 3103 1925 3103 
Q 1469 3103 1208 2742 
Q 947 2381 947 1747 
z
" transform="scale(0.015625)"/>
      <path id="DejaVuSans-63" d="M 3122 3366 
L 3122 2828 
Q 2878 2963 2633 3030 
Q 2388 3097 2138 3097 
Q 1578 3097 1268 2742 
Q 959 2388 959 1747 
Q 959 1106 1268 751 
Q 1578 397 2138 397 
Q 2388 397 2633 464 
Q 2878 531 3122 666 
L 3122 134 
Q 2881 22 2623 -34 
Q 2366 -91 2075 -91 
Q 1284 -91 818 406 
Q 353 903 353 1747 
Q 353 2603 823 3093 
Q 1294 3584 2113 3584 
Q 2378 3584 2631 3529 
Q 2884 3475 3122 3366 
z
" transform="scale(0.015625)"/>
      <path id="DejaVuSans-62" d="M 3116 1747 
Q 3116 2381 2855 2742 
Q 2594 3103 2138 3103 
Q 1681 3103 1420 2742 
Q 1159 2381 1159 1747 
Q 1159 1113 1420 752 
Q 1681 391 2138 391 
Q 2594 391 2855 752 
Q 3116 1113 3116 1747 
z
M 1159 2969 
Q 1341 3281 1617 3432 
Q 1894 3584 2278 3584 
Q 2916 3584 3314 3078 
Q 3713 2572 3713 1747 
Q 3713 922 3314 415 
Q 2916 -91 2278 -91 
Q 1894 -91 1617 61 
Q 1341 213 1159 525 
L 1159 0 
L 581 0 
L 581 4863 
L 1159 4863 
L 1159 2969 
z
" transform="scale(0.015625)"/>
      <path id="DejaVuSans-76" d="M 191 3500 
L 800 3500 
L 1894 563 
L 2988 3500 
L 3597 3500 
L 2284 0 
L 1503 0 
L 191 3500 
z
" transform="scale(0.015625)"/>
     </defs>
     <use xlink:href="#DejaVuSans-52"/>
     <use xlink:href="#DejaVuSans-65" x="64.982422"/>
     <use xlink:href="#DejaVuSans-70" x="126.505859"/>
     <use xlink:href="#DejaVuSans-72" x="189.982422"/>
     <use xlink:href="#DejaVuSans-e9" x="228.845703"/>
     <use xlink:href="#DejaVuSans-73" x="290.369141"/>
     <use xlink:href="#DejaVuSans-65" x="342.46875"/>
     <use xlink:href="#DejaVuSans-6e" x="403.992188"/>
     <use xlink:href="#DejaVuSans-74" x="467.371094"/>
     <use xlink:href="#DejaVuSans-61" x="506.580078"/>
     <use xlink:href="#DejaVuSans-74" x="567.859375"/>
     <use xlink:href="#DejaVuSans-69" x="607.068359"/>
     <use xlink:href="#DejaVuSans-6f" x="634.851562"/>
     <use xlink:href="#DejaVuSans-6e" x="696.033203"/>
     <use xlink:href="#DejaVuSans-20" x="759.412109"/>
     <use xlink:href="#DejaVuSans-73" x="791.199219"/>
     <use xlink:href="#DejaVuSans-6f" x="843.298828"/>
     <use xlink:href="#DejaVuSans-75" x="904.480469"/>
     <use xlink:href="#DejaVuSans-73" x="967.859375"/>
     <use xlink:href="#DejaVuSans-20" x="1019.958984"/>
     <use xlink:href="#DejaVuSans-6c" x="1051.746094"/>
     <use xlink:href="#DejaVuSans-61" x="1079.529297"/>
     <use xlink:href="#DejaVuSans-20" x="1140.808594"/>
     <use xlink:href="#DejaVuSans-66" x="1172.595703"/>
     <use xlink:href="#DejaVuSans-6f" x="1207.800781"/>
     <use xlink:href="#DejaVuSans-72" x="1268.982422"/>
     <use xlink:href="#DejaVuSans-6d" x="1308.345703"/>
     <use xlink:href="#DejaVuSans-65" x="1405.757812"/>
     <use xlink:href="#DejaVuSans-20" x="1467.28125"/>
     <use xlink:href="#DejaVuSans-64" x="1499.068359"/>
     <use xlink:href="#DejaVuSans-65" x="1562.544922"/>
     <use xlink:href="#DejaVuSans-20" x="1624.068359"/>
     <use xlink:href="#DejaVuSans-63" x="1655.855469"/>
     <use xlink:href="#DejaVuSans-6f" x="1710.835938"/>
     <use xlink:href="#DejaVuSans-75" x="1772.017578"/>
     <use xlink:href="#DejaVuSans-72" x="1835.396484"/>
     <use xlink:href="#DejaVuSans-62" x="1876.509766"/>
     <use xlink:href="#DejaVuSans-65" x="1939.986328"/>
     <use xlink:href="#DejaVuSans-73" x="2001.509766"/>
     <use xlink:href="#DejaVuSans-20" x="2053.609375"/>
     <use xlink:href="#DejaVuSans-64" x="2085.396484"/>
     <use xlink:href="#DejaVuSans-65" x="2148.873047"/>
     <use xlink:href="#DejaVuSans-20" x="2210.396484"/>
     <use xlink:href="#DejaVuSans-6e" x="2242.183594"/>
     <use xlink:href="#DejaVuSans-69" x="2305.5625"/>
     <use xlink:href="#DejaVuSans-76" x="2333.345703"/>
     <use xlink:href="#DejaVuSans-65" x="2392.525391"/>
     <use xlink:href="#DejaVuSans-61" x="2454.048828"/>
     <use xlink:href="#DejaVuSans-75" x="2515.328125"/>
    </g>
   </g>
   <g id="text_16">
    <g clip-path="url(#p393b7f27cf)">
     <!-- −4 -->
     <g style="fill: #482475" transform="translate(171.091581 167.894402) rotate(-49.848996) scale(0.09 -0.09)">
      <use xlink:href="#DejaVuSans-2212"/>
      <use xlink:href="#DejaVuSans-34" x="83.789062"/>
     </g>
    </g>
   </g>
   <g id="text_17">
    <g clip-path="url(#p393b7f27cf)">
     <!-- −3 -->
     <g style="fill: #414487" transform="translate(149.277479 210.811572) rotate(-333.805771) scale(0.09 -0.09)">
      <use xlink:href="#DejaVuSans-2212"/>
      <use xlink:href="#DejaVuSans-33" x="83.789062"/>
     </g>
    </g>
   </g>
   <g id="text_18">
    <g clip-path="url(#p393b7f27cf)">
     <!-- −2 -->
     <g style="fill: #355f8d" transform="translate(195.982482 115.251339) rotate(-326.896106) scale(0.09 -0.09)">
      <use xlink:href="#DejaVuSans-2212"/>
      <use xlink:href="#DejaVuSans-32" x="83.789062"/>
     </g>
    </g>
   </g>
   <g id="text_19">
    <g clip-path="url(#p393b7f27cf)">
     <!-- −1 -->
     <g style="fill: #2a788e" transform="translate(193.032165 283.808734) rotate(-42.520557) scale(0.09 -0.09)">
      <use xlink:href="#DejaVuSans-2212"/>
      <use xlink:href="#DejaVuSans-31" x="83.789062"/>
     </g>
    </g>
   </g>
   <g id="text_20">
    <g clip-path="url(#p393b7f27cf)">
     <!-- 0 -->
     <g style="fill: #21918c" transform="translate(233.676562 278.109675) rotate(-270) scale(0.09 -0.09)">
      <use xlink:href="#DejaVuSans-30"/>
     </g>
    </g>
   </g>
   <g id="text_21">
    <g clip-path="url(#p393b7f27cf)">
     <!-- 1 -->
     <g style="fill: #22a884" transform="translate(247.670619 131.534974) rotate(-68.386596) scale(0.09 -0.09)">
      <use xlink:href="#DejaVuSans-31"/>
     </g>
    </g>
   </g>
   <g id="text_22">
    <g clip-path="url(#p393b7f27cf)">
     <!-- 2 -->
     <g style="fill: #44bf70" transform="translate(279.133458 242.605964) rotate(-337.471827) scale(0.09 -0.09)">
      <use xlink:href="#DejaVuSans-32"/>
     </g>
    </g>
   </g>
   <g id="text_23">
    <g clip-path="url(#p393b7f27cf)">
     <!-- 3 -->
     <g style="fill: #7ad151" transform="translate(261.748248 144.447758) rotate(-33.403724) scale(0.09 -0.09)">
      <use xlink:href="#DejaVuSans-33"/>
     </g>
    </g>
   </g>
   <g id="text_24">
    <g clip-path="url(#p393b7f27cf)">
     <!-- 4 -->
     <g style="fill: #bddf26" transform="translate(259.042113 195.163788) rotate(-329.35756) scale(0.09 -0.09)">
      <use xlink:href="#DejaVuSans-34"/>
     </g>
    </g>
   </g>
  </g>
 </g>
 <defs>
  <clipPath id="p393b7f27cf">
   <rect x="57.6" y="41.472" width="357.12" height="266.112"/>
  </clipPath>
 </defs>
</svg>
