<?xml version="1.0" encoding="utf-8" standalone="no"?>
<!DOCTYPE svg PUBLIC "-//W3C//DTD SVG 1.1//EN"
  "http://www.w3.org/Graphics/SVG/1.1/DTD/svg11.dtd">
<svg xmlns:xlink="http://www.w3.org/1999/xlink" width="372.70125pt" height="301.869994pt" viewBox="0 0 372.70125 301.869994" xmlns="http://www.w3.org/2000/svg" version="1.1">
 <metadata>
  <rdf:RDF xmlns:dc="http://purl.org/dc/elements/1.1/" xmlns:cc="http://creativecommons.org/ns#" xmlns:rdf="http://www.w3.org/1999/02/22-rdf-syntax-ns#">
   <cc:Work>
    <dc:type rdf:resource="http://purl.org/dc/dcmitype/StillImage"/>
    <dc:date>2025-06-10T09:29:15.573099</dc:date>
    <dc:format>image/svg+xml</dc:format>
    <dc:creator>
     <cc:Agent>
      <dc:title>Matplotlib v3.7.1, https://matplotlib.org/</dc:title>
     </cc:Agent>
    </dc:creator>
   </cc:Work>
  </rdf:RDF>
 </metadata>
 <defs>
  <style type="text/css">*{stroke-linejoin: round; stroke-linecap: butt}</style>
 </defs>
 <g id="figure_1">
  <g id="patch_1">
   <path d="M 0 301.869994 
L 372.70125 301.869994 
L 372.70125 0 
L 0 0 
L 0 301.869994 
z
" style="fill: none"/>
  </g>
  <g id="patch_2">
   <path d="M 53.294625 288.430125 
L 319.406625 288.430125 
L 319.406625 22.318125 
L 53.294625 22.318125 
L 53.294625 288.430125 
z
" style="fill: none"/>
  </g>
  <g id="pane3d_1">
   <g id="patch_3">
    <path d="M 73.387916 222.815434 
L 161.266789 149.15362 
L 160.045189 42.920116 
L 67.960859 110.119066 
" style="fill: #f2f2f2; opacity: 0.5; stroke: #f2f2f2; stroke-linejoin: miter"/>
   </g>
  </g>
  <g id="pane3d_2">
   <g id="patch_4">
    <path d="M 161.266789 149.15362 
L 302.281026 190.140891 
L 307.313327 80.248296 
L 160.045189 42.920116 
" style="fill: #e6e6e6; opacity: 0.5; stroke: #e6e6e6; stroke-linejoin: miter"/>
   </g>
  </g>
  <g id="pane3d_3">
   <g id="patch_5">
    <path d="M 73.387916 222.815434 
L 222.869894 271.636248 
L 302.281026 190.140891 
L 161.266789 149.15362 
" style="fill: #ececec; opacity: 0.5; stroke: #ececec; stroke-linejoin: miter"/>
   </g>
  </g>
  <g id="axis3d_1">
   <g id="line2d_1">
    <path d="M 73.387916 222.815434 
L 222.869894 271.636248 
" style="fill: none; stroke: #000000; stroke-width: 0.8; stroke-linecap: square"/>
   </g>
   <g id="Line3DCollection_1">
    <path d="M 82.441329 225.772279 
L 169.842844 151.64634 
L 168.983845 45.185805 
" style="fill: none; stroke: #b0b0b0; stroke-width: 0.8"/>
    <path d="M 113.937589 236.058957 
L 199.642633 160.307963 
L 200.061427 53.063066 
" style="fill: none; stroke: #b0b0b0; stroke-width: 0.8"/>
    <path d="M 146.158506 246.582309 
L 230.070673 169.152193 
L 231.82281 61.113651 
" style="fill: none; stroke: #b0b0b0; stroke-width: 0.8"/>
    <path d="M 179.129381 257.350596 
L 261.147044 178.184867 
L 264.290814 69.343343 
" style="fill: none; stroke: #b0b0b0; stroke-width: 0.8"/>
    <path d="M 212.876706 268.372472 
L 292.892688 187.412072 
L 297.489284 77.758187 
" style="fill: none; stroke: #b0b0b0; stroke-width: 0.8"/>
   </g>
   <g id="xtick_1">
    <g id="line2d_2">
     <path d="M 83.202417 225.126794 
L 80.915888 227.066017 
" style="fill: none; stroke: #000000; stroke-width: 0.8; stroke-linecap: square"/>
    </g>
    <g id="text_1">
     <!-- −4 -->
     <g transform="translate(67.541186 249.081428) scale(0.1 -0.1)">
      <defs>
       <path id="DejaVuSans-2212" d="M 678 2272 
L 4684 2272 
L 4684 1741 
L 678 1741 
L 678 2272 
z
" transform="scale(0.015625)"/>
       <path id="DejaVuSans-34" d="M 2419 4116 
L 825 1625 
L 2419 1625 
L 2419 4116 
z
M 2253 4666 
L 3047 4666 
L 3047 1625 
L 3713 1625 
L 3713 1100 
L 3047 1100 
L 3047 0 
L 2419 0 
L 2419 1100 
L 313 1100 
L 313 1709 
L 2253 4666 
z
" transform="scale(0.015625)"/>
      </defs>
      <use xlink:href="#DejaVuSans-2212"/>
      <use xlink:href="#DejaVuSans-34" x="83.789062"/>
     </g>
    </g>
   </g>
   <g id="xtick_2">
    <g id="line2d_3">
     <path d="M 114.684593 235.398712 
L 112.440339 237.382312 
" style="fill: none; stroke: #000000; stroke-width: 0.8; stroke-linecap: square"/>
    </g>
    <g id="text_2">
     <!-- −2 -->
     <g transform="translate(99.069912 259.586131) scale(0.1 -0.1)">
      <defs>
       <path id="DejaVuSans-32" d="M 1228 531 
L 3431 531 
L 3431 0 
L 469 0 
L 469 531 
Q 828 903 1448 1529 
Q 2069 2156 2228 2338 
Q 2531 2678 2651 2914 
Q 2772 3150 2772 3378 
Q 2772 3750 2511 3984 
Q 2250 4219 1831 4219 
Q 1534 4219 1204 4116 
Q 875 4013 500 3803 
L 500 4441 
Q 881 4594 1212 4672 
Q 1544 4750 1819 4750 
Q 2544 4750 2975 4387 
Q 3406 4025 3406 3419 
Q 3406 3131 3298 2873 
Q 3191 2616 2906 2266 
Q 2828 2175 2409 1742 
Q 1991 1309 1228 531 
z
" transform="scale(0.015625)"/>
      </defs>
      <use xlink:href="#DejaVuSans-2212"/>
      <use xlink:href="#DejaVuSans-32" x="83.789062"/>
     </g>
    </g>
   </g>
   <g id="xtick_3">
    <g id="line2d_4">
     <path d="M 146.890575 245.906791 
L 144.691156 247.936309 
" style="fill: none; stroke: #000000; stroke-width: 0.8; stroke-linecap: square"/>
    </g>
    <g id="text_3">
     <!-- 0 -->
     <g transform="translate(135.516645 270.333443) scale(0.1 -0.1)">
      <defs>
       <path id="DejaVuSans-30" d="M 2034 4250 
Q 1547 4250 1301 3770 
Q 1056 3291 1056 2328 
Q 1056 1369 1301 889 
Q 1547 409 2034 409 
Q 2525 409 2770 889 
Q 3016 1369 3016 2328 
Q 3016 3291 2770 3770 
Q 2525 4250 2034 4250 
z
M 2034 4750 
Q 2819 4750 3233 4129 
Q 3647 3509 3647 2328 
Q 3647 1150 3233 529 
Q 2819 -91 2034 -91 
Q 1250 -91 836 529 
Q 422 1150 422 2328 
Q 422 3509 836 4129 
Q 1250 4750 2034 4750 
z
" transform="scale(0.015625)"/>
      </defs>
      <use xlink:href="#DejaVuSans-30"/>
     </g>
    </g>
   </g>
   <g id="xtick_4">
    <g id="line2d_5">
     <path d="M 179.845612 256.65927 
L 177.693739 258.736319 
" style="fill: none; stroke: #000000; stroke-width: 0.8; stroke-linecap: square"/>
    </g>
    <g id="text_4">
     <!-- 2 -->
     <g transform="translate(168.527218 281.331866) scale(0.1 -0.1)">
      <use xlink:href="#DejaVuSans-32"/>
     </g>
    </g>
   </g>
   <g id="xtick_5">
    <g id="line2d_6">
     <path d="M 213.576147 267.664776 
L 211.474682 269.791045 
" style="fill: none; stroke: #000000; stroke-width: 0.8; stroke-linecap: square"/>
    </g>
    <g id="text_5">
     <!-- 4 -->
     <g transform="translate(202.318202 292.590306) scale(0.1 -0.1)">
      <use xlink:href="#DejaVuSans-34"/>
     </g>
    </g>
   </g>
  </g>
  <g id="axis3d_2">
   <g id="line2d_7">
    <path d="M 302.281026 190.140891 
L 222.869894 271.636248 
" style="fill: none; stroke: #000000; stroke-width: 0.8; stroke-linecap: square"/>
   </g>
   <g id="Line3DCollection_2">
    <path d="M 74.328718 105.472092 
L 79.443513 217.739512 
L 228.36453 265.9974 
" style="fill: none; stroke: #b0b0b0; stroke-width: 0.8"/>
    <path d="M 95.60307 89.947039 
L 99.697672 200.762075 
L 246.718127 247.162094 
" style="fill: none; stroke: #b0b0b0; stroke-width: 0.8"/>
    <path d="M 116.051404 75.024776 
L 119.19892 184.415742 
L 264.354172 229.063173 
" style="fill: none; stroke: #b0b0b0; stroke-width: 0.8"/>
    <path d="M 135.720911 60.670866 
L 137.988473 168.665967 
L 281.313937 211.658282 
" style="fill: none; stroke: #b0b0b0; stroke-width: 0.8"/>
    <path d="M 154.655255 46.853444 
L 156.104592 153.480676 
L 297.63559 194.908251 
" style="fill: none; stroke: #b0b0b0; stroke-width: 0.8"/>
   </g>
   <g id="xtick_6">
    <g id="line2d_8">
     <path d="M 227.109568 265.590729 
L 230.877699 266.811793 
" style="fill: none; stroke: #000000; stroke-width: 0.8; stroke-linecap: square"/>
    </g>
    <g id="text_6">
     <!-- −4 -->
     <g transform="translate(233.87407 287.01913) scale(0.1 -0.1)">
      <use xlink:href="#DejaVuSans-2212"/>
      <use xlink:href="#DejaVuSans-34" x="83.789062"/>
     </g>
    </g>
   </g>
   <g id="xtick_7">
    <g id="line2d_9">
     <path d="M 245.480433 246.771474 
L 249.196653 247.944323 
" style="fill: none; stroke: #000000; stroke-width: 0.8; stroke-linecap: square"/>
    </g>
    <g id="text_7">
     <!-- −2 -->
     <g transform="translate(251.981476 267.904983) scale(0.1 -0.1)">
      <use xlink:href="#DejaVuSans-2212"/>
      <use xlink:href="#DejaVuSans-32" x="83.789062"/>
     </g>
    </g>
   </g>
   <g id="xtick_8">
    <g id="line2d_10">
     <path d="M 263.133367 228.687673 
L 266.798816 229.815107 
" style="fill: none; stroke: #000000; stroke-width: 0.8; stroke-linecap: square"/>
    </g>
    <g id="text_8">
     <!-- 0 -->
     <g transform="translate(273.570391 249.538554) scale(0.1 -0.1)">
      <use xlink:href="#DejaVuSans-30"/>
     </g>
    </g>
   </g>
   <g id="xtick_9">
    <g id="line2d_11">
     <path d="M 280.109648 211.29704 
L 283.72545 212.381647 
" style="fill: none; stroke: #000000; stroke-width: 0.8; stroke-linecap: square"/>
    </g>
    <g id="text_9">
     <!-- 2 -->
     <g transform="translate(290.301893 231.876809) scale(0.1 -0.1)">
      <use xlink:href="#DejaVuSans-32"/>
     </g>
    </g>
   </g>
   <g id="xtick_10">
    <g id="line2d_12">
     <path d="M 296.44745 194.560471 
L 300.014711 195.604644 
" style="fill: none; stroke: #000000; stroke-width: 0.8; stroke-linecap: square"/>
    </g>
    <g id="text_10">
     <!-- 4 -->
     <g transform="translate(306.403523 214.879957) scale(0.1 -0.1)">
      <use xlink:href="#DejaVuSans-34"/>
     </g>
    </g>
   </g>
  </g>
  <g id="axis3d_3">
   <g id="line2d_13">
    <path d="M 302.281026 190.140891 
L 307.313327 80.248296 
" style="fill: none; stroke: #000000; stroke-width: 0.8; stroke-linecap: square"/>
   </g>
   <g id="Line3DCollection_3">
    <path d="M 302.842536 177.878936 
L 161.130226 137.277701 
L 72.783265 210.259455 
" style="fill: none; stroke: #b0b0b0; stroke-width: 0.8"/>
    <path d="M 303.784371 157.311674 
L 160.901309 117.370515 
L 71.768558 189.188415 
" style="fill: none; stroke: #b0b0b0; stroke-width: 0.8"/>
    <path d="M 304.742052 136.39836 
L 160.668726 97.144512 
L 70.736122 167.74921 
" style="fill: none; stroke: #b0b0b0; stroke-width: 0.8"/>
    <path d="M 305.715984 115.130186 
L 160.432388 76.591973 
L 69.685488 145.932107 
" style="fill: none; stroke: #b0b0b0; stroke-width: 0.8"/>
    <path d="M 306.706582 93.498043 
L 160.192204 55.704926 
L 68.61617 123.727025 
" style="fill: none; stroke: #b0b0b0; stroke-width: 0.8"/>
   </g>
   <g id="xtick_11">
    <g id="line2d_14">
     <path d="M 301.652901 177.5381 
L 305.224649 178.561423 
" style="fill: none; stroke: #000000; stroke-width: 0.8; stroke-linecap: square"/>
    </g>
    <g id="text_11">
     <!-- −4 -->
     <g transform="translate(313.809332 182.896342) scale(0.1 -0.1)">
      <use xlink:href="#DejaVuSans-2212"/>
      <use xlink:href="#DejaVuSans-34" x="83.789062"/>
     </g>
    </g>
   </g>
   <g id="xtick_12">
    <g id="line2d_15">
     <path d="M 302.584438 156.976248 
L 306.187129 157.983335 
" style="fill: none; stroke: #000000; stroke-width: 0.8; stroke-linecap: square"/>
    </g>
    <g id="text_12">
     <!-- −2 -->
     <g transform="translate(314.900824 162.370101) scale(0.1 -0.1)">
      <use xlink:href="#DejaVuSans-2212"/>
      <use xlink:href="#DejaVuSans-32" x="83.789062"/>
     </g>
    </g>
   </g>
   <g id="xtick_13">
    <g id="line2d_16">
     <path d="M 303.531641 136.068575 
L 307.165816 137.058733 
" style="fill: none; stroke: #000000; stroke-width: 0.8; stroke-linecap: square"/>
    </g>
    <g id="text_13">
     <!-- 0 -->
     <g transform="translate(320.200469 141.499556) scale(0.1 -0.1)">
      <use xlink:href="#DejaVuSans-30"/>
     </g>
    </g>
   </g>
   <g id="xtick_14">
    <g id="line2d_17">
     <path d="M 304.49491 114.806282 
L 308.161124 115.778789 
" style="fill: none; stroke: #000000; stroke-width: 0.8; stroke-linecap: square"/>
    </g>
    <g id="text_14">
     <!-- 2 -->
     <g transform="translate(321.329043 120.275971) scale(0.1 -0.1)">
      <use xlink:href="#DejaVuSans-32"/>
     </g>
    </g>
   </g>
   <g id="xtick_15">
    <g id="line2d_18">
     <path d="M 305.474657 93.18027 
L 309.173478 94.134374 
" style="fill: none; stroke: #000000; stroke-width: 0.8; stroke-linecap: square"/>
    </g>
    <g id="text_15">
     <!-- 4 -->
     <g transform="translate(322.47687 98.690312) scale(0.1 -0.1)">
      <use xlink:href="#DejaVuSans-34"/>
     </g>
    </g>
   </g>
  </g>
  <g id="axes_1">
   <g id="Line3DCollection_4"/>
   <g id="text_16">
    <!-- Representation sous la forme de courbes de niveau (en 3D) -->
    <g transform="translate(7.2 16.318125) scale(0.12 -0.12)">
     <defs>
      <path id="DejaVuSans-52" d="M 2841 2188 
Q 3044 2119 3236 1894 
Q 3428 1669 3622 1275 
L 4263 0 
L 3584 0 
L 2988 1197 
Q 2756 1666 2539 1819 
Q 2322 1972 1947 1972 
L 1259 1972 
L 1259 0 
L 628 0 
L 628 4666 
L 2053 4666 
Q 2853 4666 3247 4331 
Q 3641 3997 3641 3322 
Q 3641 2881 3436 2590 
Q 3231 2300 2841 2188 
z
M 1259 4147 
L 1259 2491 
L 2053 2491 
Q 2509 2491 2742 2702 
Q 2975 2913 2975 3322 
Q 2975 3731 2742 3939 
Q 2509 4147 2053 4147 
L 1259 4147 
z
" transform="scale(0.015625)"/>
      <path id="DejaVuSans-65" d="M 3597 1894 
L 3597 1613 
L 953 1613 
Q 991 1019 1311 708 
Q 1631 397 2203 397 
Q 2534 397 2845 478 
Q 3156 559 3463 722 
L 3463 178 
Q 3153 47 2828 -22 
Q 2503 -91 2169 -91 
Q 1331 -91 842 396 
Q 353 884 353 1716 
Q 353 2575 817 3079 
Q 1281 3584 2069 3584 
Q 2775 3584 3186 3129 
Q 3597 2675 3597 1894 
z
M 3022 2063 
Q 3016 2534 2758 2815 
Q 2500 3097 2075 3097 
Q 1594 3097 1305 2825 
Q 1016 2553 972 2059 
L 3022 2063 
z
" transform="scale(0.015625)"/>
      <path id="DejaVuSans-70" d="M 1159 525 
L 1159 -1331 
L 581 -1331 
L 581 3500 
L 1159 3500 
L 1159 2969 
Q 1341 3281 1617 3432 
Q 1894 3584 2278 3584 
Q 2916 3584 3314 3078 
Q 3713 2572 3713 1747 
Q 3713 922 3314 415 
Q 2916 -91 2278 -91 
Q 1894 -91 1617 61 
Q 1341 213 1159 525 
z
M 3116 1747 
Q 3116 2381 2855 2742 
Q 2594 3103 2138 3103 
Q 1681 3103 1420 2742 
Q 1159 2381 1159 1747 
Q 1159 1113 1420 752 
Q 1681 391 2138 391 
Q 2594 391 2855 752 
Q 3116 1113 3116 1747 
z
" transform="scale(0.015625)"/>
      <path id="DejaVuSans-72" d="M 2631 2963 
Q 2534 3019 2420 3045 
Q 2306 3072 2169 3072 
Q 1681 3072 1420 2755 
Q 1159 2438 1159 1844 
L 1159 0 
L 581 0 
L 581 3500 
L 1159 3500 
L 1159 2956 
Q 1341 3275 1631 3429 
Q 1922 3584 2338 3584 
Q 2397 3584 2469 3576 
Q 2541 3569 2628 3553 
L 2631 2963 
z
" transform="scale(0.015625)"/>
      <path id="DejaVuSans-73" d="M 2834 3397 
L 2834 2853 
Q 2591 2978 2328 3040 
Q 2066 3103 1784 3103 
Q 1356 3103 1142 2972 
Q 928 2841 928 2578 
Q 928 2378 1081 2264 
Q 1234 2150 1697 2047 
L 1894 2003 
Q 2506 1872 2764 1633 
Q 3022 1394 3022 966 
Q 3022 478 2636 193 
Q 2250 -91 1575 -91 
Q 1294 -91 989 -36 
Q 684 19 347 128 
L 347 722 
Q 666 556 975 473 
Q 1284 391 1588 391 
Q 1994 391 2212 530 
Q 2431 669 2431 922 
Q 2431 1156 2273 1281 
Q 2116 1406 1581 1522 
L 1381 1569 
Q 847 1681 609 1914 
Q 372 2147 372 2553 
Q 372 3047 722 3315 
Q 1072 3584 1716 3584 
Q 2034 3584 2315 3537 
Q 2597 3491 2834 3397 
z
" transform="scale(0.015625)"/>
      <path id="DejaVuSans-6e" d="M 3513 2113 
L 3513 0 
L 2938 0 
L 2938 2094 
Q 2938 2591 2744 2837 
Q 2550 3084 2163 3084 
Q 1697 3084 1428 2787 
Q 1159 2491 1159 1978 
L 1159 0 
L 581 0 
L 581 3500 
L 1159 3500 
L 1159 2956 
Q 1366 3272 1645 3428 
Q 1925 3584 2291 3584 
Q 2894 3584 3203 3211 
Q 3513 2838 3513 2113 
z
" transform="scale(0.015625)"/>
      <path id="DejaVuSans-74" d="M 1172 4494 
L 1172 3500 
L 2356 3500 
L 2356 3053 
L 1172 3053 
L 1172 1153 
Q 1172 725 1289 603 
Q 1406 481 1766 481 
L 2356 481 
L 2356 0 
L 1766 0 
Q 1100 0 847 248 
Q 594 497 594 1153 
L 594 3053 
L 172 3053 
L 172 3500 
L 594 3500 
L 594 4494 
L 1172 4494 
z
" transform="scale(0.015625)"/>
      <path id="DejaVuSans-61" d="M 2194 1759 
Q 1497 1759 1228 1600 
Q 959 1441 959 1056 
Q 959 750 1161 570 
Q 1363 391 1709 391 
Q 2188 391 2477 730 
Q 2766 1069 2766 1631 
L 2766 1759 
L 2194 1759 
z
M 3341 1997 
L 3341 0 
L 2766 0 
L 2766 531 
Q 2569 213 2275 61 
Q 1981 -91 1556 -91 
Q 1019 -91 701 211 
Q 384 513 384 1019 
Q 384 1609 779 1909 
Q 1175 2209 1959 2209 
L 2766 2209 
L 2766 2266 
Q 2766 2663 2505 2880 
Q 2244 3097 1772 3097 
Q 1472 3097 1187 3025 
Q 903 2953 641 2809 
L 641 3341 
Q 956 3463 1253 3523 
Q 1550 3584 1831 3584 
Q 2591 3584 2966 3190 
Q 3341 2797 3341 1997 
z
" transform="scale(0.015625)"/>
      <path id="DejaVuSans-69" d="M 603 3500 
L 1178 3500 
L 1178 0 
L 603 0 
L 603 3500 
z
M 603 4863 
L 1178 4863 
L 1178 4134 
L 603 4134 
L 603 4863 
z
" transform="scale(0.015625)"/>
      <path id="DejaVuSans-6f" d="M 1959 3097 
Q 1497 3097 1228 2736 
Q 959 2375 959 1747 
Q 959 1119 1226 758 
Q 1494 397 1959 397 
Q 2419 397 2687 759 
Q 2956 1122 2956 1747 
Q 2956 2369 2687 2733 
Q 2419 3097 1959 3097 
z
M 1959 3584 
Q 2709 3584 3137 3096 
Q 3566 2609 3566 1747 
Q 3566 888 3137 398 
Q 2709 -91 1959 -91 
Q 1206 -91 779 398 
Q 353 888 353 1747 
Q 353 2609 779 3096 
Q 1206 3584 1959 3584 
z
" transform="scale(0.015625)"/>
      <path id="DejaVuSans-20" transform="scale(0.015625)"/>
      <path id="DejaVuSans-75" d="M 544 1381 
L 544 3500 
L 1119 3500 
L 1119 1403 
Q 1119 906 1312 657 
Q 1506 409 1894 409 
Q 2359 409 2629 706 
Q 2900 1003 2900 1516 
L 2900 3500 
L 3475 3500 
L 3475 0 
L 2900 0 
L 2900 538 
Q 2691 219 2414 64 
Q 2138 -91 1772 -91 
Q 1169 -91 856 284 
Q 544 659 544 1381 
z
M 1991 3584 
L 1991 3584 
z
" transform="scale(0.015625)"/>
      <path id="DejaVuSans-6c" d="M 603 4863 
L 1178 4863 
L 1178 0 
L 603 0 
L 603 4863 
z
" transform="scale(0.015625)"/>
      <path id="DejaVuSans-66" d="M 2375 4863 
L 2375 4384 
L 1825 4384 
Q 1516 4384 1395 4259 
Q 1275 4134 1275 3809 
L 1275 3500 
L 2222 3500 
L 2222 3053 
L 1275 3053 
L 1275 0 
L 697 0 
L 697 3053 
L 147 3053 
L 147 3500 
L 697 3500 
L 697 3744 
Q 697 4328 969 4595 
Q 1241 4863 1831 4863 
L 2375 4863 
z
" transform="scale(0.015625)"/>
      <path id="DejaVuSans-6d" d="M 3328 2828 
Q 3544 3216 3844 3400 
Q 4144 3584 4550 3584 
Q 5097 3584 5394 3201 
Q 5691 2819 5691 2113 
L 5691 0 
L 5113 0 
L 5113 2094 
Q 5113 2597 4934 2840 
Q 4756 3084 4391 3084 
Q 3944 3084 3684 2787 
Q 3425 2491 3425 1978 
L 3425 0 
L 2847 0 
L 2847 2094 
Q 2847 2600 2669 2842 
Q 2491 3084 2119 3084 
Q 1678 3084 1418 2786 
Q 1159 2488 1159 1978 
L 1159 0 
L 581 0 
L 581 3500 
L 1159 3500 
L 1159 2956 
Q 1356 3278 1631 3431 
Q 1906 3584 2284 3584 
Q 2666 3584 2933 3390 
Q 3200 3197 3328 2828 
z
" transform="scale(0.015625)"/>
      <path id="DejaVuSans-64" d="M 2906 2969 
L 2906 4863 
L 3481 4863 
L 3481 0 
L 2906 0 
L 2906 525 
Q 2725 213 2448 61 
Q 2172 -91 1784 -91 
Q 1150 -91 751 415 
Q 353 922 353 1747 
Q 353 2572 751 3078 
Q 1150 3584 1784 3584 
Q 2172 3584 2448 3432 
Q 2725 3281 2906 2969 
z
M 947 1747 
Q 947 1113 1208 752 
Q 1469 391 1925 391 
Q 2381 391 2643 752 
Q 2906 1113 2906 1747 
Q 2906 2381 2643 2742 
Q 2381 3103 1925 3103 
Q 1469 3103 1208 2742 
Q 947 2381 947 1747 
z
" transform="scale(0.015625)"/>
      <path id="DejaVuSans-63" d="M 3122 3366 
L 3122 2828 
Q 2878 2963 2633 3030 
Q 2388 3097 2138 3097 
Q 1578 3097 1268 2742 
Q 959 2388 959 1747 
Q 959 1106 1268 751 
Q 1578 397 2138 397 
Q 2388 397 2633 464 
Q 2878 531 3122 666 
L 3122 134 
Q 2881 22 2623 -34 
Q 2366 -91 2075 -91 
Q 1284 -91 818 406 
Q 353 903 353 1747 
Q 353 2603 823 3093 
Q 1294 3584 2113 3584 
Q 2378 3584 2631 3529 
Q 2884 3475 3122 3366 
z
" transform="scale(0.015625)"/>
      <path id="DejaVuSans-62" d="M 3116 1747 
Q 3116 2381 2855 2742 
Q 2594 3103 2138 3103 
Q 1681 3103 1420 2742 
Q 1159 2381 1159 1747 
Q 1159 1113 1420 752 
Q 1681 391 2138 391 
Q 2594 391 2855 752 
Q 3116 1113 3116 1747 
z
M 1159 2969 
Q 1341 3281 1617 3432 
Q 1894 3584 2278 3584 
Q 2916 3584 3314 3078 
Q 3713 2572 3713 1747 
Q 3713 922 3314 415 
Q 2916 -91 2278 -91 
Q 1894 -91 1617 61 
Q 1341 213 1159 525 
L 1159 0 
L 581 0 
L 581 4863 
L 1159 4863 
L 1159 2969 
z
" transform="scale(0.015625)"/>
      <path id="DejaVuSans-76" d="M 191 3500 
L 800 3500 
L 1894 563 
L 2988 3500 
L 3597 3500 
L 2284 0 
L 1503 0 
L 191 3500 
z
" transform="scale(0.015625)"/>
      <path id="DejaVuSans-28" d="M 1984 4856 
Q 1566 4138 1362 3434 
Q 1159 2731 1159 2009 
Q 1159 1288 1364 580 
Q 1569 -128 1984 -844 
L 1484 -844 
Q 1016 -109 783 600 
Q 550 1309 550 2009 
Q 550 2706 781 3412 
Q 1013 4119 1484 4856 
L 1984 4856 
z
" transform="scale(0.015625)"/>
      <path id="DejaVuSans-33" d="M 2597 2516 
Q 3050 2419 3304 2112 
Q 3559 1806 3559 1356 
Q 3559 666 3084 287 
Q 2609 -91 1734 -91 
Q 1441 -91 1130 -33 
Q 819 25 488 141 
L 488 750 
Q 750 597 1062 519 
Q 1375 441 1716 441 
Q 2309 441 2620 675 
Q 2931 909 2931 1356 
Q 2931 1769 2642 2001 
Q 2353 2234 1838 2234 
L 1294 2234 
L 1294 2753 
L 1863 2753 
Q 2328 2753 2575 2939 
Q 2822 3125 2822 3475 
Q 2822 3834 2567 4026 
Q 2313 4219 1838 4219 
Q 1578 4219 1281 4162 
Q 984 4106 628 3988 
L 628 4550 
Q 988 4650 1302 4700 
Q 1616 4750 1894 4750 
Q 2613 4750 3031 4423 
Q 3450 4097 3450 3541 
Q 3450 3153 3228 2886 
Q 3006 2619 2597 2516 
z
" transform="scale(0.015625)"/>
      <path id="DejaVuSans-44" d="M 1259 4147 
L 1259 519 
L 2022 519 
Q 2988 519 3436 956 
Q 3884 1394 3884 2338 
Q 3884 3275 3436 3711 
Q 2988 4147 2022 4147 
L 1259 4147 
z
M 628 4666 
L 1925 4666 
Q 3281 4666 3915 4102 
Q 4550 3538 4550 2338 
Q 4550 1131 3912 565 
Q 3275 0 1925 0 
L 628 0 
L 628 4666 
z
" transform="scale(0.015625)"/>
      <path id="DejaVuSans-29" d="M 513 4856 
L 1013 4856 
Q 1481 4119 1714 3412 
Q 1947 2706 1947 2009 
Q 1947 1309 1714 600 
Q 1481 -109 1013 -844 
L 513 -844 
Q 928 -128 1133 580 
Q 1338 1288 1338 2009 
Q 1338 2731 1133 3434 
Q 928 4138 513 4856 
z
" transform="scale(0.015625)"/>
     </defs>
     <use xlink:href="#DejaVuSans-52"/>
     <use xlink:href="#DejaVuSans-65" x="64.982422"/>
     <use xlink:href="#DejaVuSans-70" x="126.505859"/>
     <use xlink:href="#DejaVuSans-72" x="189.982422"/>
     <use xlink:href="#DejaVuSans-65" x="228.845703"/>
     <use xlink:href="#DejaVuSans-73" x="290.369141"/>
     <use xlink:href="#DejaVuSans-65" x="342.46875"/>
     <use xlink:href="#DejaVuSans-6e" x="403.992188"/>
     <use xlink:href="#DejaVuSans-74" x="467.371094"/>
     <use xlink:href="#DejaVuSans-61" x="506.580078"/>
     <use xlink:href="#DejaVuSans-74" x="567.859375"/>
     <use xlink:href="#DejaVuSans-69" x="607.068359"/>
     <use xlink:href="#DejaVuSans-6f" x="634.851562"/>
     <use xlink:href="#DejaVuSans-6e" x="696.033203"/>
     <use xlink:href="#DejaVuSans-20" x="759.412109"/>
     <use xlink:href="#DejaVuSans-73" x="791.199219"/>
     <use xlink:href="#DejaVuSans-6f" x="843.298828"/>
     <use xlink:href="#DejaVuSans-75" x="904.480469"/>
     <use xlink:href="#DejaVuSans-73" x="967.859375"/>
     <use xlink:href="#DejaVuSans-20" x="1019.958984"/>
     <use xlink:href="#DejaVuSans-6c" x="1051.746094"/>
     <use xlink:href="#DejaVuSans-61" x="1079.529297"/>
     <use xlink:href="#DejaVuSans-20" x="1140.808594"/>
     <use xlink:href="#DejaVuSans-66" x="1172.595703"/>
     <use xlink:href="#DejaVuSans-6f" x="1207.800781"/>
     <use xlink:href="#DejaVuSans-72" x="1268.982422"/>
     <use xlink:href="#DejaVuSans-6d" x="1308.345703"/>
     <use xlink:href="#DejaVuSans-65" x="1405.757812"/>
     <use xlink:href="#DejaVuSans-20" x="1467.28125"/>
     <use xlink:href="#DejaVuSans-64" x="1499.068359"/>
     <use xlink:href="#DejaVuSans-65" x="1562.544922"/>
     <use xlink:href="#DejaVuSans-20" x="1624.068359"/>
     <use xlink:href="#DejaVuSans-63" x="1655.855469"/>
     <use xlink:href="#DejaVuSans-6f" x="1710.835938"/>
     <use xlink:href="#DejaVuSans-75" x="1772.017578"/>
     <use xlink:href="#DejaVuSans-72" x="1835.396484"/>
     <use xlink:href="#DejaVuSans-62" x="1876.509766"/>
     <use xlink:href="#DejaVuSans-65" x="1939.986328"/>
     <use xlink:href="#DejaVuSans-73" x="2001.509766"/>
     <use xlink:href="#DejaVuSans-20" x="2053.609375"/>
     <use xlink:href="#DejaVuSans-64" x="2085.396484"/>
     <use xlink:href="#DejaVuSans-65" x="2148.873047"/>
     <use xlink:href="#DejaVuSans-20" x="2210.396484"/>
     <use xlink:href="#DejaVuSans-6e" x="2242.183594"/>
     <use xlink:href="#DejaVuSans-69" x="2305.5625"/>
     <use xlink:href="#DejaVuSans-76" x="2333.345703"/>
     <use xlink:href="#DejaVuSans-65" x="2392.525391"/>
     <use xlink:href="#DejaVuSans-61" x="2454.048828"/>
     <use xlink:href="#DejaVuSans-75" x="2515.328125"/>
     <use xlink:href="#DejaVuSans-20" x="2578.707031"/>
     <use xlink:href="#DejaVuSans-28" x="2610.494141"/>
     <use xlink:href="#DejaVuSans-65" x="2649.507812"/>
     <use xlink:href="#DejaVuSans-6e" x="2711.03125"/>
     <use xlink:href="#DejaVuSans-20" x="2774.410156"/>
     <use xlink:href="#DejaVuSans-33" x="2806.197266"/>
     <use xlink:href="#DejaVuSans-44" x="2869.820312"/>
     <use xlink:href="#DejaVuSans-29" x="2946.822266"/>
    </g>
   </g>
   <g id="Line3DCollection_5">
    <path d="M 174.194572 199.212893 
L 174.194572 199.212893 
L 174.194572 199.212893 
L 174.194572 199.212893 
L 174.194572 199.212893 
" clip-path="url(#p01f5f77d31)" style="fill: none; stroke: #440154; stroke-width: 1.5"/>
   </g>
   <g id="Line3DCollection_6">
    <path d="M 158.483394 184.226941 
L 158.483394 184.226941 
L 157.020492 185.991403 
L 156.518167 188.057734 
L 156.874718 189.305155 
L 157.565265 190.608222 
L 158.516267 191.570716 
L 160.975669 193.13397 
L 163.989875 194.218976 
L 167.533978 194.841695 
L 171.688216 194.92437 
L 171.688216 194.92437 
L 176.387917 194.114588 
L 177.013026 193.95671 
L 179.53222 192.836038 
L 181.786086 191.293973 
L 183.22725 189.513924 
L 183.832788 187.833253 
L 183.784548 187.47623 
L 182.804729 184.986245 
L 182.804729 184.986245 
L 180.635116 183.180006 
L 177.883006 181.905594 
L 174.629121 181.08493 
L 170.848245 180.734355 
L 168.787352 180.767499 
L 166.277954 181.077486 
L 164.013938 181.510843 
L 160.77175 182.721166 
L 158.483394 184.226941 
L 158.483394 184.226941 
" clip-path="url(#p01f5f77d31)" style="fill: none; stroke: #482475; stroke-width: 1.5"/>
   </g>
   <g id="Line3DCollection_7">
    <path d="M 142.81304 169.279929 
L 142.81304 169.279929 
L 141.130123 170.954512 
L 139.916554 172.779102 
L 139.261206 174.781701 
L 139.245767 175.845198 
L 139.271207 176.996127 
L 139.923856 178.857353 
L 140.239091 179.512835 
L 141.486166 181.140217 
L 143.045707 182.602272 
L 143.560294 183.003723 
L 146.037616 184.536023 
L 148.842434 185.798307 
L 151.950581 186.808084 
L 155.354807 187.56841 
L 159.079041 188.055093 
L 161.151678 188.112848 
L 163.160706 188.231655 
L 167.69919 188.006246 
L 168.029893 187.94903 
L 172.911091 187.181415 
L 172.911091 187.181415 
L 176.609742 186.060649 
L 179.710462 184.934745 
L 179.923222 184.829642 
L 182.432309 183.363294 
L 184.506799 181.774231 
L 186.135581 180.060075 
L 187.333136 178.2261 
L 187.402336 178.080598 
L 187.735798 176.165074 
L 187.764613 174.003618 
L 187.764613 174.003618 
L 186.635094 171.510386 
L 186.567436 171.339707 
L 184.724824 169.266589 
L 183.553647 168.453681 
L 182.453831 167.58653 
L 179.853618 166.20799 
L 176.96187 165.094375 
L 173.802083 164.221978 
L 170.367096 163.593886 
L 166.632584 163.227844 
L 165.716557 163.189466 
L 162.523497 163.184594 
L 159.188687 163.38969 
L 157.930233 163.553223 
L 154.458665 164.124218 
L 152.481279 164.643003 
L 150.665657 165.141134 
L 147.525542 166.357892 
L 144.936281 167.745526 
L 142.81304 169.279929 
L 142.81304 169.279929 
" clip-path="url(#p01f5f77d31)" style="fill: none; stroke: #414487; stroke-width: 1.5"/>
   </g>
   <g id="Line3DCollection_8">
    <path d="M 110.198294 168.220727 
L 110.77911 169.167484 
L 111.756071 170.427996 
L 113.455739 172.222082 
L 113.635912 172.388724 
L 115.789357 174.13985 
L 118.177922 175.710656 
L 118.988055 176.162904 
L 120.774322 177.121592 
L 123.565559 178.381511 
L 126.545275 179.493839 
L 129.707511 180.461725 
L 133.051817 181.283707 
L 136.586016 181.951265 
L 139.020375 182.266068 
L 140.312204 182.460624 
L 144.216521 182.821624 
L 148.386442 182.957004 
L 148.738391 182.943088 
L 152.760534 182.916962 
L 155.406675 182.692288 
L 157.46875 182.586306 
L 160.927888 182.09609 
L 162.566832 181.91258 
L 165.631577 181.256561 
L 168.223542 180.743354 
L 169.795729 180.259194 
L 173.462471 179.117861 
L 174.910085 178.657276 
L 176.736704 177.865061 
L 179.61513 176.500679 
L 182.230794 175.065172 
L 184.56173 173.55257 
L 186.580714 171.955411 
L 188.275268 170.270661 
L 189.660324 168.503391 
L 190.765304 166.662877 
L 191.614129 164.756689 
L 192.027552 163.589584 
L 192.077438 162.747518 
L 192.161446 160.637961 
L 192.188705 159.740815 
L 191.766009 158.399658 
L 191.349166 156.798922 
L 190.853472 156.022662 
L 189.979098 154.343589 
L 189.155966 153.430516 
L 188.247336 152.222438 
L 186.357879 150.533757 
L 186.211891 150.381173 
L 183.996825 148.709795 
L 181.547671 147.252623 
L 180.615957 146.804035 
L 178.946652 145.937009 
L 176.181975 144.77113 
L 173.256172 143.75095 
L 170.176655 142.868404 
L 166.942918 142.122182 
L 163.549071 141.515477 
L 161.12033 141.191636 
L 159.988489 141.052038 
L 156.248014 140.740945 
L 152.300705 140.602459 
L 151.935736 140.599434 
L 148.10831 140.665767 
L 145.509225 140.802245 
L 143.621865 140.968316 
" clip-path="url(#p01f5f77d31)" style="fill: none; stroke: #355f8d; stroke-width: 1.5"/>
   </g>
   <g id="Line3DCollection_9">
    <path d="M 115.757955 185.417541 
L 119.834458 185.206289 
L 122.032927 184.996571 
L 124.733566 184.795789 
L 127.804226 184.423435 
L 129.822745 184.220793 
L 133.140509 183.720365 
L 135.123835 183.460582 
L 138.107653 182.908504 
L 140.677848 182.477704 
L 142.767022 182.007396 
L 146.565419 181.200054 
L 147.172903 181.034227 
L 151.275523 179.974518 
L 152.822616 179.592664 
L 155.166519 178.856611 
L 158.87581 177.689975 
L 159.68377 177.448348 
L 162.344046 176.457185 
L 165.657408 175.184565 
L 167.46109 174.488548 
L 168.804398 173.868996 
L 171.743017 172.498313 
L 174.554845 171.097177 
L 177.243049 169.666767 
L 177.493234 169.533433 
L 179.730176 168.184429 
L 182.071375 166.66682 
L 184.275159 165.116716 
L 186.341986 163.534506 
L 188.272346 161.920581 
L 190.066765 160.275339 
L 191.725798 158.599186 
L 193.250034 156.892528 
L 194.640093 155.15578 
L 195.789795 153.556859 
L 195.888639 153.387054 
L 196.942495 151.571286 
L 197.879262 149.731119 
L 198.696773 147.866117 
L 199.056874 147.021574 
L 199.316263 145.953964 
L 199.780212 144.007124 
L 200.100456 142.468459 
L 200.101019 142.029382 
L 200.196219 139.997587 
L 200.254157 138.722205 
L 200.12496 137.928875 
L 199.85964 135.815735 
L 199.834812 135.500393 
L 199.313516 133.634084 
L 199.070134 132.601659 
L 198.536468 131.398437 
L 198.002208 129.986002 
L 197.478186 129.095106 
L 196.70937 127.583416 
L 196.082052 126.708775 
L 195.232417 125.356752 
L 194.28764 124.223218 
L 193.594011 123.284723 
L 192.032388 121.621777 
" clip-path="url(#p01f5f77d31)" style="fill: none; stroke: #2a788e; stroke-width: 1.5"/>
   </g>
   <g id="Line3DCollection_10">
    <path d="M 196.970317 112.334309 
L 198.441085 110.646175 
L 200.748043 109.195095 
L 203.325755 108.14709 
L 203.967225 107.999889 
L 208.791389 107.246571 
L 208.791389 107.246571 
L 213.083437 107.323351 
L 216.780893 107.90262 
L 219.972878 108.915946 
L 222.641228 110.384988 
L 223.706652 111.294845 
L 224.532487 112.533225 
L 225.008437 113.72587 
L 224.651082 115.717015 
L 223.248757 117.432811 
L 220.937988 118.908519 
L 217.57401 120.102411 
L 215.188324 120.531572 
L 212.528999 120.839107 
L 210.331143 120.872017 
L 206.281922 120.524193 
L 202.78655 119.712257 
L 199.827187 118.457716 
L 197.492442 116.692682 
L 197.492442 116.692682 
L 196.418866 114.284246 
L 196.362777 113.94124 
L 196.970317 112.334309 
" clip-path="url(#p01f5f77d31)" style="fill: none; stroke: #bddf26; stroke-width: 1.5"/>
   </g>
   <g id="Line3DCollection_11">
    <path d="M 192.661449 124.306668 
L 193.88814 122.529353 
L 195.549839 120.88206 
L 197.657647 119.366837 
L 200.197016 117.978633 
L 200.412013 117.879497 
L 203.546248 116.820569 
L 207.272352 115.77199 
L 207.272352 115.77199 
L 212.196851 115.05697 
L 212.529579 115.003776 
L 217.122222 114.794352 
L 219.168529 114.904707 
L 221.276087 114.958375 
L 225.095789 115.411192 
L 228.623282 116.120667 
L 231.885821 117.066807 
L 234.880152 118.25584 
L 237.586361 119.708708 
L 238.160381 120.091082 
L 239.935654 121.489789 
L 241.419972 123.058069 
L 241.827062 123.69317 
L 242.737349 125.507356 
L 242.909293 126.637282 
L 243.028233 127.686918 
L 242.594809 129.678022 
L 241.544655 131.508947 
L 239.968645 133.203637 
L 237.894133 134.768622 
L 235.289437 136.194037 
L 232.058509 137.451918 
L 230.161237 137.969055 
L 228.087405 138.508982 
L 224.404784 139.104844 
L 223.063712 139.275808 
L 219.488086 139.490418 
L 216.048087 139.485317 
L 215.058941 139.445144 
L 211.017385 139.062354 
L 207.293963 138.407133 
L 203.868919 137.500407 
L 200.738914 136.3486 
L 197.931647 134.931458 
L 196.745224 134.0449 
L 195.488806 133.217192 
L 193.515237 131.121068 
L 193.442348 130.949432 
L 192.236278 128.458258 
L 192.236278 128.458258 
L 192.254524 126.32262 
L 192.590487 124.448339 
L 192.661449 124.306668 
" clip-path="url(#p01f5f77d31)" style="fill: none; stroke: #7ad151; stroke-width: 1.5"/>
   </g>
   <g id="Line3DCollection_12">
    <path d="M 151.069889 185.446352 
L 153.088444 183.698232 
L 155.098848 181.95717 
L 157.101152 180.223125 
L 159.095403 178.496052 
L 161.081651 176.775911 
L 163.059943 175.06266 
L 165.030328 173.356257 
L 166.992852 171.656661 
L 168.947562 169.963833 
L 170.894505 168.277731 
L 172.833727 166.598315 
L 174.765274 164.925546 
L 176.689192 163.259385 
L 178.605525 161.599791 
L 180.514318 159.946728 
L 182.415617 158.300155 
L 184.309464 156.660035 
L 186.195903 155.026331 
L 188.074979 153.399004 
L 189.946733 151.778017 
L 191.811209 150.163333 
L 193.668449 148.554916 
L 195.518495 146.952729 
L 197.361389 145.356737 
L 199.197172 143.766902 
L 201.025885 142.18319 
L 202.847569 140.605565 
L 204.662265 139.033992 
L 206.470012 137.468437 
L 208.270851 135.908865 
L 210.06482 134.355242 
L 211.85196 132.807534 
L 213.632309 131.265706 
L 215.405906 129.729727 
L 217.172788 128.199561 
L 218.932995 126.675178 
L 220.686564 125.156543 
L 222.433532 123.643624 
L 224.173936 122.136389 
L 225.907814 120.634807 
" clip-path="url(#p01f5f77d31)" style="fill: none; stroke: #21918c; stroke-width: 1.5"/>
   </g>
   <g id="Line3DCollection_13">
    <path d="M 240.935416 163.675998 
L 238.878869 163.863932 
L 236.033026 164.018497 
L 231.824125 164.09366 
L 231.421711 164.090233 
L 227.059739 163.933343 
L 222.913987 163.581315 
L 221.657122 163.42353 
L 218.961327 163.057933 
L 215.191833 162.374629 
L 211.601738 161.537094 
L 208.187556 160.550658 
L 204.951045 159.415893 
L 201.902025 158.126238 
L 200.065561 157.172088 
L 199.044851 156.680061 
L 196.368253 155.089437 
L 193.960753 153.279274 
L 193.802381 153.114775 
L 191.764783 151.302566 
L 190.790174 150.015444 
L 189.912291 149.047742 
L 188.985782 147.279593 
L 188.463293 146.467094 
L 188.029929 144.801402 
L 187.592319 143.41586 
L 187.626037 142.494086 
L 187.725498 140.342436 
L 187.781928 139.489709 
L 188.216928 138.313564 
L 189.101416 136.406805 
L 190.241197 134.582253 
L 191.657967 132.845377 
L 193.379056 131.203172 
L 195.417065 129.658431 
L 197.756993 128.206195 
L 200.369369 126.837521 
L 203.230585 125.545189 
L 205.039416 124.798591 
L 206.474634 124.365797 
L 210.097391 123.297329 
L 211.64509 122.845793 
L 214.205137 122.368276 
L 217.221166 121.759533 
L 218.841497 121.58958 
L 222.249132 121.136285 
L 224.29163 121.038421 
L 226.903595 120.831114 
L 230.898457 120.807022 
L 231.246884 120.79419 
L 235.404944 120.919056 
L 239.327298 121.252403 
L 240.635362 121.432287 
L 243.097133 121.723694 
L 246.705277 122.343049 
L 250.156527 123.108322 
L 253.460284 124.013194 
L 256.618248 125.058163 
L 259.627002 126.248371 
L 261.587474 127.15874 
L 262.48251 127.589619 
L 265.174684 129.093357 
L 267.680739 130.782923 
L 267.895082 130.944438 
L 269.967777 132.691456 
L 271.211702 133.92786 
L 271.993563 134.861419 
" clip-path="url(#p01f5f77d31)" style="fill: none; stroke: #44bf70; stroke-width: 1.5"/>
   </g>
   <g id="Line3DCollection_14">
    <path d="M 187.616113 185.476169 
L 185.888927 183.478435 
L 185.129136 182.358706 
L 184.09803 181.013615 
L 183.181855 179.41967 
L 182.507154 178.394506 
L 181.693874 176.633628 
L 181.140014 175.60233 
L 180.590137 173.977013 
L 180.039571 172.601753 
L 179.802208 171.428475 
L 179.288634 169.323238 
L 179.270464 168.969504 
L 179.043465 166.613697 
L 178.927236 165.73577 
L 179.024437 164.331753 
L 179.181075 162.113601 
L 179.193524 161.637221 
L 179.572699 159.976083 
L 180.109986 157.89249 
L 180.407624 156.758426 
L 180.803824 155.865558 
L 181.696108 153.906996 
L 182.703264 151.992067 
L 183.8217 150.119389 
L 183.926085 149.945111 
L 185.129521 148.311118 
L 186.570511 146.550601 
L 188.135874 144.834943 
L 189.825048 143.163631 
L 191.63751 141.536169 
L 193.572775 139.952078 
L 195.630394 138.410891 
L 197.809954 136.912159 
L 200.11108 135.455448 
L 202.297345 134.169292 
L 202.541519 134.042612 
L 205.155613 132.688559 
L 207.87524 131.370976 
L 210.703091 130.090334 
L 211.99013 129.514156 
L 213.719932 128.868837 
L 216.883449 127.694284 
L 219.412062 126.784273 
L 220.181885 126.56306 
L 223.700675 125.498441 
L 225.914583 124.829685 
L 227.3807 124.483632 
L 231.251743 123.526443 
L 231.822489 123.377078 
L 235.405184 122.651498 
L 237.367262 122.23005 
L 239.7921 121.844798 
L 242.59499 121.352193 
L 244.46744 121.120824 
L 247.586174 120.675898 
L 249.49389 120.496018 
L 252.383561 120.16592 
L 254.939643 119.988155 
L 257.01169 119.802651 
L 260.87708 119.615968 
" clip-path="url(#p01f5f77d31)" style="fill: none; stroke: #22a884; stroke-width: 1.5"/>
   </g>
  </g>
 </g>
 <defs>
  <clipPath id="p01f5f77d31">
   <rect x="53.294625" y="22.318125" width="266.112" height="266.112"/>
  </clipPath>
 </defs>
</svg>
