<?xml version="1.0" encoding="utf-8" standalone="no"?>
<!DOCTYPE svg PUBLIC "-//W3C//DTD SVG 1.1//EN"
  "http://www.w3.org/Graphics/SVG/1.1/DTD/svg11.dtd">
<svg xmlns:xlink="http://www.w3.org/1999/xlink" width="585.7625pt" height="146.563582pt" viewBox="0 0 585.7625 146.563582" xmlns="http://www.w3.org/2000/svg" version="1.1">
 <metadata>
  <rdf:RDF xmlns:dc="http://purl.org/dc/elements/1.1/" xmlns:cc="http://creativecommons.org/ns#" xmlns:rdf="http://www.w3.org/1999/02/22-rdf-syntax-ns#">
   <cc:Work>
    <dc:type rdf:resource="http://purl.org/dc/dcmitype/StillImage"/>
    <dc:date>2025-06-10T15:15:38.370831</dc:date>
    <dc:format>image/svg+xml</dc:format>
    <dc:creator>
     <cc:Agent>
      <dc:title>Matplotlib v3.6.3, https://matplotlib.org/</dc:title>
     </cc:Agent>
    </dc:creator>
   </cc:Work>
  </rdf:RDF>
 </metadata>
 <defs>
  <style type="text/css">*{stroke-linejoin: round; stroke-linecap: butt}</style>
 </defs>
 <g id="figure_1">
  <g id="patch_1">
   <path d="M 0 146.563582 
L 585.7625 146.563582 
L 585.7625 0 
L 0 0 
L 0 146.563582 
z
" style="fill: none; opacity: 0"/>
  </g>
  <g id="axes_1">
   <g id="patch_2">
    <path d="M 20.5625 122.685457 
L 578.5625 122.685457 
L 578.5625 7.2 
L 20.5625 7.2 
L 20.5625 122.685457 
z
" style="fill: none; opacity: 0"/>
   </g>
   <g id="matplotlib.axis_1">
    <g id="xtick_1">
     <g id="line2d_1">
      <defs>
       <path id="ma9df20f120" d="M 0 0 
L 0 3.5 
" style="stroke: #000000; stroke-width: 0.8"/>
      </defs>
      <g>
       <use xlink:href="#ma9df20f120" x="37.094903" y="122.685457" style="stroke: #000000; stroke-width: 0.8"/>
      </g>
     </g>
     <g id="text_1">
      <!-- −20 -->
      <g transform="translate(26.54256 137.283894) scale(0.1 -0.1)">
       <defs>
        <path id="DejaVuSans-2212" d="M 678 2272 
L 4684 2272 
L 4684 1741 
L 678 1741 
L 678 2272 
z
" transform="scale(0.015625)"/>
        <path id="DejaVuSans-32" d="M 1228 531 
L 3431 531 
L 3431 0 
L 469 0 
L 469 531 
Q 828 903 1448 1529 
Q 2069 2156 2228 2338 
Q 2531 2678 2651 2914 
Q 2772 3150 2772 3378 
Q 2772 3750 2511 3984 
Q 2250 4219 1831 4219 
Q 1534 4219 1204 4116 
Q 875 4013 500 3803 
L 500 4441 
Q 881 4594 1212 4672 
Q 1544 4750 1819 4750 
Q 2544 4750 2975 4387 
Q 3406 4025 3406 3419 
Q 3406 3131 3298 2873 
Q 3191 2616 2906 2266 
Q 2828 2175 2409 1742 
Q 1991 1309 1228 531 
z
" transform="scale(0.015625)"/>
        <path id="DejaVuSans-30" d="M 2034 4250 
Q 1547 4250 1301 3770 
Q 1056 3291 1056 2328 
Q 1056 1369 1301 889 
Q 1547 409 2034 409 
Q 2525 409 2770 889 
Q 3016 1369 3016 2328 
Q 3016 3291 2770 3770 
Q 2525 4250 2034 4250 
z
M 2034 4750 
Q 2819 4750 3233 4129 
Q 3647 3509 3647 2328 
Q 3647 1150 3233 529 
Q 2819 -91 2034 -91 
Q 1250 -91 836 529 
Q 422 1150 422 2328 
Q 422 3509 836 4129 
Q 1250 4750 2034 4750 
z
" transform="scale(0.015625)"/>
       </defs>
       <use xlink:href="#DejaVuSans-2212"/>
       <use xlink:href="#DejaVuSans-32" x="83.789062"/>
       <use xlink:href="#DejaVuSans-30" x="147.412109"/>
      </g>
     </g>
    </g>
    <g id="xtick_2">
     <g id="line2d_2">
      <g>
       <use xlink:href="#ma9df20f120" x="102.711803" y="122.685457" style="stroke: #000000; stroke-width: 0.8"/>
      </g>
     </g>
     <g id="text_2">
      <!-- −15 -->
      <g transform="translate(92.159459 137.283894) scale(0.1 -0.1)">
       <defs>
        <path id="DejaVuSans-31" d="M 794 531 
L 1825 531 
L 1825 4091 
L 703 3866 
L 703 4441 
L 1819 4666 
L 2450 4666 
L 2450 531 
L 3481 531 
L 3481 0 
L 794 0 
L 794 531 
z
" transform="scale(0.015625)"/>
        <path id="DejaVuSans-35" d="M 691 4666 
L 3169 4666 
L 3169 4134 
L 1269 4134 
L 1269 2991 
Q 1406 3038 1543 3061 
Q 1681 3084 1819 3084 
Q 2600 3084 3056 2656 
Q 3513 2228 3513 1497 
Q 3513 744 3044 326 
Q 2575 -91 1722 -91 
Q 1428 -91 1123 -41 
Q 819 9 494 109 
L 494 744 
Q 775 591 1075 516 
Q 1375 441 1709 441 
Q 2250 441 2565 725 
Q 2881 1009 2881 1497 
Q 2881 1984 2565 2268 
Q 2250 2553 1709 2553 
Q 1456 2553 1204 2497 
Q 953 2441 691 2322 
L 691 4666 
z
" transform="scale(0.015625)"/>
       </defs>
       <use xlink:href="#DejaVuSans-2212"/>
       <use xlink:href="#DejaVuSans-31" x="83.789062"/>
       <use xlink:href="#DejaVuSans-35" x="147.412109"/>
      </g>
     </g>
    </g>
    <g id="xtick_3">
     <g id="line2d_3">
      <g>
       <use xlink:href="#ma9df20f120" x="168.328702" y="122.685457" style="stroke: #000000; stroke-width: 0.8"/>
      </g>
     </g>
     <g id="text_3">
      <!-- −10 -->
      <g transform="translate(157.776358 137.283894) scale(0.1 -0.1)">
       <use xlink:href="#DejaVuSans-2212"/>
       <use xlink:href="#DejaVuSans-31" x="83.789062"/>
       <use xlink:href="#DejaVuSans-30" x="147.412109"/>
      </g>
     </g>
    </g>
    <g id="xtick_4">
     <g id="line2d_4">
      <g>
       <use xlink:href="#ma9df20f120" x="233.945601" y="122.685457" style="stroke: #000000; stroke-width: 0.8"/>
      </g>
     </g>
     <g id="text_4">
      <!-- −5 -->
      <g transform="translate(226.574507 137.283894) scale(0.1 -0.1)">
       <use xlink:href="#DejaVuSans-2212"/>
       <use xlink:href="#DejaVuSans-35" x="83.789062"/>
      </g>
     </g>
    </g>
    <g id="xtick_5">
     <g id="line2d_5">
      <g>
       <use xlink:href="#ma9df20f120" x="299.5625" y="122.685457" style="stroke: #000000; stroke-width: 0.8"/>
      </g>
     </g>
     <g id="text_5">
      <!-- 0 -->
      <g transform="translate(296.38125 137.283894) scale(0.1 -0.1)">
       <use xlink:href="#DejaVuSans-30"/>
      </g>
     </g>
    </g>
    <g id="xtick_6">
     <g id="line2d_6">
      <g>
       <use xlink:href="#ma9df20f120" x="365.179399" y="122.685457" style="stroke: #000000; stroke-width: 0.8"/>
      </g>
     </g>
     <g id="text_6">
      <!-- 5 -->
      <g transform="translate(361.998149 137.283894) scale(0.1 -0.1)">
       <use xlink:href="#DejaVuSans-35"/>
      </g>
     </g>
    </g>
    <g id="xtick_7">
     <g id="line2d_7">
      <g>
       <use xlink:href="#ma9df20f120" x="430.796298" y="122.685457" style="stroke: #000000; stroke-width: 0.8"/>
      </g>
     </g>
     <g id="text_7">
      <!-- 10 -->
      <g transform="translate(424.433798 137.283894) scale(0.1 -0.1)">
       <use xlink:href="#DejaVuSans-31"/>
       <use xlink:href="#DejaVuSans-30" x="63.623047"/>
      </g>
     </g>
    </g>
    <g id="xtick_8">
     <g id="line2d_8">
      <g>
       <use xlink:href="#ma9df20f120" x="496.413197" y="122.685457" style="stroke: #000000; stroke-width: 0.8"/>
      </g>
     </g>
     <g id="text_8">
      <!-- 15 -->
      <g transform="translate(490.050697 137.283894) scale(0.1 -0.1)">
       <use xlink:href="#DejaVuSans-31"/>
       <use xlink:href="#DejaVuSans-35" x="63.623047"/>
      </g>
     </g>
    </g>
    <g id="xtick_9">
     <g id="line2d_9">
      <g>
       <use xlink:href="#ma9df20f120" x="562.030097" y="122.685457" style="stroke: #000000; stroke-width: 0.8"/>
      </g>
     </g>
     <g id="text_9">
      <!-- 20 -->
      <g transform="translate(555.667597 137.283894) scale(0.1 -0.1)">
       <use xlink:href="#DejaVuSans-32"/>
       <use xlink:href="#DejaVuSans-30" x="63.623047"/>
      </g>
     </g>
    </g>
   </g>
   <g id="matplotlib.axis_2">
    <g id="ytick_1">
     <g id="line2d_10">
      <defs>
       <path id="m2242d7c914" d="M 0 0 
L -3.5 0 
" style="stroke: #000000; stroke-width: 0.8"/>
      </defs>
      <g>
       <use xlink:href="#m2242d7c914" x="20.5625" y="104.312738" style="stroke: #000000; stroke-width: 0.8"/>
      </g>
     </g>
     <g id="text_10">
      <!-- 0 -->
      <g transform="translate(7.2 108.111957) scale(0.1 -0.1)">
       <use xlink:href="#DejaVuSans-30"/>
      </g>
     </g>
    </g>
    <g id="ytick_2">
     <g id="line2d_11">
      <g>
       <use xlink:href="#m2242d7c914" x="20.5625" y="78.065979" style="stroke: #000000; stroke-width: 0.8"/>
      </g>
     </g>
     <g id="text_11">
      <!-- 2 -->
      <g transform="translate(7.2 81.865197) scale(0.1 -0.1)">
       <use xlink:href="#DejaVuSans-32"/>
      </g>
     </g>
    </g>
    <g id="ytick_3">
     <g id="line2d_12">
      <g>
       <use xlink:href="#m2242d7c914" x="20.5625" y="51.819219" style="stroke: #000000; stroke-width: 0.8"/>
      </g>
     </g>
     <g id="text_12">
      <!-- 4 -->
      <g transform="translate(7.2 55.618438) scale(0.1 -0.1)">
       <defs>
        <path id="DejaVuSans-34" d="M 2419 4116 
L 825 1625 
L 2419 1625 
L 2419 4116 
z
M 2253 4666 
L 3047 4666 
L 3047 1625 
L 3713 1625 
L 3713 1100 
L 3047 1100 
L 3047 0 
L 2419 0 
L 2419 1100 
L 313 1100 
L 313 1709 
L 2253 4666 
z
" transform="scale(0.015625)"/>
       </defs>
       <use xlink:href="#DejaVuSans-34"/>
      </g>
     </g>
    </g>
    <g id="ytick_4">
     <g id="line2d_13">
      <g>
       <use xlink:href="#m2242d7c914" x="20.5625" y="25.572459" style="stroke: #000000; stroke-width: 0.8"/>
      </g>
     </g>
     <g id="text_13">
      <!-- 6 -->
      <g transform="translate(7.2 29.371678) scale(0.1 -0.1)">
       <defs>
        <path id="DejaVuSans-36" d="M 2113 2584 
Q 1688 2584 1439 2293 
Q 1191 2003 1191 1497 
Q 1191 994 1439 701 
Q 1688 409 2113 409 
Q 2538 409 2786 701 
Q 3034 994 3034 1497 
Q 3034 2003 2786 2293 
Q 2538 2584 2113 2584 
z
M 3366 4563 
L 3366 3988 
Q 3128 4100 2886 4159 
Q 2644 4219 2406 4219 
Q 1781 4219 1451 3797 
Q 1122 3375 1075 2522 
Q 1259 2794 1537 2939 
Q 1816 3084 2150 3084 
Q 2853 3084 3261 2657 
Q 3669 2231 3669 1497 
Q 3669 778 3244 343 
Q 2819 -91 2113 -91 
Q 1303 -91 875 529 
Q 447 1150 447 2328 
Q 447 3434 972 4092 
Q 1497 4750 2381 4750 
Q 2619 4750 2861 4703 
Q 3103 4656 3366 4563 
z
" transform="scale(0.015625)"/>
       </defs>
       <use xlink:href="#DejaVuSans-36"/>
      </g>
     </g>
    </g>
   </g>
   <g id="line2d_14">
    <path d="M 52.192618 117.436118 
L 51.369403 117.332327 
L 50.559234 117.021363 
L 49.775109 116.504457 
L 48.886678 115.61526 
L 48.076283 114.437554 
L 47.365455 112.978045 
L 46.775159 111.245043 
L 46.325675 109.248414 
L 46.036479 106.999527 
L 45.926136 104.511185 
L 46.012193 101.797557 
L 46.311076 98.874092 
L 46.838003 95.757436 
L 47.606892 92.465333 
L 48.630281 89.016528 
L 49.919264 85.430655 
L 51.483418 81.728132 
L 53.330756 77.93004 
L 55.467678 74.058003 
L 57.898935 70.134066 
L 60.627603 66.180571 
L 63.655064 62.220028 
L 66.980998 58.274986 
L 70.603387 54.367907 
L 74.518525 50.521035 
L 78.721039 46.756274 
L 83.203918 43.095058 
L 87.147658 40.138201 
L 91.274344 37.279432 
L 95.57745 34.530055 
L 100.049751 31.900943 
L 104.683354 29.402492 
L 109.469726 27.044583 
L 114.399734 24.836539 
L 119.463672 22.787092 
L 124.651308 20.904348 
L 129.95192 19.19575 
L 135.354338 17.668055 
L 140.846991 16.327305 
L 146.41795 15.178802 
L 152.054978 14.227087 
L 157.745574 13.475924 
L 163.477027 12.928282 
L 169.236466 12.586329 
L 175.010905 12.451415 
L 180.787303 12.524076 
L 186.552608 12.804022 
L 192.293815 13.290147 
L 197.998011 13.980529 
L 203.652432 14.872438 
L 209.24451 15.962347 
L 214.761922 17.245945 
L 220.192643 18.718158 
L 225.524989 20.373162 
L 230.747665 22.204414 
L 235.84981 24.204671 
L 240.82104 26.366024 
L 245.651489 28.679927 
L 250.331847 31.137228 
L 254.853397 33.728211 
L 259.208051 36.442629 
L 263.38838 39.269749 
L 268.16523 42.795289 
L 272.671106 46.446926 
L 276.897273 50.20387 
L 280.836587 54.04473 
L 284.483537 57.947638 
L 287.834276 61.890372 
L 290.886645 65.850484 
L 293.640183 69.805427 
L 296.096131 73.732684 
L 298.257422 77.609893 
L 300.12867 81.41498 
L 301.716139 85.12628 
L 303.027708 88.722663 
L 304.072827 92.183653 
L 304.862464 95.489543 
L 305.409042 98.621512 
L 305.726365 101.561728 
L 305.829546 104.29345 
L 305.734914 106.801124 
L 305.459927 109.070475 
L 305.023068 111.088579 
L 304.443743 112.843948 
L 303.742167 114.326588 
L 302.939253 115.528055 
L 302.056491 116.441511 
L 301.115825 117.061753 
L 300.303766 117.352042 
L 299.479963 117.43508 
L 298.657466 117.310539 
L 297.849318 116.978912 
L 297.068509 116.441511 
L 296.185747 115.528055 
L 295.382833 114.326588 
L 294.681257 112.843948 
L 294.101932 111.088579 
L 293.665073 109.070475 
L 293.390086 106.801124 
L 293.295454 104.29345 
L 293.398635 101.561728 
L 293.715958 98.621512 
L 294.262536 95.489543 
L 295.052173 92.183653 
L 296.097292 88.722663 
L 297.408861 85.12628 
L 298.99633 81.41498 
L 300.867578 77.609893 
L 303.028869 73.732684 
L 305.484817 69.805427 
L 308.238355 65.850484 
L 311.290724 61.890372 
L 314.641463 57.947638 
L 318.288413 54.04473 
L 322.227727 50.20387 
L 326.453894 46.446926 
L 330.95977 42.795289 
L 334.922078 39.84772 
L 339.066712 36.999388 
L 343.387074 34.261556 
L 347.875871 31.64505 
L 352.525144 29.160218 
L 357.326301 26.816885 
L 362.270147 24.624319 
L 367.346924 22.591188 
L 372.546348 20.725534 
L 377.85765 19.034734 
L 383.269619 17.525475 
L 388.770645 16.203723 
L 394.348766 15.074707 
L 399.991717 14.142891 
L 405.686974 13.411959 
L 411.421808 12.884802 
L 417.183331 12.563506 
L 422.958554 12.449339 
L 428.73443 12.542754 
L 434.497909 12.843382 
L 440.235994 13.350033 
L 445.935784 14.060704 
L 451.584533 14.972584 
L 457.169694 16.082069 
L 462.678973 17.384769 
L 468.100376 18.875535 
L 473.422256 20.54847 
L 478.63336 22.396959 
L 483.722873 24.413693 
L 488.68046 26.590696 
L 493.496309 28.91936 
L 498.161168 31.390476 
L 502.666382 33.994271 
L 507.003927 36.72045 
L 511.166442 39.558232 
L 515.921082 43.095058 
L 520.403961 46.756274 
L 524.606475 50.521035 
L 528.521613 54.367907 
L 532.144002 58.274986 
L 535.469936 62.220028 
L 538.497397 66.180571 
L 541.226065 70.134066 
L 543.657322 74.058003 
L 545.794244 77.93004 
L 547.641582 81.728132 
L 549.205736 85.430655 
L 550.494719 89.016528 
L 551.518108 92.465333 
L 552.286997 95.757436 
L 552.813924 98.874092 
L 553.112807 101.797557 
L 553.198864 104.511185 
L 553.088521 106.999527 
L 552.799325 109.248414 
L 552.349841 111.245043 
L 551.759545 112.978045 
L 551.048717 114.437554 
L 550.238322 115.61526 
L 549.349891 116.504457 
L 548.405401 117.100082 
L 547.591581 117.369684 
L 546.932382 117.436118 
L 546.932382 117.436118 
" clip-path="url(#p1d3baf2baf)" style="fill: none; stroke: #0000ff; stroke-width: 2; stroke-linecap: square"/>
   </g>
   <g id="patch_3">
    <path d="M 20.5625 122.685457 
L 20.5625 7.2 
" style="fill: none; stroke: #000000; stroke-width: 0.8; stroke-linejoin: miter; stroke-linecap: square"/>
   </g>
   <g id="patch_4">
    <path d="M 578.5625 122.685457 
L 578.5625 7.2 
" style="fill: none; stroke: #000000; stroke-width: 0.8; stroke-linejoin: miter; stroke-linecap: square"/>
   </g>
   <g id="patch_5">
    <path d="M 20.5625 122.685457 
L 578.5625 122.685457 
" style="fill: none; stroke: #000000; stroke-width: 0.8; stroke-linejoin: miter; stroke-linecap: square"/>
   </g>
   <g id="patch_6">
    <path d="M 20.5625 7.2 
L 578.5625 7.2 
" style="fill: none; stroke: #000000; stroke-width: 0.8; stroke-linejoin: miter; stroke-linecap: square"/>
   </g>
  </g>
 </g>
 <defs>
  <clipPath id="p1d3baf2baf">
   <rect x="20.5625" y="7.2" width="558" height="115.485457"/>
  </clipPath>
 </defs>
</svg>
