<?xml version="1.0" encoding="UTF-8"?>
<svg xmlns="http://www.w3.org/2000/svg" xmlns:xlink="http://www.w3.org/1999/xlink" width="259.843" height="359.056" viewBox="0 0 259.843 359.056">
<defs>
<g>
<g id="glyph-0-0">
<path d="M 4.25 -2.875 C 4.25 -3.46875 4.21875 -4.25 3.90625 -4.921875 C 3.5 -5.765625 2.828125 -5.96875 2.3125 -5.96875 C 1.765625 -5.96875 1.078125 -5.765625 0.6875 -4.890625 C 0.40625 -4.28125 0.359375 -3.546875 0.359375 -2.875 C 0.359375 -2.28125 0.375 -1.421875 0.765625 -0.703125 C 1.1875 0.046875 1.890625 0.203125 2.296875 0.203125 C 2.875 0.203125 3.546875 -0.046875 3.921875 -0.875 C 4.1875 -1.484375 4.25 -2.15625 4.25 -2.875 Z M 2.3125 -0.03125 C 2.03125 -0.03125 1.390625 -0.15625 1.21875 -1.171875 C 1.125 -1.6875 1.125 -2.46875 1.125 -2.984375 C 1.125 -3.59375 1.125 -4.296875 1.234375 -4.796875 C 1.421875 -5.59375 1.984375 -5.75 2.296875 -5.75 C 2.640625 -5.75 3.203125 -5.5625 3.375 -4.734375 C 3.46875 -4.25 3.46875 -3.546875 3.46875 -2.984375 C 3.46875 -2.421875 3.46875 -1.671875 3.375 -1.140625 C 3.1875 -0.109375 2.53125 -0.03125 2.3125 -0.03125 Z M 2.3125 -0.03125 "/>
</g>
<g id="glyph-0-1">
<path d="M 2.71875 -5.734375 C 2.71875 -5.953125 2.71875 -5.96875 2.5 -5.96875 C 1.9375 -5.40625 1.109375 -5.40625 0.828125 -5.40625 L 0.828125 -5.125 C 1 -5.125 1.546875 -5.125 2.03125 -5.359375 L 2.03125 -0.71875 C 2.03125 -0.390625 2.015625 -0.28125 1.171875 -0.28125 L 0.890625 -0.28125 L 0.890625 0 C 1.203125 -0.03125 2.015625 -0.03125 2.375 -0.03125 C 2.75 -0.03125 3.546875 -0.03125 3.875 0 L 3.875 -0.28125 L 3.59375 -0.28125 C 2.75 -0.28125 2.71875 -0.390625 2.71875 -0.71875 Z M 2.71875 -5.734375 "/>
</g>
<g id="glyph-0-2">
<path d="M 4.140625 -1.59375 L 3.890625 -1.59375 C 3.875 -1.46875 3.796875 -0.9375 3.6875 -0.796875 C 3.625 -0.71875 3.015625 -0.71875 2.828125 -0.71875 L 1.234375 -0.71875 L 2.125 -1.5625 C 3.59375 -2.828125 4.140625 -3.3125 4.140625 -4.21875 C 4.140625 -5.25 3.296875 -5.96875 2.1875 -5.96875 C 1.15625 -5.96875 0.453125 -5.15625 0.453125 -4.34375 C 0.453125 -3.890625 0.84375 -3.84375 0.921875 -3.84375 C 1.125 -3.84375 1.390625 -3.984375 1.390625 -4.3125 C 1.390625 -4.578125 1.203125 -4.78125 0.921875 -4.78125 C 0.875 -4.78125 0.859375 -4.78125 0.8125 -4.765625 C 1.03125 -5.40625 1.609375 -5.6875 2.09375 -5.6875 C 3 -5.6875 3.3125 -4.84375 3.3125 -4.21875 C 3.3125 -3.3125 2.625 -2.5625 2.203125 -2.09375 L 0.5625 -0.328125 C 0.453125 -0.21875 0.453125 -0.203125 0.453125 0 L 3.890625 0 Z M 4.140625 -1.59375 "/>
</g>
<g id="glyph-0-3">
<path d="M 2.734375 -3.15625 C 3.5625 -3.46875 3.96875 -4.125 3.96875 -4.75 C 3.96875 -5.4375 3.203125 -5.96875 2.265625 -5.96875 C 1.34375 -5.96875 0.640625 -5.4375 0.640625 -4.765625 C 0.640625 -4.46875 0.828125 -4.296875 1.09375 -4.296875 C 1.359375 -4.296875 1.546875 -4.484375 1.546875 -4.75 C 1.546875 -5.0625 1.328125 -5.1875 1.015625 -5.1875 C 1.25 -5.5625 1.796875 -5.75 2.25 -5.75 C 2.984375 -5.75 3.125 -5.15625 3.125 -4.734375 C 3.125 -4.46875 3.078125 -4.03125 2.859375 -3.6875 C 2.578125 -3.296875 2.265625 -3.28125 2 -3.25 C 1.78125 -3.234375 1.765625 -3.234375 1.6875 -3.234375 C 1.609375 -3.234375 1.53125 -3.21875 1.53125 -3.125 C 1.53125 -3 1.609375 -3 1.765625 -3 L 2.171875 -3 C 2.953125 -3 3.296875 -2.375 3.296875 -1.53125 C 3.296875 -0.375 2.6875 -0.046875 2.234375 -0.046875 C 2.0625 -0.046875 1.1875 -0.09375 0.796875 -0.765625 C 1.109375 -0.71875 1.359375 -0.9375 1.359375 -1.25 C 1.359375 -1.546875 1.140625 -1.734375 0.875 -1.734375 C 0.65625 -1.734375 0.390625 -1.59375 0.390625 -1.21875 C 0.390625 -0.421875 1.21875 0.203125 2.265625 0.203125 C 3.375 0.203125 4.21875 -0.609375 4.21875 -1.53125 C 4.21875 -2.3125 3.59375 -2.96875 2.734375 -3.15625 Z M 2.734375 -3.15625 "/>
</g>
</g>
</defs>
<path fill="none" stroke-width="0.3985" stroke-linecap="butt" stroke-linejoin="miter" stroke="rgb(0%, 0%, 0%)" stroke-opacity="1" stroke-miterlimit="10" d="M 8.366344 0.000125 C 8.366344 4.621219 4.62025 8.367312 -0.00084375 8.367312 C -4.621938 8.367312 -8.368031 4.621219 -8.368031 0.000125 C -8.368031 -4.620969 -4.621938 -8.367063 -0.00084375 -8.367063 C 4.62025 -8.367063 8.366344 -4.620969 8.366344 0.000125 Z M 8.366344 0.000125 " transform="matrix(1, 0, 0, -1, 16.536, 129.922)"/>
<g fill="rgb(0%, 0%, 0%)" fill-opacity="1">
<use xlink:href="#glyph-0-0" x="14.232" y="132.811"/>
</g>
<path fill="none" stroke-width="0.3985" stroke-linecap="butt" stroke-linejoin="miter" stroke="rgb(0%, 0%, 0%)" stroke-opacity="1" stroke-miterlimit="10" d="M 65.061656 113.386844 C 65.061656 118.007937 61.315562 121.754031 56.694469 121.754031 C 52.073375 121.754031 48.327281 118.007937 48.327281 113.386844 C 48.327281 108.76575 52.073375 105.019656 56.694469 105.019656 C 61.315562 105.019656 65.061656 108.76575 65.061656 113.386844 Z M 65.061656 113.386844 " transform="matrix(1, 0, 0, -1, 16.536, 129.922)"/>
<g fill="rgb(0%, 0%, 0%)" fill-opacity="1">
<use xlink:href="#glyph-0-1" x="70.925" y="19.425"/>
</g>
<path fill="none" stroke-width="0.3985" stroke-linecap="butt" stroke-linejoin="miter" stroke="rgb(0%, 0%, 0%)" stroke-opacity="1" stroke-miterlimit="10" d="M 121.753062 -28.347531 C 121.753062 -23.726438 118.006969 -19.980344 113.385875 -19.980344 C 108.764781 -19.980344 105.018687 -23.726438 105.018687 -28.347531 C 105.018687 -32.968625 108.764781 -36.714719 113.385875 -36.714719 C 118.006969 -36.714719 121.753062 -32.968625 121.753062 -28.347531 Z M 121.753062 -28.347531 " transform="matrix(1, 0, 0, -1, 16.536, 129.922)"/>
<g fill="rgb(0%, 0%, 0%)" fill-opacity="1">
<use xlink:href="#glyph-0-2" x="127.618" y="161.157"/>
</g>
<path fill="none" stroke-width="0.3985" stroke-linecap="butt" stroke-linejoin="miter" stroke="rgb(0%, 0%, 0%)" stroke-opacity="1" stroke-miterlimit="10" d="M 235.139781 56.695437 C 235.139781 61.312625 231.393687 65.058719 226.772594 65.058719 C 222.155406 65.058719 218.409312 61.312625 218.409312 56.695437 C 218.409312 52.074344 222.155406 48.32825 226.772594 48.32825 C 231.393687 48.32825 235.139781 52.074344 235.139781 56.695437 Z M 235.139781 56.695437 " transform="matrix(1, 0, 0, -1, 16.536, 129.922)"/>
<g fill="rgb(0%, 0%, 0%)" fill-opacity="1">
<use xlink:href="#glyph-0-3" x="241.004" y="76.118"/>
</g>
<path fill="none" stroke-width="0.79701" stroke-linecap="butt" stroke-linejoin="miter" stroke="rgb(0%, 0%, 0%)" stroke-opacity="1" stroke-miterlimit="10" d="M 3.831187 7.660281 L 52.506969 105.011844 " transform="matrix(1, 0, 0, -1, 16.536, 129.922)"/>
<path fill="none" stroke-width="0.79701" stroke-linecap="round" stroke-linejoin="round" stroke="rgb(0%, 0%, 0%)" stroke-opacity="1" stroke-miterlimit="10" d="M -2.550378 3.112418 C -2.083928 1.244799 -1.044431 0.362521 0.00205902 -0.000878304 C -1.044437 -0.362512 -2.08395 -1.244771 -2.548687 -3.110635 " transform="matrix(0.44717, -0.89436, -0.89436, -0.44717, 69.22095, 24.55223)"/>
<path fill="none" stroke-width="0.79701" stroke-linecap="butt" stroke-linejoin="miter" stroke="rgb(0%, 0%, 0%)" stroke-opacity="1" stroke-miterlimit="10" d="M 59.874156 105.433719 L 109.909312 -19.652219 " transform="matrix(1, 0, 0, -1, 16.536, 129.922)"/>
<path fill="none" stroke-width="0.79701" stroke-linecap="round" stroke-linejoin="round" stroke="rgb(0%, 0%, 0%)" stroke-opacity="1" stroke-miterlimit="10" d="M -2.551224 3.111094 C -2.085505 1.246086 -1.045998 0.363277 -0.00069035 -0.000143924 C -1.046719 -0.364302 -2.084765 -1.244947 -2.549738 -3.112136 " transform="matrix(0.37137, 0.92844, 0.92844, -0.37137, 126.59414, 149.9459)"/>
<path fill="none" stroke-width="0.79701" stroke-linecap="butt" stroke-linejoin="miter" stroke="rgb(0%, 0%, 0%)" stroke-opacity="1" stroke-miterlimit="10" d="M 64.819469 110.679812 L 217.893687 59.652469 " transform="matrix(1, 0, 0, -1, 16.536, 129.922)"/>
<path fill="none" stroke-width="0.79701" stroke-linecap="round" stroke-linejoin="round" stroke="rgb(0%, 0%, 0%)" stroke-opacity="1" stroke-miterlimit="10" d="M -2.549892 3.110506 C -2.084181 1.243932 -1.045278 0.363144 -0.0014314 -0.00127959 C -1.046515 -0.36199 -2.08666 -1.244007 -2.551147 -3.111813 " transform="matrix(0.94864, 0.31621, 0.31621, -0.94864, 234.80645, 70.39377)"/>
<path fill="none" stroke-width="0.79701" stroke-linecap="butt" stroke-linejoin="miter" stroke="rgb(0%, 0%, 0%)" stroke-opacity="1" stroke-miterlimit="10" d="M 121.585094 -25.85925 C 168.350719 -11.679563 194.948375 8.156375 221.655406 48.851687 " transform="matrix(1, 0, 0, -1, 16.536, 129.922)"/>
<path fill="none" stroke-width="0.79701" stroke-linecap="round" stroke-linejoin="round" stroke="rgb(0%, 0%, 0%)" stroke-opacity="1" stroke-miterlimit="10" d="M -2.550361 3.108849 C -2.084281 1.243922 -1.047327 0.362645 0.00013173 0.00134433 C -1.044678 -0.363325 -2.084771 -1.242702 -2.550517 -3.109347 " transform="matrix(0.54651, -0.8374, -0.8374, -0.54651, 238.41121, 80.73522)"/>
<path fill="none" stroke-width="0.79701" stroke-linecap="butt" stroke-linejoin="miter" stroke="rgb(0%, 0%, 0%)" stroke-opacity="1" stroke-miterlimit="10" d="M 218.577281 54.207156 C 171.811656 40.027469 145.214 20.191531 118.506969 -20.503781 " transform="matrix(1, 0, 0, -1, 16.536, 129.922)"/>
<path fill="none" stroke-width="0.79701" stroke-linecap="round" stroke-linejoin="round" stroke="rgb(0%, 0%, 0%)" stroke-opacity="1" stroke-miterlimit="10" d="M -2.548379 3.110936 C -2.085571 1.243875 -1.045346 0.364732 -0.00115819 0.00129662 C -1.045968 -0.363372 -2.083926 -1.246021 -2.549672 -3.112666 " transform="matrix(-0.54651, 0.8374, 0.8374, 0.54651, 134.8225, 150.76198)"/>
<path fill="none" stroke-width="0.3985" stroke-linecap="butt" stroke-linejoin="miter" stroke="rgb(0%, 0%, 0%)" stroke-opacity="1" stroke-miterlimit="10" d="M 8.366344 -184.253781 C 8.366344 -179.632688 4.62025 -175.886594 -0.00084375 -175.886594 C -4.621938 -175.886594 -8.368031 -179.632688 -8.368031 -184.253781 C -8.368031 -188.874875 -4.621938 -192.620969 -0.00084375 -192.620969 C 4.62025 -192.620969 8.366344 -188.874875 8.366344 -184.253781 Z M 8.366344 -184.253781 " transform="matrix(1, 0, 0, -1, 16.536, 129.922)"/>
<g fill="rgb(0%, 0%, 0%)" fill-opacity="1">
<use xlink:href="#glyph-0-0" x="14.232" y="317.063"/>
</g>
<path fill="none" stroke-width="0.3985" stroke-linecap="butt" stroke-linejoin="miter" stroke="rgb(0%, 0%, 0%)" stroke-opacity="1" stroke-miterlimit="10" d="M 65.061656 -70.867063 C 65.061656 -66.245969 61.315562 -62.499875 56.694469 -62.499875 C 52.073375 -62.499875 48.327281 -66.245969 48.327281 -70.867063 C 48.327281 -75.488156 52.073375 -79.23425 56.694469 -79.23425 C 61.315562 -79.23425 65.061656 -75.488156 65.061656 -70.867063 Z M 65.061656 -70.867063 " transform="matrix(1, 0, 0, -1, 16.536, 129.922)"/>
<g fill="rgb(0%, 0%, 0%)" fill-opacity="1">
<use xlink:href="#glyph-0-1" x="70.925" y="203.677"/>
</g>
<path fill="none" stroke-width="0.3985" stroke-linecap="butt" stroke-linejoin="miter" stroke="rgb(0%, 0%, 0%)" stroke-opacity="1" stroke-miterlimit="10" d="M 121.753062 -212.601438 C 121.753062 -207.980344 118.006969 -204.23425 113.385875 -204.23425 C 108.764781 -204.23425 105.018687 -207.980344 105.018687 -212.601438 C 105.018687 -217.222531 108.764781 -220.968625 113.385875 -220.968625 C 118.006969 -220.968625 121.753062 -217.222531 121.753062 -212.601438 Z M 121.753062 -212.601438 " transform="matrix(1, 0, 0, -1, 16.536, 129.922)"/>
<g fill="rgb(0%, 0%, 0%)" fill-opacity="1">
<use xlink:href="#glyph-0-2" x="127.618" y="345.409"/>
</g>
<path fill="none" stroke-width="0.3985" stroke-linecap="butt" stroke-linejoin="miter" stroke="rgb(0%, 0%, 0%)" stroke-opacity="1" stroke-miterlimit="10" d="M 235.139781 -127.562375 C 235.139781 -122.941281 231.393687 -119.195188 226.772594 -119.195188 C 222.155406 -119.195188 218.409312 -122.941281 218.409312 -127.562375 C 218.409312 -132.183469 222.155406 -135.925656 226.772594 -135.925656 C 231.393687 -135.925656 235.139781 -132.183469 235.139781 -127.562375 Z M 235.139781 -127.562375 " transform="matrix(1, 0, 0, -1, 16.536, 129.922)"/>
<g fill="rgb(0%, 0%, 0%)" fill-opacity="1">
<use xlink:href="#glyph-0-3" x="241.004" y="260.37"/>
</g>
<path fill="none" stroke-width="0.79701" stroke-linecap="butt" stroke-linejoin="miter" stroke="rgb(0%, 0%, 0%)" stroke-opacity="1" stroke-miterlimit="10" d="M 3.831187 -176.593625 L 52.862437 -78.527219 " transform="matrix(1, 0, 0, -1, 16.536, 129.922)"/>
<path fill="none" stroke-width="0.79701" stroke-linecap="butt" stroke-linejoin="miter" stroke="rgb(0%, 0%, 0%)" stroke-opacity="1" stroke-miterlimit="10" d="M 59.874156 -78.820188 L 110.206187 -204.648313 " transform="matrix(1, 0, 0, -1, 16.536, 129.922)"/>
<path fill="none" stroke-width="0.79701" stroke-linecap="butt" stroke-linejoin="miter" stroke="rgb(0%, 0%, 0%)" stroke-opacity="1" stroke-miterlimit="10" d="M 64.819469 -73.574094 L 218.647594 -124.851438 " transform="matrix(1, 0, 0, -1, 16.536, 129.922)"/>
<path fill="none" stroke-width="0.79701" stroke-linecap="butt" stroke-linejoin="miter" stroke="rgb(0%, 0%, 0%)" stroke-opacity="1" stroke-miterlimit="10" d="M 219.921031 -132.699094 L 120.241344 -207.460813 " transform="matrix(1, 0, 0, -1, 16.536, 129.922)"/>
</svg>
