<?xml version="1.0" encoding="UTF-8"?>
<svg width="812" height="250" viewBox="-32 0 812 250" xmlns="http://www.w3.org/2000/svg">
  <text x="-20" y="60" style="font-family: 'Fira Mono', monospace; font-size: 34px" fill="#dde0eb">T</text>
  <rect x="10" y="30" width="760" height="180" rx="12" fill="none" stroke="#55596a" stroke-width="1.5" stroke-dasharray="6 6"/>
  <!-- les trois tableaux -->
  <g fill="#669aed" opacity="0.08">
    <rect x="74" y="70" width="180" height="132"/>
    <rect x="324" y="70" width="180" height="132"/>
    <rect x="574" y="70" width="180" height="132"/>
  </g>
  <g fill="none" stroke="#55596a" stroke-width="1.5">
    <rect x="74" y="70" width="60" height="44"/><rect x="134" y="70" width="60" height="44"/><rect x="194" y="70" width="60" height="44"/>
    <rect x="74" y="114" width="60" height="44"/><rect x="134" y="114" width="60" height="44"/><rect x="194" y="114" width="60" height="44"/>
    <rect x="74" y="158" width="60" height="44"/><rect x="134" y="158" width="60" height="44"/><rect x="194" y="158" width="60" height="44"/>
    <rect x="324" y="70" width="60" height="44"/><rect x="384" y="70" width="60" height="44"/><rect x="444" y="70" width="60" height="44"/>
    <rect x="324" y="114" width="60" height="44"/><rect x="384" y="114" width="60" height="44"/><rect x="444" y="114" width="60" height="44"/>
    <rect x="324" y="158" width="60" height="44"/><rect x="384" y="158" width="60" height="44"/><rect x="444" y="158" width="60" height="44"/>
    <rect x="574" y="70" width="60" height="44"/><rect x="634" y="70" width="60" height="44"/><rect x="694" y="70" width="60" height="44"/>
    <rect x="574" y="114" width="60" height="44"/><rect x="634" y="114" width="60" height="44"/><rect x="694" y="114" width="60" height="44"/>
    <rect x="574" y="158" width="60" height="44"/><rect x="634" y="158" width="60" height="44"/><rect x="694" y="158" width="60" height="44"/>
  </g>
  <g style="font-family: 'Fira Mono', monospace; font-size: 21px" fill="#669aed">
    <text x="74" y="60">T[0]</text>
    <text x="324" y="60">T[1]</text>
    <text x="574" y="60">T[2]</text>
  </g>
  <!-- la cellule d'indices (1, 2, 2) -->
  <rect x="444" y="158" width="60" height="44" fill="#ffd700" fill-opacity="0.16" stroke="#ffd700" stroke-width="3"/>
  <path d="M 474,204 V 218" fill="none" stroke="#ffd700" stroke-width="2"/>
  <text x="474" y="243" style="font-family: 'Fira Mono', monospace; font-size: 24px" fill="#ffd700" text-anchor="middle">T[1][2][2]</text>
</svg>
