<?xml version="1.0" encoding="UTF-8" standalone="no"?>
<svg
   width="495.088"
   height="75.453"
   viewBox="0 0 495.088 75.453"
   version="1.1"
   id="svg2642"
   sodipodi:docname="48-remove.svg"
   inkscape:version="1.2.2 (b0a8486541, 2022-12-01)"
   xmlns:inkscape="http://www.inkscape.org/namespaces/inkscape"
   xmlns:sodipodi="http://sodipodi.sourceforge.net/DTD/sodipodi-0.dtd"
   xmlns:xlink="http://www.w3.org/1999/xlink"
   xmlns="http://www.w3.org/2000/svg"
   xmlns:svg="http://www.w3.org/2000/svg">
  <sodipodi:namedview
     id="namedview2644"
     pagecolor="#ffffff"
     bordercolor="#000000"
     borderopacity="0.25"
     inkscape:showpageshadow="2"
     inkscape:pageopacity="0.0"
     inkscape:pagecheckerboard="0"
     inkscape:deskcolor="#d1d1d1"
     showgrid="false"
     inkscape:zoom="2.7409268"
     inkscape:cx="248.09127"
     inkscape:cy="37.94337"
     inkscape:window-width="761"
     inkscape:window-height="1407"
     inkscape:window-x="0"
     inkscape:window-y="0"
     inkscape:window-maximized="0"
     inkscape:current-layer="svg2642" />
  <defs
     id="defs2510">
    <g
       id="g2508">
      <g
         id="glyph-0-0">
        <path
           d="M 1.625 0 L 6.28125 0 L 6.421875 -0.921875 L 2.65625 -0.921875 L 2.65625 -8.234375 L 1.625 -8.234375 Z M 1.625 0 "
           id="path2442" />
      </g>
      <g
         id="glyph-0-1">
        <path
           d="M 5.90625 -5.28125 L 1.265625 -5.28125 L 1.265625 -4.421875 L 5.90625 -4.421875 Z M 5.90625 -3.015625 L 1.265625 -3.015625 L 1.265625 -2.15625 L 5.90625 -2.15625 Z M 5.90625 -3.015625 "
           id="path2445" />
      </g>
      <g
         id="glyph-0-2">
        <path
           d="M 4.46875 -0.8125 L 4.46875 -8.234375 L 3.578125 -8.234375 L 1.140625 -6.703125 L 1.578125 -6 L 3.453125 -7.140625 L 3.453125 -0.8125 L 1.4375 -0.8125 L 1.4375 0 L 6.1875 0 L 6.1875 -0.8125 Z M 4.46875 -0.8125 "
           id="path2448" />
      </g>
      <g
         id="glyph-0-3">
        <path
           d="M 3.21875 -8.359375 C 2.359375 -8.359375 1.578125 -8.078125 0.875 -7.40625 L 1.421875 -6.796875 C 1.96875 -7.296875 2.46875 -7.546875 3.171875 -7.546875 C 4.046875 -7.546875 4.71875 -7.0625 4.71875 -6.171875 C 4.71875 -5.171875 3.953125 -4.734375 3.171875 -4.734375 L 2.671875 -4.734375 L 2.5625 -3.9375 L 3.234375 -3.9375 C 4.21875 -3.9375 4.953125 -3.546875 4.953125 -2.359375 C 4.953125 -1.34375 4.265625 -0.6875 3.125 -0.6875 C 2.453125 -0.6875 1.75 -0.953125 1.296875 -1.5 L 0.625 -0.953125 C 1.25 -0.203125 2.21875 0.125 3.140625 0.125 C 4.859375 0.125 6 -0.9375 6 -2.359375 C 6 -3.640625 5.09375 -4.3125 4.140625 -4.390625 C 5 -4.546875 5.734375 -5.3125 5.734375 -6.296875 C 5.734375 -7.421875 4.765625 -8.359375 3.21875 -8.359375 Z M 3.21875 -8.359375 "
           id="path2451" />
      </g>
      <g
         id="glyph-0-4">
        <path
           d="M 5.828125 -8.234375 L 1.453125 -8.234375 L 1.453125 -4.125 L 2.265625 -4.125 C 2.75 -4.296875 3.078125 -4.40625 3.546875 -4.40625 C 4.390625 -4.40625 5.046875 -3.953125 5.046875 -2.640625 C 5.046875 -1.359375 4.40625 -0.6875 3.3125 -0.6875 C 2.609375 -0.6875 2.046875 -0.9375 1.546875 -1.453125 L 0.921875 -0.84375 C 1.546875 -0.234375 2.3125 0.125 3.3125 0.125 C 5.015625 0.125 6.09375 -0.953125 6.09375 -2.609375 C 6.09375 -4.25 5.1875 -5.1875 3.84375 -5.1875 C 3.34375 -5.1875 2.921875 -5.109375 2.421875 -4.828125 L 2.421875 -7.421875 L 5.671875 -7.421875 Z M 5.828125 -8.234375 "
           id="path2454" />
      </g>
      <g
         id="glyph-0-5">
        <path
           d="M 2.75 0.109375 L 6.03125 -7.453125 L 6.03125 -8.234375 L 1.15625 -8.234375 L 1.15625 -7.40625 L 5.015625 -7.40625 L 1.8125 -0.171875 Z M 2.75 0.109375 "
           id="path2457" />
      </g>
      <g
         id="glyph-0-6">
        <path
           d="M 2.515625 -0.921875 C 2.515625 -0.328125 2.96875 0.125 3.578125 0.125 C 4.1875 0.125 4.625 -0.328125 4.625 -0.921875 C 4.625 -1.5 4.1875 -1.96875 3.578125 -1.96875 C 2.96875 -1.96875 2.515625 -1.5 2.515625 -0.921875 Z M 2.515625 -0.921875 "
           id="path2460" />
      </g>
      <g
         id="glyph-0-7">
        <path
           d="M 5.453125 -6.4375 C 4.3125 -6.4375 3.671875 -5.828125 3.1875 -4.8125 L 3 -6.296875 L 1.25 -6.296875 L 1.25 -5.515625 L 2.25 -5.515625 L 2.25 -0.78125 L 1.25 -0.78125 L 1.25 0 L 4.53125 0 L 4.53125 -0.78125 L 3.25 -0.78125 L 3.25 -3.4375 C 3.65625 -4.8125 4.34375 -5.515625 5.3125 -5.515625 L 5.375 -5.515625 L 5.375 -4.15625 L 6.1875 -4.15625 L 6.328125 -6.296875 C 6.0625 -6.375 5.796875 -6.4375 5.453125 -6.4375 Z M 5.453125 -6.4375 "
           id="path2463" />
      </g>
      <g
         id="glyph-0-8">
        <path
           d="M 2 -2.796875 L 6.234375 -2.796875 C 6.234375 -2.921875 6.25 -3.125 6.25 -3.328125 C 6.25 -5.25 5.265625 -6.4375 3.6875 -6.4375 C 2.015625 -6.4375 0.9375 -5.046875 0.9375 -3.140625 C 0.9375 -1.1875 1.984375 0.125 3.828125 0.125 C 4.609375 0.125 5.390625 -0.140625 5.96875 -0.59375 L 5.515625 -1.265625 C 4.953125 -0.890625 4.46875 -0.703125 3.828125 -0.703125 C 2.859375 -0.703125 2.046875 -1.34375 2 -2.796875 Z M 3.6875 -5.609375 C 4.65625 -5.609375 5.25 -4.90625 5.265625 -3.5625 L 2 -3.5625 C 2.078125 -4.953125 2.765625 -5.609375 3.6875 -5.609375 Z M 3.6875 -5.609375 "
           id="path2466" />
      </g>
      <g
         id="glyph-0-9">
        <path
           d="M 5.34375 -6.4375 C 4.703125 -6.4375 4.296875 -6.09375 3.953125 -5.59375 C 3.765625 -6.234375 3.296875 -6.4375 2.828125 -6.4375 C 2.1875 -6.4375 1.796875 -6.046875 1.453125 -5.5625 L 1.390625 -6.296875 L 0.609375 -6.296875 L 0.609375 0 L 1.53125 0 L 1.53125 -4.890625 C 1.875 -5.421875 2.234375 -5.640625 2.625 -5.640625 C 3.078125 -5.640625 3.125 -5.3125 3.125 -4.515625 L 3.125 0 L 4.046875 0 L 4.046875 -4.890625 C 4.40625 -5.421875 4.765625 -5.640625 5.15625 -5.640625 C 5.609375 -5.640625 5.640625 -5.3125 5.640625 -4.515625 L 5.640625 0 L 6.5625 0 L 6.5625 -4.6875 C 6.5625 -6.125 5.953125 -6.4375 5.34375 -6.4375 Z M 5.34375 -6.4375 "
           id="path2469" />
      </g>
      <g
         id="glyph-0-10">
        <path
           d="M 3.59375 -6.4375 C 1.828125 -6.4375 0.875 -5.078125 0.875 -3.140625 C 0.875 -1.15625 1.8125 0.125 3.578125 0.125 C 5.34375 0.125 6.296875 -1.21875 6.296875 -3.15625 C 6.296875 -5.140625 5.359375 -6.4375 3.59375 -6.4375 Z M 3.59375 -5.609375 C 4.671875 -5.609375 5.21875 -4.8125 5.21875 -3.15625 C 5.21875 -1.46875 4.671875 -0.6875 3.578125 -0.6875 C 2.5 -0.6875 1.953125 -1.46875 1.953125 -3.140625 C 1.953125 -4.8125 2.515625 -5.609375 3.59375 -5.609375 Z M 3.59375 -5.609375 "
           id="path2472" />
      </g>
      <g
         id="glyph-0-11">
        <path
           d="M 6.453125 -6.296875 L 5.40625 -6.296875 L 3.609375 -0.90625 L 1.796875 -6.296875 L 0.71875 -6.296875 L 3 0 L 4.15625 0 Z M 6.453125 -6.296875 "
           id="path2475" />
      </g>
      <g
         id="glyph-0-12">
        <path
           d="M 2.546875 -4.1875 C 2.546875 -6.6875 3.375 -7.953125 5.09375 -9.484375 L 4.578125 -10.046875 C 2.625 -8.453125 1.5 -6.90625 1.5 -4.1875 C 1.5 -1.453125 2.625 0.078125 4.578125 1.671875 L 5.09375 1.125 C 3.390625 -0.390625 2.546875 -1.6875 2.546875 -4.1875 Z M 2.546875 -4.1875 "
           id="path2478" />
      </g>
      <g
         id="glyph-0-13">
        <path
           d="M 4.625 -4.1875 C 4.625 -1.6875 3.78125 -0.390625 2.078125 1.125 L 2.59375 1.671875 C 4.546875 0.078125 5.671875 -1.453125 5.671875 -4.1875 C 5.671875 -6.90625 4.546875 -8.453125 2.59375 -10.046875 L 2.078125 -9.484375 C 3.796875 -7.953125 4.625 -6.6875 4.625 -4.1875 Z M 4.625 -4.1875 "
           id="path2481" />
      </g>
      <g
         id="glyph-1-0">
        <path
           d="M 4.21875 2.640625 L 9.96875 2.640625 L 9.96875 1.015625 L 6.046875 1.015625 L 6.046875 -17.03125 L 9.96875 -17.03125 L 9.96875 -18.6875 L 4.21875 -18.6875 Z M 4.21875 2.640625 "
           id="path2484" />
      </g>
      <g
         id="glyph-1-1">
        <path
           d="M 9.53125 -18.6875 L 3.78125 -18.6875 L 3.78125 -17.03125 L 7.703125 -17.03125 L 7.703125 1.015625 L 3.78125 1.015625 L 3.78125 2.640625 L 9.53125 2.640625 Z M 9.53125 -18.6875 "
           id="path2487" />
      </g>
      <g
         id="glyph-2-0">
        <path
           d="M 0.734375 -6.515625 L 0.734375 -0.015625 L 1.46875 -0.015625 L 1.46875 -6.515625 Z M 0.734375 -6.515625 "
           id="path2490" />
      </g>
      <g
         id="glyph-2-1">
        <path
           d="M 3.734375 -0.96875 C 3.59375 -0.890625 3.453125 -0.796875 3.296875 -0.71875 C 3.015625 -0.578125 2.703125 -0.5 2.375 -0.5 C 1.671875 -0.5 0.984375 -1.078125 0.984375 -1.96875 L 3.828125 -1.96875 C 3.828125 -2.890625 3.53125 -4.140625 2.203125 -4.140625 C 1.046875 -4.140625 0.3125 -3.0625 0.3125 -1.984375 L 0.3125 -1.953125 C 0.3125 -0.875 1.203125 0.09375 2.328125 0.09375 C 2.8125 0.09375 3.265625 -0.046875 3.65625 -0.265625 C 3.71875 -0.3125 3.78125 -0.328125 3.78125 -0.421875 C 3.78125 -0.59375 3.734375 -0.796875 3.734375 -0.96875 Z M 1.03125 -2.5 C 1.203125 -3.015625 1.546875 -3.5625 2.171875 -3.5625 C 2.796875 -3.5625 3.171875 -3.078125 3.28125 -2.5 Z M 1.03125 -2.5 "
           id="path2493" />
      </g>
      <g
         id="glyph-2-2">
        <path
           d="M 1.46875 -3.5625 L 1.46875 -3.984375 L 0.734375 -3.984375 L 0.734375 1.734375 L 1.484375 1.734375 L 1.484375 -0.421875 C 1.828125 -0.09375 2.28125 0.09375 2.75 0.09375 C 3.84375 0.09375 4.4375 -1.0625 4.4375 -2.015625 C 4.4375 -2.765625 4.078125 -4.09375 2.984375 -4.09375 C 2.40625 -4.09375 1.921875 -3.890625 1.46875 -3.5625 Z M 3.671875 -1.875 C 3.609375 -1.1875 3.109375 -0.5 2.359375 -0.5 C 2.015625 -0.5 1.484375 -0.796875 1.484375 -1.140625 L 1.484375 -2.953125 C 1.53125 -3.203125 2.078125 -3.484375 2.453125 -3.484375 C 3.203125 -3.484375 3.6875 -2.703125 3.6875 -2.03125 C 3.6875 -1.984375 3.6875 -1.921875 3.671875 -1.875 Z M 3.671875 -1.875 "
           id="path2496" />
      </g>
      <g
         id="glyph-2-3">
        <path
           d="M 1.421875 -3.234375 L 1.421875 -4.046875 L 0.734375 -4.046875 L 0.734375 -0.015625 L 1.46875 -0.015625 L 1.46875 -1.796875 C 1.46875 -2.703125 2.015625 -3.4375 3.015625 -3.4375 L 3.015625 -4.09375 C 2.40625 -4.09375 1.671875 -3.765625 1.421875 -3.234375 Z M 1.421875 -3.234375 "
           id="path2499" />
      </g>
      <g
         id="glyph-2-4">
        <path
           d="M 1.4375 -3.421875 L 1.4375 -4.046875 L 0.71875 -4.046875 L 0.71875 -0.015625 L 1.484375 -0.015625 L 1.484375 -2.03125 C 1.484375 -2.59375 1.59375 -3.5 2.390625 -3.5 C 2.640625 -3.5 2.9375 -3.453125 3.109375 -3.25 C 3.265625 -3.0625 3.296875 -2.8125 3.296875 -2.5625 C 3.296875 -2.453125 3.28125 -2.34375 3.28125 -2.234375 L 3.28125 -0.015625 L 4.03125 -0.015625 L 4.03125 -2.03125 C 4.03125 -2.59375 4.140625 -3.5 4.9375 -3.5 C 5.1875 -3.5 5.484375 -3.453125 5.65625 -3.25 C 5.828125 -3.0625 5.84375 -2.8125 5.84375 -2.5625 C 5.84375 -2.453125 5.84375 -2.34375 5.84375 -2.234375 L 5.84375 -0.015625 L 6.59375 -0.015625 L 6.59375 -2.5625 C 6.59375 -2.890625 6.578125 -3.234375 6.421875 -3.53125 C 6.21875 -3.9375 5.78125 -4.09375 5.34375 -4.09375 C 4.8125 -4.09375 4.15625 -3.796875 3.953125 -3.359375 C 3.734375 -3.859375 3.359375 -4.09375 2.765625 -4.09375 C 2.265625 -4.09375 1.6875 -3.84375 1.4375 -3.421875 Z M 1.4375 -3.421875 "
           id="path2502" />
      </g>
      <g
         id="glyph-2-5">
        <path
           d="M 0.734375 -3.984375 L 0.734375 -0.015625 L 1.46875 -0.015625 L 1.46875 -3.984375 Z M 0.65625 -6.140625 L 0.65625 -5.28125 L 1.53125 -5.28125 L 1.53125 -6.140625 Z M 0.65625 -6.140625 "
           id="path2505" />
      </g>
    </g>
  </defs>
  <g
     fill="rgb(0%, 0%, 0%)"
     fill-opacity="1"
     id="g2514">
    <use
       xlink:href="#glyph-0-0"
       x="5.978"
       y="36.769"
       id="use2512" />
  </g>
  <g
     fill="rgb(0%, 0%, 0%)"
     fill-opacity="1"
     id="g2518">
    <use
       xlink:href="#glyph-0-1"
       x="20.32424"
       y="36.769"
       id="use2516" />
  </g>
  <g
     fill="rgb(18.429565%, 32.157898%, 56.077576%)"
     fill-opacity="1"
     id="g2522">
    <use
       xlink:href="#glyph-1-0"
       x="38.826"
       y="40.695"
       id="use2520" />
  </g>
  <path
     fill-rule="nonzero"
     fill="rgb(100%, 100%, 100%)"
     fill-opacity="1"
     stroke-width="1.39478"
     stroke-linecap="butt"
     stroke-linejoin="miter"
     stroke="rgb(18.429565%, 32.157898%, 56.077576%)"
     stroke-opacity="1"
     stroke-miterlimit="10"
     d="M -15.590906 -15.592656 L 15.592687 -15.592656 L 15.592687 15.590937 L -15.590906 15.590937 Z M -15.590906 -15.592656 "
     transform="matrix(1, 0, 0, -1, 71.212, 32.755)"
     id="path2524" />
  <g
     fill="rgb(0%, 0%, 0%)"
     fill-opacity="1"
     id="g2528">
    <use
       xlink:href="#glyph-0-2"
       x="67.625"
       y="36.769"
       id="use2526" />
  </g>
  <path
     fill-rule="nonzero"
     fill="rgb(98.516846%, 93.998718%, 93.998718%)"
     fill-opacity="1"
     stroke-width="1.39478"
     stroke-linecap="butt"
     stroke-linejoin="miter"
     stroke="rgb(75.292969%, 0%, 0%)"
     stroke-opacity="1"
     stroke-miterlimit="10"
     d="M 15.592687 -15.592656 L 46.772375 -15.592656 L 46.772375 15.590937 L 15.592687 15.590937 Z M 15.592687 -15.592656 "
     transform="matrix(1, 0, 0, -1, 71.212, 32.755)"
     id="path2530" />
  <g
     fill="rgb(0%, 0%, 0%)"
     fill-opacity="1"
     id="g2534">
    <use
       xlink:href="#glyph-0-3"
       x="98.807"
       y="36.987"
       id="use2532" />
  </g>
  <path
     fill-rule="nonzero"
     fill="rgb(100%, 100%, 100%)"
     fill-opacity="1"
     stroke-width="1.39478"
     stroke-linecap="butt"
     stroke-linejoin="miter"
     stroke="rgb(18.429565%, 32.157898%, 56.077576%)"
     stroke-opacity="1"
     stroke-miterlimit="10"
     d="M 46.772375 -15.592656 L 77.955969 -15.592656 L 77.955969 15.590937 L 46.772375 15.590937 Z M 46.772375 -15.592656 "
     transform="matrix(1, 0, 0, -1, 71.212, 32.755)"
     id="path2536" />
  <g
     fill="rgb(0%, 0%, 0%)"
     fill-opacity="1"
     id="g2540">
    <use
       xlink:href="#glyph-0-4"
       x="129.988"
       y="36.706"
       id="use2538" />
  </g>
  <path
     fill-rule="nonzero"
     fill="rgb(100%, 100%, 100%)"
     fill-opacity="1"
     stroke-width="1.39478"
     stroke-linecap="butt"
     stroke-linejoin="miter"
     stroke="rgb(18.429565%, 32.157898%, 56.077576%)"
     stroke-opacity="1"
     stroke-miterlimit="10"
     d="M 77.955969 -15.592656 L 109.135656 -15.592656 L 109.135656 15.590937 L 77.955969 15.590937 Z M 77.955969 -15.592656 "
     transform="matrix(1, 0, 0, -1, 71.212, 32.755)"
     id="path2542" />
  <g
     fill="rgb(0%, 0%, 0%)"
     fill-opacity="1"
     id="g2546">
    <use
       xlink:href="#glyph-0-5"
       x="161.169"
       y="36.706"
       id="use2544" />
  </g>
  <path
     fill-rule="nonzero"
     fill="rgb(100%, 100%, 100%)"
     fill-opacity="1"
     stroke-width="1.39478"
     stroke-linecap="butt"
     stroke-linejoin="miter"
     stroke="rgb(18.429565%, 32.157898%, 56.077576%)"
     stroke-opacity="1"
     stroke-miterlimit="10"
     d="M 109.135656 -15.592656 L 140.31925 -15.592656 L 140.31925 15.590937 L 109.135656 15.590937 Z M 109.135656 -15.592656 "
     transform="matrix(1, 0, 0, -1, 71.212, 32.755)"
     id="path2548" />
  <g
     fill="rgb(0%, 0%, 0%)"
     fill-opacity="1"
     id="g2552">
    <use
       xlink:href="#glyph-0-3"
       x="192.351"
       y="36.987"
       id="use2550" />
  </g>
  <g
     fill="rgb(18.429565%, 32.157898%, 56.077576%)"
     fill-opacity="1"
     id="g2556">
    <use
       xlink:href="#glyph-1-1"
       x="214.574"
       y="40.695"
       id="use2554" />
  </g>
  <g
     fill="rgb(75.292969%, 0%, 0%)"
     fill-opacity="1"
     id="g2562">
    <use
       xlink:href="#glyph-2-0"
       x="83.458"
       y="67.732"
       id="use2558" />
    <use
       xlink:href="#glyph-2-1"
       x="85.657458"
       y="67.732"
       id="use2560" />
  </g>
  <g
     fill="rgb(75.292969%, 0%, 0%)"
     fill-opacity="1"
     id="g2566">
    <use
       xlink:href="#glyph-2-2"
       x="92.827888"
       y="67.732"
       id="use2564" />
  </g>
  <g
     fill="rgb(75.292969%, 0%, 0%)"
     fill-opacity="1"
     id="g2580">
    <use
       xlink:href="#glyph-2-3"
       x="97.326331"
       y="67.732"
       id="use2568" />
    <use
       xlink:href="#glyph-2-1"
       x="100.473537"
       y="67.732"
       id="use2570" />
    <use
       xlink:href="#glyph-2-4"
       x="104.568492"
       y="67.732"
       id="use2572" />
    <use
       xlink:href="#glyph-2-5"
       x="111.886868"
       y="67.732"
       id="use2574" />
    <use
       xlink:href="#glyph-2-1"
       x="114.086326"
       y="67.732"
       id="use2576" />
    <use
       xlink:href="#glyph-2-3"
       x="118.181281"
       y="67.732"
       id="use2578" />
  </g>
  <path
     fill="none"
     stroke-width="1.79329"
     stroke-linecap="butt"
     stroke-linejoin="miter"
     stroke="#4472c4"
     stroke-opacity="1"
     stroke-miterlimit="10"
     d="m 244.0706,32.356288 h 67.44921"
     id="path2582" />
  <path
     fill-rule="nonzero"
     fill="#4472c4"
     fill-opacity="1"
     stroke-width="1.72208"
     stroke-linecap="butt"
     stroke-linejoin="miter"
     stroke="#4472c4"
     stroke-opacity="1"
     stroke-miterlimit="10"
     d="m 315.65263,32.356288 -5.57032,-2.507813 1.86719,2.507813 -1.86719,2.507812 z m 0,0"
     id="path2584" />
  <g
     fill="#000000"
     fill-opacity="1"
     id="g2608"
     transform="translate(-5.7262793,-0.3976187)">
    <use
       xlink:href="#glyph-0-0"
       x="247.19299"
       y="17.201"
       id="use2586" />
    <use
       xlink:href="#glyph-0-6"
       x="254.36612"
       y="17.201"
       id="use2588" />
    <use
       xlink:href="#glyph-0-7"
       x="261.53925"
       y="17.201"
       id="use2590" />
    <use
       xlink:href="#glyph-0-8"
       x="268.71237"
       y="17.201"
       id="use2592" />
    <use
       xlink:href="#glyph-0-9"
       x="275.88547"
       y="17.201"
       id="use2594" />
    <use
       xlink:href="#glyph-0-10"
       x="283.05859"
       y="17.201"
       id="use2596" />
    <use
       xlink:href="#glyph-0-11"
       x="290.23172"
       y="17.201"
       id="use2598" />
    <use
       xlink:href="#glyph-0-8"
       x="297.40485"
       y="17.201"
       id="use2600" />
    <use
       xlink:href="#glyph-0-12"
       x="304.57797"
       y="17.201"
       id="use2602" />
    <use
       xlink:href="#glyph-0-3"
       x="311.75107"
       y="17.201"
       id="use2604" />
    <use
       xlink:href="#glyph-0-13"
       x="318.92419"
       y="17.201"
       id="use2606" />
  </g>
  <g
     fill="rgb(18.429565%, 32.157898%, 56.077576%)"
     fill-opacity="1"
     id="g2612">
    <use
       xlink:href="#glyph-1-0"
       x="330.795"
       y="40.695"
       id="use2610" />
  </g>
  <path
     fill-rule="nonzero"
     fill="rgb(100%, 100%, 100%)"
     fill-opacity="1"
     stroke-width="1.39478"
     stroke-linecap="butt"
     stroke-linejoin="miter"
     stroke="rgb(18.429565%, 32.157898%, 56.077576%)"
     stroke-opacity="1"
     stroke-miterlimit="10"
     d="M 276.38175 -15.592656 L 307.561438 -15.592656 L 307.561438 15.590937 L 276.38175 15.590937 Z M 276.38175 -15.592656 "
     transform="matrix(1, 0, 0, -1, 71.212, 32.755)"
     id="path2614" />
  <g
     fill="rgb(0%, 0%, 0%)"
     fill-opacity="1"
     id="g2618">
    <use
       xlink:href="#glyph-0-2"
       x="359.594"
       y="36.769"
       id="use2616" />
  </g>
  <path
     fill-rule="nonzero"
     fill="rgb(100%, 100%, 100%)"
     fill-opacity="1"
     stroke-width="1.39478"
     stroke-linecap="butt"
     stroke-linejoin="miter"
     stroke="rgb(18.429565%, 32.157898%, 56.077576%)"
     stroke-opacity="1"
     stroke-miterlimit="10"
     d="M 307.561438 -15.592656 L 338.745031 -15.592656 L 338.745031 15.590937 L 307.561438 15.590937 Z M 307.561438 -15.592656 "
     transform="matrix(1, 0, 0, -1, 71.212, 32.755)"
     id="path2620" />
  <g
     fill="rgb(0%, 0%, 0%)"
     fill-opacity="1"
     id="g2624">
    <use
       xlink:href="#glyph-0-4"
       x="390.775"
       y="36.706"
       id="use2622" />
  </g>
  <path
     fill-rule="nonzero"
     fill="rgb(100%, 100%, 100%)"
     fill-opacity="1"
     stroke-width="1.39478"
     stroke-linecap="butt"
     stroke-linejoin="miter"
     stroke="rgb(18.429565%, 32.157898%, 56.077576%)"
     stroke-opacity="1"
     stroke-miterlimit="10"
     d="M 338.745031 -15.592656 L 369.924719 -15.592656 L 369.924719 15.590937 L 338.745031 15.590937 Z M 338.745031 -15.592656 "
     transform="matrix(1, 0, 0, -1, 71.212, 32.755)"
     id="path2626" />
  <g
     fill="rgb(0%, 0%, 0%)"
     fill-opacity="1"
     id="g2630">
    <use
       xlink:href="#glyph-0-5"
       x="421.956"
       y="36.706"
       id="use2628" />
  </g>
  <path
     fill-rule="nonzero"
     fill="rgb(100%, 100%, 100%)"
     fill-opacity="1"
     stroke-width="1.39478"
     stroke-linecap="butt"
     stroke-linejoin="miter"
     stroke="rgb(18.429565%, 32.157898%, 56.077576%)"
     stroke-opacity="1"
     stroke-miterlimit="10"
     d="M 369.924719 -15.592656 L 401.108313 -15.592656 L 401.108313 15.590937 L 369.924719 15.590937 Z M 369.924719 -15.592656 "
     transform="matrix(1, 0, 0, -1, 71.212, 32.755)"
     id="path2632" />
  <g
     fill="rgb(0%, 0%, 0%)"
     fill-opacity="1"
     id="g2636">
    <use
       xlink:href="#glyph-0-3"
       x="453.138"
       y="36.987"
       id="use2634" />
  </g>
  <g
     fill="rgb(18.429565%, 32.157898%, 56.077576%)"
     fill-opacity="1"
     id="g2640">
    <use
       xlink:href="#glyph-1-1"
       x="475.362"
       y="40.695"
       id="use2638" />
  </g>
</svg>
