<?xml version="1.0" encoding="UTF-8" standalone="no"?>
<svg
   width="638.58704"
   height="490.7912"
   overflow="hidden"
   version="1.1"
   id="svg269"
   sodipodi:docname="inter-2.svg"
   inkscape:version="1.1.2 (0a00cf5339, 2022-02-04)"
   xmlns:inkscape="http://www.inkscape.org/namespaces/inkscape"
   xmlns:sodipodi="http://sodipodi.sourceforge.net/DTD/sodipodi-0.dtd"
   xmlns="http://www.w3.org/2000/svg"
   xmlns:svg="http://www.w3.org/2000/svg">
  <sodipodi:namedview
     id="namedview271"
     pagecolor="#505050"
     bordercolor="#eeeeee"
     borderopacity="1"
     inkscape:pageshadow="0"
     inkscape:pageopacity="0"
     inkscape:pagecheckerboard="0"
     showgrid="false"
     inkscape:zoom="2"
     inkscape:cx="572.75"
     inkscape:cy="258"
     inkscape:window-width="3440"
     inkscape:window-height="1405"
     inkscape:window-x="0"
     inkscape:window-y="35"
     inkscape:window-maximized="0"
     inkscape:current-layer="g267"
     fit-margin-top="0"
     fit-margin-left="0"
     fit-margin-right="0"
     fit-margin-bottom="0"
     units="mm"
     inkscape:snap-global="false"
     width="638.58704px">
    <inkscape:grid
       type="xygrid"
       id="grid5030"
       color="#de3f29"
       opacity="0.80784314"
       empcolor="#3fdfff"
       empopacity="0.84313725" />
  </sodipodi:namedview>
  <defs
     id="defs175">
    <clipPath
       id="clip0">
      <rect
         x="334"
         y="76"
         width="656"
         height="568"
         id="rect172" />
    </clipPath>
  </defs>
  <g
     clip-path="url(#clip0)"
     transform="translate(-334,-76)"
     id="g267"
     style="display:inline">
    <path
       d="M 334,490 H 869.43326"
       stroke="#000000"
       stroke-width="2.49795"
       stroke-miterlimit="8"
       fill="none"
       fill-rule="evenodd"
       id="path183"
       style="fill:#ffffff;stroke:#ffffff;stroke-width:2.498;stroke-miterlimit:8;stroke-dasharray:none;stroke-opacity:1" />
    <path
       d="M 837,489 V 242"
       stroke="#0000ff"
       stroke-width="2.49795"
       stroke-miterlimit="8"
       stroke-dasharray="9.99181, 7.49386"
       fill="none"
       fill-rule="evenodd"
       id="path177"
       style="display:inline" />
    <path
       d="M 393,519 V 99"
       stroke="#000000"
       stroke-width="2.49795"
       stroke-miterlimit="8"
       fill="none"
       fill-rule="evenodd"
       id="path179"
       style="stroke:#ffffff;stroke-opacity:1" />
    <path
       d="M 383,104 393.004,76 403,104 Z"
       fill-rule="evenodd"
       id="path181"
       style="fill:#ffffff" />
    <path
       id="path187"
       style="color:#000000;fill:#ff0000;fill-rule:evenodd;stroke-miterlimit:8;-inkscape-stroke:none"
       transform="translate(334,76)"
       d="m 552.29492,99.037109 c -0.0683,0.01507 -0.10965,0.03569 -0.23047,0.04883 -0.0223,-0.0464 0.002,2.45e-4 -0.14257,0.01562 -0.0349,0.0037 -0.071,0.0015 -0.10547,0.0078 -0.24695,0.04538 -0.48731,0.121371 -0.73633,0.15625 l -286.19727,382.072261 2,1.49805 285.94336,-381.73633 c 0.003,-0.01 0.006,-0.0197 0.01,-0.0293 0.007,-0.0222 0.0125,-0.0443 0.0195,-0.0664 0.005,-0.0134 0.009,-0.0261 0.0137,-0.0391 l 0.002,-0.002 0.002,-0.002 c 0.002,-0.0126 0.002,-0.0246 0.004,-0.0371 0.005,-0.028 0.0106,-0.0561 0.0156,-0.084 0.0407,-0.12967 0.0174,-0.0627 0.0664,-0.20312 0.0357,-0.10979 0.0508,-0.16477 0.0801,-0.27149 0.0124,-0.0449 0.0257,-0.0897 0.0371,-0.13476 0.007,-0.0276 0.0116,-0.0542 0.0176,-0.082 0.002,-0.0124 0.006,-0.0247 0.008,-0.0371 10e-4,-0.004 0.002,-0.008 0.002,-0.0117 6e-4,-0.01 -4e-5,-0.0193 0,-0.0293 0,-0.0364 0.003,-0.07299 0.004,-0.109368 10e-4,-0.04673 10e-4,-0.09398 -0.002,-0.140626 -5.8e-4,-0.0013 -4e-4,-0.0026 -0.002,-0.0039 -0.0291,-0.07334 -0.0263,-0.11115 -0.0312,-0.18164 -0.002,-0.0307 -0.0131,-0.134149 -0.0156,-0.16211 -0.0249,-0.01493 -0.0509,-0.02664 -0.0898,-0.05859 10e-4,0.001 -0.003,-0.003 -0.004,-0.0039 l -0.006,-0.0039 c -0.0163,-0.01087 -0.0319,-0.02141 -0.0488,-0.03125 -0.14587,-0.08477 -0.29723,-0.16288 -0.43945,-0.253906 -0.0534,4.6e-4 -0.10679,0.0047 -0.16016,0.0059 z m 0.22266,0.08594 c 0.002,6e-4 0.004,0.0014 0.006,0.002 10e-4,5e-4 0.008,-0.0019 0.006,-0.002 -0.004,-1.39e-4 -0.008,9.9e-5 -0.0117,0 z" />
    <text
       font-family="'Cambria Math', 'Cambria Math_MSFontService', sans-serif"
       font-weight="400"
       font-size="21px"
       id="text243"
       transform="translate(672.913,479)" />
    <text
       font-family="'Cambria Math', 'Cambria Math_MSFontService', sans-serif"
       font-weight="400"
       font-size="21px"
       transform="translate(513.134,313)"
       id="text247" />
    <text
       font-family="'Cambria Math', 'Cambria Math_MSFontService', sans-serif"
       font-weight="400"
       font-size="21px"
       transform="rotate(-53.653931,677.27383,-725.46838)"
       id="text261" />
    <path
       d="m 643,490.5 c 0,-3.59 3.134,-6.5 7,-6.5 3.866,0 7,2.91 7,6.5 0,3.59 -3.134,6.5 -7,6.5 -3.866,0 -7,-2.91 -7,-6.5 z"
       fill-rule="evenodd"
       id="path265"
       style="display:inline;fill:#ffffff" />
    <path
       d="m 830.43915,490.45567 c 0,-3.59 3.134,-6.5 7,-6.5 3.866,0 7,2.91 7,6.5 0,3.59 -3.134,6.5 -7,6.5 -3.866,0 -7,-2.91 -7,-6.5 z"
       fill-rule="evenodd"
       id="path265-9"
       style="fill:#ffffff" />
    <text
       xml:space="preserve"
       style="font-style:normal;font-variant:normal;font-weight:normal;font-stretch:normal;font-size:40px;line-height:1.25;font-family:'DejaVu Math TeX Gyre';-inkscape-font-specification:'DejaVu Math TeX Gyre'"
       x="656.05884"
       y="510.57864"
       id="text40388"><tspan
         sodipodi:role="line"
         id="tspan40386"
         x="656.05884"
         y="510.57864" /></text>
    <g
       aria-label="g(x)"
       id="text42064"
       style="font-style:italic;font-size:37.3333px;line-height:1.25;font-family:'TeX Gyre Termes';-inkscape-font-specification:'TeX Gyre Termes Italic';letter-spacing:0.01px;display:inline;fill:#ffffff">
      <path
         d="m 650.62088,527.02163 q 0,-0.97067 0.59733,-1.49334 0.59733,-0.48533 1.232,-0.48533 0.672,0 0.97066,0.37333 0.336,0.37334 0.336,0.82134 0,0.48533 -0.336,0.97066 -0.336,0.52267 -0.85866,0.74667 1.008,0.41066 2.65066,0.41066 2.05333,0 3.54667,-1.75466 0.74666,-0.896 1.04533,-1.64267 0.29867,-0.74666 0.672,-2.27733 l 0.784,-3.13599 q -1.97867,1.97866 -3.95733,1.97866 -2.05333,0 -3.32267,-1.64266 -1.23199,-1.64267 -1.23199,-4.06933 0,-3.95733 2.65066,-7.35467 2.688,-3.43466 5.82399,-3.43466 2.09067,0 3.136,2.128 0.112,-0.70933 0.56,-1.04533 0.448,-0.336 0.896,-0.336 1.008,0 1.008,0.97066 0,0.224 -0.14933,0.784 l -4.06933,16.35199 q -0.56,2.24 -2.61333,3.77066 -2.016,1.53067 -4.85333,1.53067 -4.51733,0 -4.51733,-2.16533 z m 4.66666,-9.55733 q 0,0.336 0.0373,0.70933 0.0747,0.37334 0.224,1.04534 0.18667,0.63466 0.63467,1.08266 0.48533,0.41067 1.19466,0.41067 1.38134,0 2.87467,-1.49333 1.49333,-1.53067 1.75466,-2.61334 l 1.68,-6.79466 0.112,-0.52266 q 0,-0.224 -0.112,-0.672 -0.0747,-0.48533 -0.336,-1.12 -0.224,-0.672 -0.784,-1.15733 -0.56,-0.48534 -1.344,-0.48534 -1.04533,0 -2.20266,1.08267 -1.12,1.04533 -1.82933,2.61333 -0.59733,1.38133 -1.26933,3.99466 -0.63467,2.61333 -0.63467,3.92 z"
         style="font-family:'CMU Serif';-inkscape-font-specification:'CMU Serif Italic';fill:#ffffff"
         id="path281964" />
      <path
         d="m 669.52149,512.2003 q 0,-6.30932 2.352,-11.38665 1.008,-2.128 2.38933,-3.92 1.41867,-1.792 2.352,-2.576 0.93333,-0.784 1.19467,-0.784 0.37333,0 0.37333,0.37334 0,0.18666 -0.48533,0.63466 -6.01066,6.12266 -6.01066,17.65865 0,11.57333 5.86132,17.47199 0.63467,0.63467 0.63467,0.82133 0,0.37334 -0.37333,0.37334 -0.26134,0 -1.15734,-0.74667 -0.896,-0.74667 -2.27733,-2.464 -1.38133,-1.71733 -2.38933,-3.80799 -2.464,-5.07733 -2.464,-11.648 z"
         style="font-style:normal;fill:#ffffff"
         id="path281966" />
      <path
         d="m 678.6434,519.34877 q 0,-0.896 0.56,-1.456 0.56,-0.56 1.30666,-0.56 1.26934,0 1.26934,1.19467 0,0.52267 -0.37334,1.08267 -0.336,0.52266 -1.08266,0.70933 0.63466,0.52266 1.64266,0.52266 0.784,0 1.38134,-0.448 0.63466,-0.448 1.04533,-1.38133 0.448,-0.93333 0.672,-1.64266 0.224,-0.74667 0.52266,-1.94133 0.448,-1.82934 0.85867,-3.39734 0.784,-3.21066 0.784,-4.10666 0,-1.12 -0.48533,-1.71733 -0.48534,-0.63467 -1.30667,-0.63467 -1.232,0 -2.50133,1.19467 -1.232,1.19467 -1.94133,3.472 -0.14934,0.448 -0.224,0.56 -0.0747,0.0747 -0.448,0.0747 -0.56,0 -0.56,-0.37333 0,-0.37333 0.37333,-1.26933 0.41067,-0.896 1.08267,-1.904 0.672,-1.04533 1.82933,-1.792 1.15733,-0.784 2.464,-0.784 2.65066,0 3.58399,2.53867 0.448,-0.85867 1.38134,-1.68 0.93333,-0.85867 2.27733,-0.85867 1.12,0 2.16533,0.56 1.08266,0.52267 1.08266,1.792 0,0.97066 -0.59733,1.49333 -0.59733,0.48533 -1.232,0.48533 -0.672,0 -1.008,-0.37333 -0.29866,-0.37333 -0.29866,-0.82133 0,-0.18667 0.0373,-0.41067 0.0373,-0.26133 0.41067,-0.74666 0.37333,-0.48534 1.04533,-0.63467 -0.59733,-0.52267 -1.64267,-0.52267 -2.20266,0 -3.28533,3.99467 -0.85866,3.62133 -1.26933,5.11466 -0.70933,3.024 -0.70933,3.77066 0,1.30667 0.52266,1.86667 0.52267,0.52266 1.232,0.52266 1.26934,0 2.50134,-1.19466 1.23199,-1.19467 1.94133,-3.472 0.14933,-0.448 0.224,-0.52266 0.112,-0.112 0.448,-0.112 0.56,0 0.56,0.37333 0,0.336 -0.37334,1.232 -0.37333,0.85866 -1.04533,1.904 -0.672,1.04533 -1.82933,1.82933 -1.15733,0.784 -2.50133,0.784 -1.008,0 -2.05333,-0.56 -1.008,-0.56 -1.49334,-1.97867 -1.456,2.53867 -3.65866,2.53867 -1.344,0 -2.31466,-0.63467 -0.97067,-0.63467 -0.97067,-1.68 z"
         id="path281968"
         style="fill:#ffffff" />
      <path
         d="m 696.08803,530.21276 q 0,-0.18666 0.48533,-0.63466 6.01066,-6.12266 6.01066,-17.65866 0,-11.57332 -5.78666,-17.43465 -0.70933,-0.672 -0.70933,-0.85866 0,-0.37334 0.37333,-0.37334 0.26133,0 1.15733,0.74667 0.896,0.74667 2.27733,2.464 1.38134,1.71733 2.38933,3.80799 2.464,5.07733 2.464,11.64799 0,6.30933 -2.352,11.38666 -1.00799,2.128 -2.42666,3.92 -1.38133,1.792 -2.31466,2.576 -0.93334,0.784 -1.19467,0.784 -0.37333,0 -0.37333,-0.37334 z"
         style="font-style:normal;fill:#ffffff"
         id="path281970" />
    </g>
    <g
       aria-label="f"
       id="text42064-3"
       style="font-style:italic;font-size:37.3333px;line-height:1.25;font-family:'TeX Gyre Termes';-inkscape-font-specification:'TeX Gyre Termes Italic';display:none">
      <path
         d="m 882.89695,128.14359 q 0,-0.93333 0.56,-1.49333 0.56,-0.56 1.30666,-0.56 0.48534,0 0.85867,0.29866 0.41066,0.336 0.41066,0.896 0,0.63467 -0.44799,1.15734 -0.41067,0.52266 -1.19467,0.67199 0.48533,0.672 1.49333,0.672 1.38133,0 2.128,-3.21066 0.448,-1.60533 1.04533,-4.62933 l 2.72533,-13.92532 h -2.31466 q -0.93333,0 -0.93333,-0.41067 0,-0.52266 0.224,-0.63466 0.224,-0.112 0.784,-0.112 h 2.46399 l 0.784,-4.10667 q 1.26933,-6.122662 4.85333,-6.122662 1.232,0 2.128,0.672 0.93333,0.634666 0.93333,1.791998 0,0.933334 -0.56,1.493334 -0.56,0.56 -1.30666,0.56 -0.48534,0 -0.896,-0.29867 -0.37333,-0.336 -0.37333,-0.895998 0,-0.634666 0.41066,-1.157332 0.448,-0.522666 1.232,-0.672 -0.56,-0.671999 -1.568,-0.671999 -0.63466,0 -1.08266,0.634666 -0.448,0.634666 -0.59734,1.194666 -0.14933,0.522666 -0.37333,1.530667 -0.448,2.016 -1.19467,6.048 h 2.912 q 0.37333,0 0.52267,0.0373 0.18666,0 0.29866,0.112 0.112,0.112 0.112,0.336 0,0.448 -0.224,0.56 -0.224,0.112 -0.78399,0.112 h -3.06134 l -2.61333,13.40265 q -0.224,1.08267 -0.52266,2.09067 -0.26134,1.04533 -0.93334,2.912 -0.67199,1.86666 -1.79199,3.02399 -1.08267,1.15734 -2.42667,1.15734 -1.15733,0 -2.05333,-0.672 -0.93333,-0.63467 -0.93333,-1.792 z"
         style="font-family:'CMU Serif';-inkscape-font-specification:'CMU Serif Italic';fill:#ffffff"
         id="path96655" />
    </g>
    <g
       aria-label="x0 "
       id="text42064-9"
       style="font-style:italic;font-size:37.3333px;line-height:1.25;font-family:'TeX Gyre Termes';-inkscape-font-specification:'TeX Gyre Termes Italic';letter-spacing:0.04px;fill:#ffffff">
      <path
         d="m 828.30864,517.61975 q 0,-0.896 0.56,-1.456 0.56,-0.56 1.30667,-0.56 1.26933,0 1.26933,1.19467 0,0.52266 -0.37333,1.08266 -0.336,0.52267 -1.08267,0.70934 0.63467,0.52266 1.64267,0.52266 0.784,0 1.38133,-0.448 0.63466,-0.448 1.04533,-1.38133 0.448,-0.93333 0.672,-1.64266 0.224,-0.74667 0.52267,-1.94134 0.448,-1.82933 0.85866,-3.39733 0.784,-3.21066 0.784,-4.10666 0,-1.12 -0.48533,-1.71733 -0.48533,-0.63467 -1.30667,-0.63467 -1.232,0 -2.50133,1.19467 -1.232,1.19466 -1.94133,3.47199 -0.14933,0.448 -0.224,0.56 -0.0747,0.0747 -0.448,0.0747 -0.56,0 -0.56,-0.37333 0,-0.37334 0.37333,-1.26933 0.41067,-0.896 1.08267,-1.904 0.672,-1.04534 1.82933,-1.792 1.15733,-0.784 2.464,-0.784 2.65066,0 3.584,2.53866 0.448,-0.85866 1.38133,-1.67999 0.93333,-0.85867 2.27733,-0.85867 1.12,0 2.16533,0.56 1.08267,0.52266 1.08267,1.792 0,0.97066 -0.59734,1.49333 -0.59733,0.48533 -1.23199,0.48533 -0.672,0 -1.008,-0.37333 -0.29867,-0.37333 -0.29867,-0.82133 0,-0.18667 0.0373,-0.41067 0.0373,-0.26133 0.41067,-0.74667 0.37333,-0.48533 1.04533,-0.63466 -0.59733,-0.52267 -1.64266,-0.52267 -2.20267,0 -3.28533,3.99467 -0.85867,3.62133 -1.26934,5.11466 -0.70933,3.02399 -0.70933,3.77066 0,1.30667 0.52267,1.86667 0.52266,0.52266 1.232,0.52266 1.26933,0 2.50133,-1.19466 1.232,-1.19467 1.94133,-3.472 0.14933,-0.448 0.224,-0.52267 0.112,-0.112 0.448,-0.112 0.56,0 0.56,0.37334 0,0.336 -0.37333,1.232 -0.37334,0.85866 -1.04534,1.90399 -0.672,1.04534 -1.82933,1.82934 -1.15733,0.78399 -2.50133,0.78399 -1.008,0 -2.05333,-0.55999 -1.008,-0.56 -1.49333,-1.97867 -1.456,2.53866 -3.65867,2.53866 -1.344,0 -2.31466,-0.63466 -0.97067,-0.63467 -0.97067,-1.68 z"
         style="letter-spacing:1.2px;fill:#ffffff"
         id="path83678" />
    </g>
    <text
       xml:space="preserve"
       style="font-style:normal;font-weight:normal;font-size:40px;line-height:1.25;font-family:sans-serif;fill:#000000;fill-opacity:1;stroke:none"
       x="849.11676"
       y="114.85411"
       id="text85819"><tspan
         sodipodi:role="line"
         id="tspan85817"
         x="849.11676"
         y="114.85411" /></text>
    <path
       d="m 851.27836,255.64805 q 0,-6.30933 2.352,-11.38666 1.008,-2.128 2.38933,-3.92 1.41866,-1.79199 2.352,-2.57599 0.93333,-0.784 1.19466,-0.784 0.37334,0 0.37334,0.37333 0,0.18667 -0.48534,0.63467 -6.01066,6.12266 -6.01066,17.65865 0,11.57332 5.86133,17.47198 0.63467,0.63467 0.63467,0.82134 0,0.37333 -0.37334,0.37333 -0.26133,0 -1.15733,-0.74667 -0.896,-0.74666 -2.27733,-2.46399 -1.38133,-1.71734 -2.38933,-3.808 -2.464,-5.07733 -2.464,-11.64799 z"
       id="path41789"
       style="font-style:italic;font-size:37.3333px;font-family:'TeX Gyre Termes';-inkscape-font-specification:'TeX Gyre Termes Italic';letter-spacing:0.9px;display:inline;fill:#ffffff" />
    <path
       d="m 863.7393,262.89103 q 0,-0.896 0.56,-1.456 0.56,-0.56 1.30667,-0.56 1.26933,0 1.26933,1.19466 0,0.52267 -0.37333,1.08267 -0.336,0.52266 -1.08267,0.70933 0.63467,0.52267 1.64267,0.52267 0.784,0 1.38133,-0.448 0.63467,-0.448 1.04533,-1.38133 0.448,-0.93334 0.672,-1.64267 0.224,-0.74667 0.52267,-1.94133 0.448,-1.82933 0.85866,-3.39733 0.784,-3.21067 0.784,-4.10666 0,-1.12 -0.48533,-1.71734 -0.48533,-0.63466 -1.30666,-0.63466 -1.232,0 -2.50134,1.19466 -1.23199,1.19467 -1.94133,3.472 -0.14933,0.448 -0.224,0.56 -0.0747,0.0747 -0.448,0.0747 -0.56,0 -0.56,-0.37334 0,-0.37333 0.37334,-1.26933 0.41066,-0.896 1.08266,-1.904 0.672,-1.04533 1.82933,-1.792 1.15734,-0.784 2.464,-0.784 2.65067,0 3.584,2.53867 0.448,-0.85867 1.38133,-1.68 0.93333,-0.85867 2.27733,-0.85867 1.12,0 2.16533,0.56 1.08267,0.52267 1.08267,1.792 0,0.97067 -0.59733,1.49333 -0.59734,0.48534 -1.232,0.48534 -0.672,0 -1.008,-0.37334 -0.29867,-0.37333 -0.29867,-0.82133 0,-0.18666 0.0373,-0.41066 0.0373,-0.26134 0.41066,-0.74667 0.37334,-0.48533 1.04533,-0.63467 -0.59733,-0.52266 -1.64266,-0.52266 -2.20267,0 -3.28533,3.99466 -0.85867,3.62133 -1.26933,5.11466 -0.70934,3.024 -0.70934,3.77067 0,1.30666 0.52267,1.86666 0.52267,0.52267 1.232,0.52267 1.26933,0 2.50133,-1.19467 1.232,-1.19466 1.94133,-3.472 0.14933,-0.44799 0.224,-0.52266 0.112,-0.112 0.448,-0.112 0.56,0 0.56,0.37333 0,0.336 -0.37333,1.232 -0.37334,0.85867 -1.04533,1.904 -0.672,1.04533 -1.82934,1.82933 -1.15733,0.784 -2.50133,0.784 -1.008,0 -2.05333,-0.56 -1.008,-0.56 -1.49333,-1.97866 -1.456,2.53866 -3.65866,2.53866 -1.344,0 -2.31467,-0.63467 -0.97067,-0.63466 -0.97067,-1.67999 z"
       style="font-style:italic;font-size:37.3333px;font-family:'TeX Gyre Termes';-inkscape-font-specification:'CMU Serif Italic';letter-spacing:0.9px;display:inline;fill:#ffffff"
       id="path41791" />
    <path
       d="m 887.22989,271.86403 q -0.33973,-0.38827 -0.33973,-0.89787 0,-0.5096 0.33973,-0.89786 0.33974,-0.38827 0.9464,-0.38827 0.728,0 1.14053,0.70373 0.41254,0.67947 0.41254,1.84427 0,1.26186 -0.5096,2.42666 -0.5096,1.1648 -1.0192,1.72293 -0.48533,0.55814 -0.67947,0.55814 -0.24266,0 -0.24266,-0.26694 0,-0.0971 0.16986,-0.26693 1.7472,-1.86853 1.7472,-4.17386 0,-0.364 -0.0485,-0.364 l -0.0485,0.0485 q -0.41253,0.33973 -0.92213,0.33973 -0.60666,0 -0.9464,-0.38826 z"
       id="path41793"
       style="font-style:italic;font-size:37.3333px;font-family:'TeX Gyre Termes';-inkscape-font-specification:'TeX Gyre Termes Italic';letter-spacing:0.9px;display:inline;fill:#ffffff" />
    <path
       d="m 900.47247,269.97496 q 0,-0.93333 0.56,-1.49333 0.56,-0.56 1.30667,-0.56 0.48533,0 0.85866,0.29867 0.41067,0.336 0.41067,0.896 0,0.63466 -0.448,1.15733 -0.41067,0.52267 -1.19466,0.672 0.48533,0.672 1.49333,0.672 1.38133,0 2.128,-3.21067 0.448,-1.60533 1.04533,-4.62933 l 2.72533,-13.92532 h -2.31467 q -0.93333,0 -0.93333,-0.41066 0,-0.52267 0.224,-0.63467 0.224,-0.112 0.784,-0.112 h 2.464 l 0.784,-4.10666 q 1.26933,-6.12266 4.85333,-6.12266 1.232,0 2.128,0.672 0.93333,0.63466 0.93333,1.79199 0,0.93334 -0.56,1.49334 -0.56,0.56 -1.30667,0.56 -0.48533,0 -0.896,-0.29867 -0.37333,-0.336 -0.37333,-0.896 0,-0.63467 0.41067,-1.15733 0.448,-0.52267 1.232,-0.672 -0.56,-0.672 -1.568,-0.672 -0.63467,0 -1.08267,0.63466 -0.448,0.63467 -0.59733,1.19467 -0.14933,0.52267 -0.37333,1.53067 -0.448,2.01599 -1.19467,6.04799 h 2.912 q 0.37333,0 0.52266,0.0373 0.18667,0 0.29867,0.112 0.112,0.112 0.112,0.336 0,0.448 -0.224,0.56 -0.224,0.112 -0.784,0.112 h -3.06133 l -2.61333,13.40266 q -0.224,1.08266 -0.52267,2.09066 -0.26133,1.04534 -0.93333,2.912 -0.672,1.86667 -1.792,3.024 -1.08266,1.15733 -2.42666,1.15733 -1.15733,0 -2.05333,-0.672 -0.93334,-0.63466 -0.93334,-1.792 z"
       style="font-style:italic;font-size:37.3333px;font-family:'TeX Gyre Termes';-inkscape-font-specification:'CMU Serif Italic';letter-spacing:0.9px;display:inline;fill:#ffffff"
       id="path41795" />
    <path
       d="m 917.42579,255.45231 q 0,-6.30933 2.35199,-11.38666 1.008,-2.128 2.38933,-3.92 1.41867,-1.79199 2.352,-2.57599 0.93333,-0.784 1.19467,-0.784 0.37333,0 0.37333,0.37333 0,0.18667 -0.48533,0.63467 -6.01066,6.12266 -6.01066,17.65865 0,11.57332 5.86132,17.47198 0.63467,0.63467 0.63467,0.82134 0,0.37333 -0.37333,0.37333 -0.26134,0 -1.15733,-0.74667 -0.896,-0.74666 -2.27734,-2.46399 -1.38133,-1.71734 -2.38933,-3.808 -2.46399,-5.07733 -2.46399,-11.64799 z"
       id="path41797"
       style="font-style:italic;font-size:37.3333px;font-family:'TeX Gyre Termes';-inkscape-font-specification:'TeX Gyre Termes Italic';letter-spacing:0.9px;display:inline;fill:#ffffff" />
    <path
       d="m 928.30371,262.88164 q 0,-0.896 0.56,-1.456 0.56,-0.56 1.30667,-0.56 1.26933,0 1.26933,1.19466 0,0.52267 -0.37333,1.08267 -0.336,0.52266 -1.08267,0.70933 0.63467,0.52267 1.64267,0.52267 0.784,0 1.38133,-0.448 0.63467,-0.448 1.04533,-1.38133 0.448,-0.93334 0.672,-1.64267 0.224,-0.74667 0.52267,-1.94133 0.448,-1.82933 0.85866,-3.39733 0.784,-3.21067 0.784,-4.10666 0,-1.12 -0.48533,-1.71734 -0.48533,-0.63466 -1.30667,-0.63466 -1.23199,0 -2.50133,1.19466 -1.232,1.19467 -1.94133,3.472 -0.14933,0.448 -0.224,0.56 -0.0747,0.0747 -0.448,0.0747 -0.56,0 -0.56,-0.37334 0,-0.37333 0.37334,-1.26933 0.41066,-0.896 1.08266,-1.904 0.672,-1.04533 1.82933,-1.792 1.15734,-0.784 2.464,-0.784 2.65067,0 3.584,2.53867 0.448,-0.85867 1.38133,-1.68 0.93333,-0.85867 2.27733,-0.85867 1.12,0 2.16533,0.56 1.08267,0.52267 1.08267,1.792 0,0.97067 -0.59733,1.49333 -0.59734,0.48534 -1.232,0.48534 -0.672,0 -1.008,-0.37334 -0.29867,-0.37333 -0.29867,-0.82133 0,-0.18666 0.0373,-0.41066 0.0373,-0.26134 0.41067,-0.74667 0.37333,-0.48533 1.04533,-0.63467 -0.59733,-0.52266 -1.64266,-0.52266 -2.20267,0 -3.28533,3.99466 -0.85867,3.62133 -1.26933,5.11466 -0.70934,3.024 -0.70934,3.77067 0,1.30666 0.52267,1.86666 0.52267,0.52267 1.232,0.52267 1.26933,0 2.50133,-1.19467 1.232,-1.19466 1.94133,-3.472 0.14933,-0.44799 0.224,-0.52266 0.112,-0.112 0.448,-0.112 0.56,0 0.56,0.37333 0,0.336 -0.37333,1.232 -0.37334,0.85867 -1.04534,1.904 -0.67199,1.04533 -1.82933,1.82933 -1.15733,0.784 -2.50133,0.784 -1.008,0 -2.05333,-0.56 -1.008,-0.56 -1.49333,-1.97866 -1.456,2.53866 -3.65867,2.53866 -1.34399,0 -2.31466,-0.63467 -0.97067,-0.63466 -0.97067,-1.67999 z"
       style="font-style:italic;font-size:37.3333px;font-family:'TeX Gyre Termes';-inkscape-font-specification:'CMU Serif Italic';letter-spacing:0.9px;display:inline;fill:#ffffff"
       id="path41799" />
    <path
       d="m 946.63834,273.74563 q 0,-0.18667 0.48534,-0.63467 6.01066,-6.12266 6.01066,-17.65865 0,-11.57333 -5.78667,-17.43465 -0.70933,-0.672 -0.70933,-0.85867 0,-0.37333 0.37334,-0.37333 0.26133,0 1.15733,0.74666 0.896,0.74667 2.27733,2.464 1.38133,1.71733 2.38933,3.808 2.464,5.07733 2.464,11.64799 0,6.30933 -2.352,11.38666 -1.008,2.12799 -2.42666,3.91999 -1.38134,1.792 -2.31467,2.576 -0.93333,0.784 -1.19466,0.784 -0.37334,0 -0.37334,-0.37333 z"
       id="path41801"
       style="font-style:italic;font-size:37.3333px;font-family:'TeX Gyre Termes';-inkscape-font-specification:'TeX Gyre Termes Italic';letter-spacing:0.9px;display:inline;fill:#ffffff" />
    <path
       d="m 957.20962,274.17763 q 0,-0.18667 0.48533,-0.63467 6.01067,-6.12266 6.01067,-17.65865 0,-11.57333 -5.78667,-17.43465 -0.70933,-0.672 -0.70933,-0.85867 0,-0.37333 0.37333,-0.37333 0.26134,0 1.15734,0.74666 0.896,0.74667 2.27733,2.464 1.38133,1.71733 2.38933,3.808 2.464,5.07733 2.464,11.64799 0,6.30933 -2.352,11.38666 -1.008,2.12799 -2.42667,3.91999 -1.38133,1.792 -2.31466,2.576 -0.93333,0.784 -1.19467,0.784 -0.37333,0 -0.37333,-0.37333 z"
       id="path41803"
       style="font-style:italic;font-size:37.3333px;font-family:'TeX Gyre Termes';-inkscape-font-specification:'TeX Gyre Termes Italic';letter-spacing:0.9px;display:inline;fill:#ffffff" />
    <path
       id="path189-6"
       style="color:#000000;fill:#0052ff;fill-rule:evenodd;stroke-miterlimit:8;-inkscape-stroke:none"
       transform="translate(334,76)"
       d="m 552.70117,91.578125 c -0.28249,0.02078 -0.006,-2.62e-4 -0.34961,0.0332 -0.0414,0.004 -0.0838,0.0051 -0.125,0.0098 -0.113,0.01295 -0.29602,0.03733 -0.42187,0.0332 -0.0345,0.01046 -0.069,0.02085 -0.10352,0.03125 -0.0838,0.02523 -0.16816,0.04905 -0.25195,0.07422 -0.0218,0.02505 -0.0437,0.04994 -0.0684,0.07227 -0.0647,0.05858 -0.14966,0.08968 -0.22656,0.13086 -0.0394,0.02112 -0.0824,0.03801 -0.12305,0.05664 -0.0965,0.04419 -0.0697,0.03212 -0.16406,0.07813 -0.0654,0.03067 -0.13085,0.05992 -0.19727,0.08789 -0.0179,0.01304 -0.0351,0.02827 -0.0488,0.03711 -14.59056,23.197195 -31.67282,49.087605 -49.18554,72.562505 -35.60138,47.72266 -74.12607,88.46192 -113.43164,123.45312 l 0.0469,0.043 c -0.10935,0.1165 -0.20934,0.24034 -0.32226,0.35352 -0.0321,0.0321 -0.0628,0.0673 -0.0996,0.0937 -0.0538,0.0387 -0.10978,0.0743 -0.16602,0.10937 0.0354,-0.0211 0.0204,-0.0119 0.0664,-0.0391 -0.0383,0.0241 -0.0578,0.0354 -0.11524,0.0723 -0.005,0.004 -0.008,0.009 -0.0137,0.0137 -0.002,7.3e-4 -0.0167,0.006 -0.0215,0.008 -0.003,0.002 -0.005,0.002 -0.008,0.004 -0.003,10e-4 -0.006,0.002 -0.01,0.004 -0.001,0.001 -0.002,0.003 -0.004,0.004 -10e-4,8.8e-4 -0.003,5.5e-4 -0.004,0.002 -0.005,0.003 -0.0118,0.009 -0.0137,0.01 l -0.002,0.002 c -0.007,0.005 -0.0142,0.0106 -0.0215,0.0156 -0.01,0.007 -0.0191,0.0149 -0.0293,0.0215 0.031,-0.0174 0.0554,-0.03 0.0801,-0.0449 -0.006,0.005 -0.0154,0.0109 -0.0195,0.0156 -0.0517,0.0592 -0.0782,0.0877 -0.10743,0.11914 -0.0349,0.0731 -0.0779,0.14099 -0.11523,0.21289 -0.0913,0.17611 -0.0301,0.0689 -0.10156,0.19336 -0.009,0.0166 -0.0305,0.0581 -0.0508,0.0977 0.008,-0.0165 0.0171,-0.0327 0.0156,-0.0234 -0.004,0.0271 -0.0201,0.0521 -0.0332,0.0762 -0.12493,0.22997 -0.1198,0.21847 -0.22266,0.37305 -0.0224,0.0289 -0.0414,0.0599 -0.0625,0.0898 -0.002,0.003 3.9e-4,0.009 -0.002,0.0117 -0.2227,0.37651 0.004,-0.005 -0.14844,0.22656 -0.01,0.0151 0.0221,-0.0306 0.0332,-0.0449 -0.0405,0.0594 -0.0806,0.11824 -0.12109,0.17774 0.009,-0.0108 0.0282,-0.0369 0.0352,-0.043 l 0.002,0.002 c -0.006,0.0324 -0.03,0.0585 -0.0449,0.0879 -0.006,0.0122 -0.0116,0.0251 -0.0176,0.0371 -0.0144,0.0267 -0.0419,0.0818 -0.0605,0.11719 -0.0577,0.14963 -0.0768,0.20095 -0.0605,0.16992 0.0389,-0.081 0.0823,-0.17537 0,0.0117 -10e-4,0.006 -5.4e-4,0.006 -0.002,0.0117 -0.0388,0.20833 7.1e-4,0.0169 -0.10937,0.39844 -0.002,0.006 0.005,-0.007 0.01,-0.0176 0.005,-0.0111 0.006,-0.0196 0.008,-0.0195 7.6e-4,-0.005 5.5e-4,-0.0105 0.002,-0.0156 3.7e-4,0.004 -3.5e-4,0.008 0,0.0117 0.0112,0.12309 0.007,0.24719 0.006,0.37109 0.003,0.005 0.006,0.0102 0.006,0.0137 -3.4e-4,0.003 -0.004,-0.003 -0.006,-0.006 -1.9e-4,0.0248 0.002,0.0495 0.002,0.0742 0.0221,0.0259 0.0402,0.0486 0.0469,0.0547 0.0252,0.023 -0.0184,-0.0641 -0.0254,-0.0976 0.002,0.004 0.006,0.0107 0.008,0.0137 0.0672,0.1498 0.006,0.0176 0.043,0.0957 0.0101,0.0226 0.0193,0.0436 0.0293,0.0664 0.0127,0.0303 0.0245,0.0615 0.0371,0.0918 0.0161,0.0387 0.0351,0.0764 0.0547,0.11329 0.011,0.0138 0.0217,0.0263 0.0312,0.041 0.0286,0.0434 0.0311,0.0468 0.0547,0.0859 0.0199,0.0264 0.029,0.0619 0.0547,0.084 h 0.002 l 0.002,-0.002 c 0.0172,0.015 0.0366,0.0254 0.0547,0.0391 0.0195,0.0147 0.0395,0.0297 0.0586,0.0449 0.0104,0.008 0.009,0.01 0.0137,0.0137 10e-4,4e-4 0.003,0.002 0.004,0.002 0.0256,0.009 0.0617,0.0216 0.0762,0.0273 0.01,0.003 0.0193,0.008 0.0293,0.0117 0.0176,0.007 0.0349,0.0164 0.0527,0.0234 0.0131,0.005 0.0276,0.009 0.041,0.0137 0.0244,0.008 0.0478,0.0171 0.0723,0.0254 0.007,4.4e-4 0.0144,6.9e-4 0.0215,0.002 0.005,-1.8e-4 0.009,2.7e-4 0.0137,0 v -0.0293 c 0.0163,0 0.0325,-7.5e-4 0.0488,0 0.0183,8e-4 0.0942,0.005 0.12109,0.01 0.0118,0.002 0.0235,0.005 0.0352,0.008 -0.005,6e-5 -0.0104,1.5e-4 -0.0156,0 0.0117,10e-4 0.0236,0.002 0.0351,0.004 0.003,6.2e-4 0.007,7.7e-4 0.01,0.002 0.003,7.5e-4 0.007,0.002 0.0117,0.004 0.0195,1.6e-4 0.039,0.002 0.0586,0.002 0.007,1.4e-4 0.0143,-1.5e-4 0.0215,0 0.002,-3.3e-4 0.004,-0.002 0.006,-0.002 0.0312,-0.003 0.062,-0.002 0.0937,-0.002 0.0339,-4.6e-4 0.0677,0.002 0.10157,0 0.004,-4.3e-4 0.005,5.1e-4 0.01,0 0.003,-3.9e-4 0.006,-7.2e-4 0.01,-0.002 0.007,-0.001 0.0135,-0.003 0.0195,-0.004 0.004,-8.9e-4 0.008,-7.2e-4 0.0117,-0.002 0.002,-4.3e-4 0.01,-0.002 0.0117,-0.002 0.001,-4.7e-4 0.003,4.8e-4 0.004,0 0.0445,-0.0192 0.088,-0.0396 0.13281,-0.0586 0.009,-0.004 0.0203,-0.008 0.0293,-0.0117 0.0388,-0.0141 0.0772,-0.0269 0.11524,-0.043 0.0282,-0.0119 0.0547,-0.0272 0.082,-0.041 0.15943,-0.0737 0.3224,-0.13881 0.48633,-0.20118 0.007,-0.004 0.0145,-0.006 0.0215,-0.01 10e-4,-5.8e-4 0.005,-5.8e-4 0.006,-0.002 0.002,-0.0184 0.0465,-0.0283 0.0547,-0.0274 0.26611,-0.1329 0.53864,-0.25478 0.8164,-0.36133 -0.0703,0.0504 -0.27475,0.18658 -0.20312,0.14453 0.0804,-0.0472 0.15563,-0.10325 0.23242,-0.15624 -0.008,0.003 -0.0156,0.005 -0.0234,0.008 0.008,-0.003 0.0155,-0.007 0.0234,-0.01 0.0126,-0.005 0.0345,-0.0147 0.0547,-0.0234 0.0195,-0.0124 0.0384,-0.0258 0.0586,-0.0371 0.0715,-0.0399 0.15056,-0.0613 0.22656,-0.0918 0.11477,-0.046 0.22107,-0.0982 0.32813,-0.16016 0.0373,-0.0173 0.0722,-0.0364 0.10742,-0.0566 39.58208,-35.20263 78.38661,-76.2081 114.23633,-124.26367 17.60693,-23.60114 34.79016,-49.62924 49.42773,-72.900392 -5.7e-4,-0.02817 0.002,-0.06726 0.006,-0.121094 -0.006,-0.163624 -0.0186,-0.327483 0.0215,-0.488281 1.8e-4,-0.102002 4.8e-4,-0.202687 0,-0.304688 -1.6e-4,-0.03528 2.3e-4,-0.07019 0,-0.105468 -0.001,-0.05374 -0.001,-0.10845 0.002,-0.16211 10e-4,-0.0139 3.6e-4,-0.02711 0.002,-0.04102 0.001,-0.01223 -0.0113,-0.04001 0.002,-0.03711 -0.002,-0.0079 -0.006,-0.01983 -0.006,-0.02344 -2.3e-4,-0.0026 2.2e-4,-0.0052 0,-0.0078 -0.023,-0.04186 -0.0465,-0.08861 -0.0801,-0.164062 -0.0279,-0.06265 -0.0481,-0.12846 -0.0703,-0.19336 -0.0146,-0.04264 -0.0301,-0.08466 -0.0391,-0.128906 -10e-4,-0.005 0.0137,-0.0031 0.0117,-0.0078 -0.01,-0.0269 -0.0268,-0.0494 -0.041,-0.07422 -0.0628,-0.08347 -0.16756,-0.213971 -0.25782,-0.351563 -0.17421,-0.0781 -0.30434,-0.137905 -0.54101,-0.263672 -0.0226,-0.0014 -0.0473,-0.0044 -0.082,-0.0039 z M 386.18359,291.21094 c -0.004,0.0139 -0.009,0.0288 -0.0117,0.043 -0.002,0.01 0.008,-0.0183 0.01,-0.0274 10e-4,-0.005 5.5e-4,-0.0105 0.002,-0.0156 z M 551.57031,91.609375 c -0.018,0.02266 -0.0368,0.04539 -0.0547,0.06836 0.0102,-0.0061 0.0211,-0.01131 0.0313,-0.01758 0.008,-0.01086 0.0222,-0.03029 0.0352,-0.04687 -0.004,-0.0015 -0.008,-0.0024 -0.0117,-0.0039 z m 2.14453,0.408203 c -7.7e-4,0.04419 0.042,0.07059 0.0977,0.08203 l -0.0742,-0.07227 c -0.002,-6.68e-4 -0.004,-0.0013 -0.006,-0.002 -0.006,-0.0021 -0.0117,-0.0056 -0.0176,-0.0078 z M 387.28125,288.94141 c -0.0332,0.0167 -0.0874,0.0439 -0.13477,0.0684 -0.008,0.007 -0.0156,0.0145 -0.0234,0.0215 0.0283,-0.0122 0.0591,-0.026 0.082,-0.0371 0.003,-0.002 0.0361,-0.0202 0.041,-0.0234 0.0213,-0.0177 0.018,-0.015 0.0352,-0.0293 z m -0.0449,0.0371 c -0.003,0.002 -0.009,0.006 -0.0117,0.008 10e-4,-6.9e-4 0.004,-5.8e-4 0.006,-0.002 0.004,-0.003 0.002,-0.003 0.006,-0.006 z m -0.96875,1.86914 c -0.005,0.011 -0.01,0.0218 -0.0137,0.0332 -0.003,0.008 -0.009,0.0314 -0.006,0.0234 0.007,-0.0184 0.0129,-0.0379 0.0195,-0.0566 z m -80.43555,62.81836 c -0.063,0.004 -0.12639,0.007 -0.18945,0.006 -0.0242,0.002 -0.0966,0.009 -0.10742,0.01 -0.002,0 0.016,-0.007 0,-0.004 -0.0257,0.005 -0.0505,0.0126 -0.0762,0.0176 -0.0147,0.003 -0.0301,0.006 -0.0449,0.008 -0.0371,0.003 -0.0741,0.006 -0.11133,0.008 -0.009,4.4e-4 -0.0127,1.2e-4 -0.0156,0 h -0.002 c -0.004,6.6e-4 -0.003,8e-4 -0.008,0.002 -0.002,3.3e-4 -0.004,1.7e-4 -0.006,0 -0.0138,0.003 -0.0273,0.006 -0.041,0.01 -0.009,0.003 -0.029,0.0135 -0.0293,0.0117 h -0.002 c -0.003,0.002 -0.006,0.008 -0.01,0.01 -0.0708,0.0304 -0.087,0.0321 -0.15429,0.0469 -0.0631,0.011 -0.18799,0.0323 -0.24219,0.043 -0.0624,0.0124 -0.12528,0.0257 -0.1875,0.0391 -0.0431,0.0238 -0.086,0.048 -0.12891,0.0723 -0.50855,0.25504 0.31994,-0.16546 -0.51758,0.29102 -0.0191,0.0104 -0.039,0.0196 -0.0586,0.0293 C 146.3301,462.68358 0.00390625,487.22266 0.00390625,487.22266 l 0.59765625,3.58203 c 0,0 147.7226575,-24.74067 306.3867175,-134.23828 0.002,-0.004 0.003,-0.008 0.01,-0.0274 0.0125,-0.0346 0.0314,-0.0656 0.0449,-0.0996 0.0104,-0.0191 0.0145,-0.0399 0.0215,-0.0605 0.026,-0.0796 0.005,-0.0213 0.0332,-0.0957 0.006,-0.0155 0.0116,-0.0294 0.0176,-0.0449 9e-4,-0.002 0.0185,-0.0467 0.0215,-0.0547 0.003,-0.009 0.005,-0.0183 0.008,-0.0273 0.008,-0.0225 0.0174,-0.0454 0.0234,-0.0684 0.0135,-0.0397 0.006,-0.0192 0.0215,-0.0586 0.006,-0.0163 0.0106,-0.0362 0.0156,-0.0527 0.003,-0.01 0.008,-0.0197 0.0117,-0.0293 0.002,-0.004 0.004,-0.008 0.006,-0.0117 v -0.002 c 10e-4,-0.006 0.003,-0.0117 0.004,-0.0176 0.002,-0.008 0.004,-0.0155 0.006,-0.0234 -3e-5,5e-5 0.002,-0.01 0.002,-0.01 5e-5,-10e-4 -7.4e-4,-10e-4 0.008,-0.0508 0.003,-0.0145 0.008,-0.0284 0.01,-0.043 0.005,-0.0352 0.008,-0.0704 0.0137,-0.10547 0.01,-0.0678 0.0214,-0.13657 0.0254,-0.20507 10e-4,-0.009 0.002,-0.0183 0.002,-0.0274 3.8e-4,-0.0121 -1e-5,-0.025 0,-0.0371 2e-5,-0.0326 1.5e-4,-0.065 0,-0.0976 -7e-5,-0.0124 -8e-5,-0.0248 0,-0.0371 3e-5,-0.005 -1.4e-4,-0.009 0,-0.0137 10e-5,-0.003 -2.1e-4,-0.005 0,-0.008 5.9e-4,0.004 10e-4,0.008 0.002,0.0117 0.004,-0.007 0.008,-0.014 0.0117,-0.0215 -0.005,10e-4 -0.0104,0.003 -0.0156,0.004 -0.003,-0.0262 -0.006,-0.0534 -0.008,-0.0801 -0.0281,-0.0772 -0.0607,-0.15331 -0.0781,-0.23243 -9.9e-4,-0.007 0.0196,0.0177 0.0176,0.0117 -0.0189,-0.0568 -0.13815,-0.31645 -0.15235,-0.34765 -0.007,-0.0209 -0.0401,-0.0771 -0.0234,-0.0625 -0.049,-0.0685 -0.0615,-0.0861 -0.2168,-0.29883 -0.0219,-0.0338 -0.043,-0.0675 -0.0645,-0.10157 -0.18948,-0.11389 -0.20069,-0.11561 -0.4375,-0.30468 -0.0112,-0.009 -0.0217,-0.0193 -0.0312,-0.0293 -0.0157,-0.006 -0.0105,-0.005 -0.0371,-0.0156 -0.0125,-0.005 -0.0249,-0.0101 -0.0371,-0.0156 -0.006,-0.002 -0.0133,-0.004 -0.0195,-0.006 -0.0648,0.011 -0.12441,0.0173 -0.13867,-0.0176 -0.0195,-0.003 -0.0329,-0.0106 -0.0332,-0.0273 -0.0394,-0.0112 -0.0777,-0.0233 -0.11133,-0.0352 -0.002,-7.4e-4 -0.004,-5e-4 -0.006,-0.002 -0.026,-0.006 -0.0495,-0.014 -0.0781,-0.0215 z m 1.49024,1.625 c -0.006,10e-4 -0.0116,0.003 -0.0176,0.004 0.008,0.0183 0.0186,0.0373 0.0332,0.0527 -0.003,-0.008 -0.005,-0.0178 -0.006,-0.0215 h 0.002 c -0.004,-0.0115 -0.007,-0.0236 -0.0117,-0.0351 z" />
    <path
       d="m 828,243 c 0,-3.866 3.134,-7 7,-7 3.866,0 7,3.134 7,7 0,3.866 -3.134,7 -7,7 -3.866,0 -7,-3.134 -7,-7 z"
       fill-rule="evenodd"
       id="path263"
       style="display:inline;fill:#ffffff" />
    <g
       aria-label="pente = f'(x)"
       transform="rotate(-53.307188,-1.4847444,3.8117181)"
       id="text42064-2-7"
       style="font-style:italic;font-size:37.3333px;line-height:1.25;font-family:'TeX Gyre Termes';-inkscape-font-specification:'TeX Gyre Termes Italic';letter-spacing:0.9px;display:inline;fill:#ffffff">
      <path
         d="m 44.84109,802.87665 q 1.978665,0 2.426664,-0.26133 0.485333,-0.224 0.485333,-1.41867 v -17.47198 q 0,-1.232 -0.485333,-1.53067 -0.447999,-0.336 -2.426664,-0.336 v -1.15733 L 50.217085,780.29 v 2.464 q 2.239998,-2.464 5.226662,-2.464 3.173331,0 5.487996,2.464 2.314664,2.464 2.314664,5.97333 0,3.54666 -2.463998,6.01066 -2.463997,2.464 -5.861328,2.464 -1.866665,0 -3.135997,-0.93334 -1.231999,-0.97066 -1.455999,-1.67999 v 0.336 6.27199 q 0,1.19467 0.448,1.41867 0.485333,0.26133 2.463998,0.26133 v 1.15733 q -3.919997,-0.112 -4.218663,-0.112 -0.373334,0 -4.18133,0.112 z m 5.487995,-10.34133 q 0,0.56 0.07467,0.784 0.07467,0.18667 0.447999,0.784 1.493332,2.27733 3.919997,2.27733 2.127998,0 3.73333,-2.16533 1.642665,-2.20266 1.642665,-5.48799 0,-3.136 -1.493332,-5.30133 -1.455998,-2.20267 -3.50933,-2.20267 -1.455999,0 -2.725331,0.784 -1.269332,0.784 -2.090665,2.20267 z"
         style="font-style:normal;font-family:'CMU Serif';-inkscape-font-specification:'CMU Serif Italic';fill:#ffffff"
         id="path334810" />
      <path
         d="m 67.506341,788.57799 q 0,-3.50933 2.239998,-6.01066 2.277331,-2.50133 5.525328,-2.50133 3.285331,0 4.965329,2.128 1.717332,2.128 1.717332,5.18933 0,0.56 -0.149333,0.672 -0.149333,0.112 -0.783999,0.112 H 70.605005 q 0,3.80799 1.119999,5.59999 1.567998,2.50133 4.218663,2.50133 0.373333,0 0.783999,-0.0747 0.448,-0.0747 1.343999,-0.37334 0.895999,-0.33599 1.679998,-1.19466 0.784,-0.85867 1.231999,-2.20267 0.112,-0.52266 0.485333,-0.52266 0.485333,0 0.485333,0.448 0,0.336 -0.373333,1.08266 -0.336,0.70934 -1.007999,1.60534 -0.671999,0.85866 -1.978665,1.53066 -1.306665,0.63467 -2.874664,0.63467 -3.285331,0 -5.749329,-2.464 -2.463997,-2.50133 -2.463997,-6.16 z m 3.135997,-1.19466 h 8.847992 q 0,-0.784 -0.149333,-1.64267 -0.112,-0.896 -0.522666,-2.09066 -0.373333,-1.232 -1.306666,-1.97867 -0.895999,-0.784 -2.239998,-0.784 -0.597333,0 -1.269332,0.26134 -0.634666,0.26133 -1.418665,0.896 -0.784,0.59733 -1.343999,2.01599 -0.522667,1.38134 -0.597333,3.32267 z"
         style="font-style:normal;font-family:'CMU Serif';-inkscape-font-specification:'CMU Serif Italic';fill:#ffffff"
         id="path334812" />
      <path
         d="m 85.131597,796.79132 v -1.15733 q 1.978665,0 2.426665,-0.224 0.485333,-0.26133 0.485333,-1.456 v -10.00532 q 0,-1.38134 -0.485333,-1.71734 -0.485333,-0.37333 -2.426665,-0.37333 v -1.15733 L 90.395593,780.29 v 3.92 q 1.754665,-3.92 5.525328,-3.92 2.799998,0 3.919997,1.38133 0.821332,0.93334 0.970662,1.97867 0.18667,1.04533 0.18667,3.73333 v 7.13066 q 0.0373,0.784 0.63467,0.97067 0.59733,0.14933 2.27733,0.14933 v 1.15733 q -3.808,-0.112 -4.181332,-0.112 -0.298666,0 -4.218663,0.112 v -1.15733 q 1.978665,0 2.426665,-0.224 0.485333,-0.26133 0.485333,-1.456 v -8.69866 q 0,-1.904 -0.597333,-3.024 -0.56,-1.12 -2.165332,-1.12 -1.941331,0 -3.50933,1.64267 -1.530665,1.60533 -1.530665,4.33066 v 6.86933 q 0,1.19467 0.447999,1.456 0.485333,0.224 2.463998,0.224 v 1.15733 q -3.807997,-0.112 -4.18133,-0.112 -0.298666,0 -4.218663,0.112 z"
         style="font-style:normal;font-family:'CMU Serif';-inkscape-font-specification:'CMU Serif Italic';fill:#ffffff"
         id="path334814" />
      <path
         d="m 105.22079,781.858 v -0.82133 q 1.71733,-0.0747 2.83733,-1.26933 1.15733,-1.232 1.53066,-2.72534 0.41067,-1.49333 0.448,-3.21066 h 0.93334 v 6.86933 h 5.33866 v 1.15733 h -5.33866 v 10.37866 q 0,4.03199 2.50133,4.03199 1.08266,0 1.792,-1.08266 0.70933,-1.12 0.70933,-3.09867 v -2.05333 h 0.93333 v 2.128 q 0,2.016 -0.93333,3.54667 -0.93333,1.49333 -2.76267,1.49333 -0.67199,0 -1.34399,-0.18667 -0.672,-0.14933 -1.53067,-0.59733 -0.85867,-0.448 -1.41866,-1.53067 -0.52267,-1.12 -0.52267,-2.72533 V 781.858 Z"
         style="font-style:normal;font-family:'CMU Serif';-inkscape-font-specification:'CMU Serif Italic';fill:#ffffff"
         id="path334816" />
      <path
         d="m 120.94206,788.57799 q 0,-3.50933 2.24,-6.01066 2.27733,-2.50133 5.52532,-2.50133 3.28533,0 4.96533,2.128 1.71733,2.128 1.71733,5.18933 0,0.56 -0.14933,0.672 -0.14933,0.112 -0.784,0.112 h -10.41599 q 0,3.80799 1.12,5.59999 1.568,2.50133 4.21866,2.50133 0.37334,0 0.784,-0.0747 0.448,-0.0747 1.344,-0.37334 0.896,-0.33599 1.68,-1.19466 0.784,-0.85867 1.232,-2.20267 0.112,-0.52266 0.48533,-0.52266 0.48533,0 0.48533,0.448 0,0.336 -0.37333,1.08266 -0.336,0.70934 -1.008,1.60534 -0.672,0.85866 -1.97866,1.53066 -1.30667,0.63467 -2.87467,0.63467 -3.28533,0 -5.74932,-2.464 -2.464,-2.50133 -2.464,-6.16 z m 3.13599,-1.19466 h 8.848 q 0,-0.784 -0.14934,-1.64267 -0.112,-0.896 -0.52266,-2.09066 -0.37334,-1.232 -1.30667,-1.97867 -0.896,-0.784 -2.24,-0.784 -0.59733,0 -1.26933,0.26134 -0.63466,0.26133 -1.41866,0.896 -0.784,0.59733 -1.344,2.01599 -0.52267,1.38134 -0.59734,3.32267 z"
         style="font-style:normal;font-family:'CMU Serif';-inkscape-font-specification:'CMU Serif Italic';fill:#ffffff"
         id="path334818" />
      <path
         d="m 152.83257,791.11666 q 0.0373,-0.448 0.74666,-0.448 h 22.88532 q 1.08266,0 1.08266,0.41067 0,0.448 -1.00799,0.448 h -22.69865 q -1.008,0 -1.008,-0.41067 z m 0,-7.27999 q 0,-0.448 0.784,-0.448 h 22.81065 q 1.11999,0 1.11999,0.448 0,0.41066 -0.93333,0.41066 h -23.03465 q -0.74666,0 -0.74666,-0.41066 z"
         style="font-style:normal;font-family:'CMU Serif';-inkscape-font-specification:'CMU Serif Italic';fill:#ffffff"
         id="path334820" />
      <path
         d="m 193.04848,801.98065 q 0,-0.93333 0.55999,-1.49333 0.56,-0.56 1.30667,-0.56 0.48533,0 0.85867,0.29866 0.41066,0.336 0.41066,0.896 0,0.63467 -0.448,1.15734 -0.41066,0.52266 -1.19466,0.672 0.48533,0.67199 1.49333,0.67199 1.38133,0 2.128,-3.21066 0.448,-1.60533 1.04533,-4.62933 L 201.9338,781.858 h -2.31466 q -0.93334,0 -0.93334,-0.41067 0,-0.52266 0.224,-0.63466 0.224,-0.112 0.784,-0.112 h 2.464 l 0.784,-4.10667 q 1.26933,-6.12266 4.85333,-6.12266 1.232,0 2.128,0.672 0.93333,0.63467 0.93333,1.792 0,0.93333 -0.56,1.49333 -0.56,0.56 -1.30667,0.56 -0.48533,0 -0.89599,-0.29866 -0.37334,-0.336 -0.37334,-0.896 0,-0.63467 0.41067,-1.15734 0.448,-0.52266 1.232,-0.67199 -0.56,-0.672 -1.568,-0.672 -0.63467,0 -1.08267,0.63466 -0.448,0.63467 -0.59733,1.19467 -0.14933,0.52266 -0.37333,1.53066 -0.448,2.016 -1.19467,6.048 h 2.912 q 0.37333,0 0.52267,0.0373 0.18666,0 0.29866,0.112 0.112,0.112 0.112,0.336 0,0.448 -0.224,0.56 -0.224,0.112 -0.784,0.112 h -3.06133 l -2.61333,13.40266 q -0.224,1.08266 -0.52267,2.09066 -0.26133,1.04533 -0.93333,2.912 -0.672,1.86666 -1.792,3.024 -1.08266,1.15733 -2.42666,1.15733 -1.15733,0 -2.05333,-0.672 -0.93333,-0.63467 -0.93333,-1.792 z"
         id="path334822"
         style="fill:#ffffff" />
      <path
         d="m 214.85511,783.65 q 0,-0.112 0.0747,-0.56 0.0747,-0.48533 0.0747,-0.59733 l 1.53067,-9.632 0.0373,-0.26133 q 0.0373,-0.29867 0.0747,-0.48533 0.0747,-0.224 0.18666,-0.52267 0.14934,-0.336 0.29867,-0.56 0.18667,-0.224 0.52267,-0.37333 0.336,-0.18667 0.74666,-0.18667 h 0.0373 q 0.55999,0 0.93333,0.336 0.37333,0.29867 0.37333,0.85867 0,0.224 -0.29867,1.232 l -3.69599,10.71466 q -0.18667,0.55999 -0.48534,0.55999 -0.41066,0 -0.41066,-0.52266 z"
         id="path334824"
         style="fill:#ffffff" />
      <path
         d="m 222.36308,787.458 q 0,-6.30933 2.35199,-11.38666 1.008,-2.128 2.38934,-3.92 1.41866,-1.792 2.35199,-2.576 0.93334,-0.784 1.19467,-0.784 0.37333,0 0.37333,0.37334 0,0.18666 -0.48533,0.63466 -6.01066,6.12267 -6.01066,17.65866 0,11.57332 5.86133,17.47198 0.63466,0.63467 0.63466,0.82133 0,0.37334 -0.37333,0.37334 -0.26133,0 -1.15733,-0.74667 -0.896,-0.74667 -2.27733,-2.464 -1.38134,-1.71733 -2.38934,-3.80799 -2.46399,-5.07733 -2.46399,-11.64799 z"
         style="font-style:normal;font-family:'CMU Serif';-inkscape-font-specification:'CMU Serif Italic';fill:#ffffff"
         id="path334826" />
      <path
         d="m 236.03101,794.88732 q 0,-0.896 0.56,-1.456 0.56,-0.56 1.30667,-0.56 1.26933,0 1.26933,1.19467 0,0.52267 -0.37333,1.08267 -0.336,0.52266 -1.08267,0.70933 0.63467,0.52266 1.64267,0.52266 0.784,0 1.38133,-0.448 0.63467,-0.44799 1.04533,-1.38133 0.448,-0.93333 0.672,-1.64266 0.224,-0.74667 0.52267,-1.94133 0.448,-1.82934 0.85866,-3.39733 0.784,-3.21067 0.784,-4.10667 0,-1.12 -0.48533,-1.71733 -0.48533,-0.63467 -1.30667,-0.63467 -1.23199,0 -2.50133,1.19467 -1.232,1.19467 -1.94133,3.472 -0.14933,0.448 -0.224,0.56 -0.0747,0.0747 -0.448,0.0747 -0.56,0 -0.56,-0.37333 0,-0.37333 0.37334,-1.26933 0.41066,-0.896 1.08266,-1.904 0.672,-1.04533 1.82933,-1.792 1.15734,-0.784 2.464,-0.784 2.65067,0 3.584,2.53867 0.448,-0.85867 1.38133,-1.68 0.93333,-0.85867 2.27733,-0.85867 1.12,0 2.16533,0.56 1.08267,0.52267 1.08267,1.792 0,0.97067 -0.59733,1.49333 -0.59734,0.48533 -1.232,0.48533 -0.672,0 -1.008,-0.37333 -0.29867,-0.37333 -0.29867,-0.82133 0,-0.18667 0.0373,-0.41067 0.0373,-0.26133 0.41066,-0.74666 0.37333,-0.48534 1.04533,-0.63467 -0.59733,-0.52267 -1.64266,-0.52267 -2.20267,0 -3.28533,3.99467 -0.85867,3.62133 -1.26933,5.11466 -0.70934,3.024 -0.70934,3.77066 0,1.30667 0.52267,1.86667 0.52267,0.52266 1.232,0.52266 1.26933,0 2.50133,-1.19466 1.232,-1.19467 1.94133,-3.472 0.14933,-0.448 0.224,-0.52266 0.112,-0.112 0.448,-0.112 0.56,0 0.56,0.37333 0,0.336 -0.37333,1.232 -0.37334,0.85866 -1.04534,1.904 -0.67199,1.04533 -1.82933,1.82933 -1.15733,0.784 -2.50133,0.784 -1.008,0 -2.05333,-0.56 -1.008,-0.56 -1.49333,-1.97867 -1.456,2.53867 -3.65867,2.53867 -1.34399,0 -2.31466,-0.63467 -0.97067,-0.63467 -0.97067,-1.68 z"
         id="path334828"
         style="fill:#ffffff" />
      <path
         d="m 254.36563,805.75131 q 0,-0.18666 0.48534,-0.63466 6.01066,-6.12266 6.01066,-17.65865 0,-11.57333 -5.78666,-17.43466 -0.70934,-0.672 -0.70934,-0.85866 0,-0.37334 0.37334,-0.37334 0.26133,0 1.15733,0.74667 0.896,0.74667 2.27733,2.464 1.38133,1.71733 2.38933,3.808 2.464,5.07732 2.464,11.64799 0,6.30932 -2.352,11.38665 -1.008,2.128 -2.42666,3.92 -1.38133,1.792 -2.31467,2.576 -0.93333,0.784 -1.19466,0.784 -0.37334,0 -0.37334,-0.37334 z"
         style="font-style:normal;font-family:'CMU Serif';-inkscape-font-specification:'CMU Serif Italic';fill:#ffffff"
         id="path334830" />
    </g>
  </g>
</svg>
