<?xml version="1.0" encoding="UTF-8" standalone="no"?>
<svg
   width="593.58704"
   height="490.7912"
   overflow="hidden"
   version="1.1"
   id="svg269"
   sodipodi:docname="inter-4.svg"
   inkscape:version="1.1.2 (0a00cf5339, 2022-02-04)"
   xmlns:inkscape="http://www.inkscape.org/namespaces/inkscape"
   xmlns:sodipodi="http://sodipodi.sourceforge.net/DTD/sodipodi-0.dtd"
   xmlns="http://www.w3.org/2000/svg"
   xmlns:svg="http://www.w3.org/2000/svg">
  <sodipodi:namedview
     id="namedview271"
     pagecolor="#505050"
     bordercolor="#eeeeee"
     borderopacity="1"
     inkscape:pageshadow="0"
     inkscape:pageopacity="0"
     inkscape:pagecheckerboard="0"
     showgrid="false"
     inkscape:zoom="1.7965736"
     inkscape:cx="519.8785"
     inkscape:cy="241.84926"
     inkscape:window-width="3440"
     inkscape:window-height="1440"
     inkscape:window-x="0"
     inkscape:window-y="0"
     inkscape:window-maximized="0"
     inkscape:current-layer="g267"
     fit-margin-top="0"
     fit-margin-left="0"
     fit-margin-right="0"
     fit-margin-bottom="0"
     units="mm" />
  <defs
     id="defs175">
    <clipPath
       id="clip0">
      <rect
         x="334"
         y="76"
         width="656"
         height="568"
         id="rect172" />
    </clipPath>
  </defs>
  <g
     clip-path="url(#clip0)"
     transform="translate(-334,-76)"
     id="g267"
     style="display:inline">
    <path
       d="M 837,489 V 242"
       stroke="#0000ff"
       stroke-width="2.49795"
       stroke-miterlimit="8"
       stroke-dasharray="9.99181, 7.49386"
       fill="none"
       fill-rule="evenodd"
       id="path177"
       style="display:none" />
    <path
       d="M 393,519 V 99"
       stroke="#000000"
       stroke-width="2.49795"
       stroke-miterlimit="8"
       fill="none"
       fill-rule="evenodd"
       id="path179"
       style="display:none;stroke:#ffffff;stroke-opacity:1" />
    <path
       d="M 383,104 393.004,76 403,104 Z"
       fill-rule="evenodd"
       id="path181"
       style="display:none;fill:#ffffff" />
    <path
       d="M 334,490 H 902"
       stroke="#000000"
       stroke-width="2.49795"
       stroke-miterlimit="8"
       fill="none"
       fill-rule="evenodd"
       id="path183"
       style="display:none;fill:#ffffff;stroke:#ffffff;stroke-opacity:1" />
    <path
       d="M 898,480 925,490.004 898,500 Z"
       fill-rule="evenodd"
       id="path185"
       style="display:none;fill:#ffffff" />
    <path
       d="M 624.53168,524.7244 873.83966,191.45463"
       stroke="#ff0000"
       stroke-width="2.49795"
       stroke-miterlimit="8"
       fill="none"
       fill-rule="evenodd"
       id="path187"
       style="display:none;stroke-width:2.498;stroke-miterlimit:8;stroke-dasharray:none" />
    <path
       d="m 334,565 c 0,0 178.82224,-29.90166 354.14235,-169.91911 C 739.44752,354.10659 790.45278,303.70236 836.589,241.858 882.232,180.676 926,102 926,102"
       stroke="#0000ff"
       stroke-width="2.49795"
       stroke-miterlimit="8"
       fill="none"
       fill-rule="evenodd"
       id="path189"
       sodipodi:nodetypes="cscc"
       style="display:none;stroke:#0052ff;stroke-width:3.63213;stroke-miterlimit:8;stroke-dasharray:none;stroke-opacity:1" />
    <text
       font-family="'Cambria Math', 'Cambria Math_MSFontService', sans-serif"
       font-weight="400"
       font-size="21px"
       id="text243"
       transform="translate(672.913,479)"
       style="display:none" />
    <text
       font-family="'Cambria Math', 'Cambria Math_MSFontService', sans-serif"
       font-weight="400"
       font-size="21px"
       transform="translate(513.134,313)"
       id="text247"
       style="display:none" />
    <text
       font-family="'Cambria Math', 'Cambria Math_MSFontService', sans-serif"
       font-weight="400"
       font-size="21px"
       transform="rotate(-53.653931,677.27383,-725.46838)"
       id="text261"
       style="display:none" />
    <path
       d="m 828,243 c 0,-3.866 3.134,-7 7,-7 3.866,0 7,3.134 7,7 0,3.866 -3.134,7 -7,7 -3.866,0 -7,-3.134 -7,-7 z"
       fill-rule="evenodd"
       id="path263"
       style="display:none;fill:#ffffff" />
    <path
       d="m 643,490.5 c 0,-3.59 3.134,-6.5 7,-6.5 3.866,0 7,2.91 7,6.5 0,3.59 -3.134,6.5 -7,6.5 -3.866,0 -7,-2.91 -7,-6.5 z"
       fill-rule="evenodd"
       id="path265"
       style="display:none;fill:#ffffff" />
    <path
       d="m 830.43915,490.45567 c 0,-3.59 3.134,-6.5 7,-6.5 3.866,0 7,2.91 7,6.5 0,3.59 -3.134,6.5 -7,6.5 -3.866,0 -7,-2.91 -7,-6.5 z"
       fill-rule="evenodd"
       id="path265-9"
       style="display:none;fill:#ffffff" />
    <text
       xml:space="preserve"
       style="font-style:normal;font-variant:normal;font-weight:normal;font-stretch:normal;font-size:40px;line-height:1.25;font-family:'DejaVu Math TeX Gyre';-inkscape-font-specification:'DejaVu Math TeX Gyre';display:none"
       x="656.05884"
       y="510.57864"
       id="text40388"><tspan
         sodipodi:role="line"
         id="tspan40386"
         x="656.05884"
         y="510.57864" /></text>
    <g
       aria-label="g(x)"
       id="text42064"
       style="font-style:italic;font-size:37.3333px;line-height:1.25;font-family:'TeX Gyre Termes';-inkscape-font-specification:'TeX Gyre Termes Italic';letter-spacing:0.01px;display:none;fill:#ffffff">
      <path
         d="m 650.62088,527.02163 q 0,-0.97067 0.59733,-1.49334 0.59733,-0.48533 1.232,-0.48533 0.672,0 0.97066,0.37333 0.336,0.37334 0.336,0.82134 0,0.48533 -0.336,0.97066 -0.336,0.52267 -0.85866,0.74667 1.008,0.41066 2.65066,0.41066 2.05333,0 3.54667,-1.75466 0.74666,-0.896 1.04533,-1.64267 0.29867,-0.74666 0.672,-2.27733 l 0.784,-3.13599 q -1.97867,1.97866 -3.95733,1.97866 -2.05333,0 -3.32267,-1.64266 -1.23199,-1.64267 -1.23199,-4.06933 0,-3.95733 2.65066,-7.35467 2.688,-3.43466 5.82399,-3.43466 2.09067,0 3.136,2.128 0.112,-0.70933 0.56,-1.04533 0.448,-0.336 0.896,-0.336 1.008,0 1.008,0.97066 0,0.224 -0.14933,0.784 l -4.06933,16.35199 q -0.56,2.24 -2.61333,3.77066 -2.016,1.53067 -4.85333,1.53067 -4.51733,0 -4.51733,-2.16533 z m 4.66666,-9.55733 q 0,0.336 0.0373,0.70933 0.0747,0.37334 0.224,1.04534 0.18667,0.63466 0.63467,1.08266 0.48533,0.41067 1.19466,0.41067 1.38134,0 2.87467,-1.49333 1.49333,-1.53067 1.75466,-2.61334 l 1.68,-6.79466 0.112,-0.52266 q 0,-0.224 -0.112,-0.672 -0.0747,-0.48533 -0.336,-1.12 -0.224,-0.672 -0.784,-1.15733 -0.56,-0.48534 -1.344,-0.48534 -1.04533,0 -2.20266,1.08267 -1.12,1.04533 -1.82933,2.61333 -0.59733,1.38133 -1.26933,3.99466 -0.63467,2.61333 -0.63467,3.92 z"
         style="font-family:'CMU Serif';-inkscape-font-specification:'CMU Serif Italic';fill:#ffffff"
         id="path281964" />
      <path
         d="m 669.52149,512.2003 q 0,-6.30932 2.352,-11.38665 1.008,-2.128 2.38933,-3.92 1.41867,-1.792 2.352,-2.576 0.93333,-0.784 1.19467,-0.784 0.37333,0 0.37333,0.37334 0,0.18666 -0.48533,0.63466 -6.01066,6.12266 -6.01066,17.65865 0,11.57333 5.86132,17.47199 0.63467,0.63467 0.63467,0.82133 0,0.37334 -0.37333,0.37334 -0.26134,0 -1.15734,-0.74667 -0.896,-0.74667 -2.27733,-2.464 -1.38133,-1.71733 -2.38933,-3.80799 -2.464,-5.07733 -2.464,-11.648 z"
         style="font-style:normal;fill:#ffffff"
         id="path281966" />
      <path
         d="m 678.6434,519.34877 q 0,-0.896 0.56,-1.456 0.56,-0.56 1.30666,-0.56 1.26934,0 1.26934,1.19467 0,0.52267 -0.37334,1.08267 -0.336,0.52266 -1.08266,0.70933 0.63466,0.52266 1.64266,0.52266 0.784,0 1.38134,-0.448 0.63466,-0.448 1.04533,-1.38133 0.448,-0.93333 0.672,-1.64266 0.224,-0.74667 0.52266,-1.94133 0.448,-1.82934 0.85867,-3.39734 0.784,-3.21066 0.784,-4.10666 0,-1.12 -0.48533,-1.71733 -0.48534,-0.63467 -1.30667,-0.63467 -1.232,0 -2.50133,1.19467 -1.232,1.19467 -1.94133,3.472 -0.14934,0.448 -0.224,0.56 -0.0747,0.0747 -0.448,0.0747 -0.56,0 -0.56,-0.37333 0,-0.37333 0.37333,-1.26933 0.41067,-0.896 1.08267,-1.904 0.672,-1.04533 1.82933,-1.792 1.15733,-0.784 2.464,-0.784 2.65066,0 3.58399,2.53867 0.448,-0.85867 1.38134,-1.68 0.93333,-0.85867 2.27733,-0.85867 1.12,0 2.16533,0.56 1.08266,0.52267 1.08266,1.792 0,0.97066 -0.59733,1.49333 -0.59733,0.48533 -1.232,0.48533 -0.672,0 -1.008,-0.37333 -0.29866,-0.37333 -0.29866,-0.82133 0,-0.18667 0.0373,-0.41067 0.0373,-0.26133 0.41067,-0.74666 0.37333,-0.48534 1.04533,-0.63467 -0.59733,-0.52267 -1.64267,-0.52267 -2.20266,0 -3.28533,3.99467 -0.85866,3.62133 -1.26933,5.11466 -0.70933,3.024 -0.70933,3.77066 0,1.30667 0.52266,1.86667 0.52267,0.52266 1.232,0.52266 1.26934,0 2.50134,-1.19466 1.23199,-1.19467 1.94133,-3.472 0.14933,-0.448 0.224,-0.52266 0.112,-0.112 0.448,-0.112 0.56,0 0.56,0.37333 0,0.336 -0.37334,1.232 -0.37333,0.85866 -1.04533,1.904 -0.672,1.04533 -1.82933,1.82933 -1.15733,0.784 -2.50133,0.784 -1.008,0 -2.05333,-0.56 -1.008,-0.56 -1.49334,-1.97867 -1.456,2.53867 -3.65866,2.53867 -1.344,0 -2.31466,-0.63467 -0.97067,-0.63467 -0.97067,-1.68 z"
         id="path281968"
         style="fill:#ffffff" />
      <path
         d="m 696.08803,530.21276 q 0,-0.18666 0.48533,-0.63466 6.01066,-6.12266 6.01066,-17.65866 0,-11.57332 -5.78666,-17.43465 -0.70933,-0.672 -0.70933,-0.85866 0,-0.37334 0.37333,-0.37334 0.26133,0 1.15733,0.74667 0.896,0.74667 2.27733,2.464 1.38134,1.71733 2.38933,3.80799 2.464,5.07733 2.464,11.64799 0,6.30933 -2.352,11.38666 -1.00799,2.128 -2.42666,3.92 -1.38133,1.792 -2.31466,2.576 -0.93334,0.784 -1.19467,0.784 -0.37333,0 -0.37333,-0.37334 z"
         style="font-style:normal;fill:#ffffff"
         id="path281970" />
    </g>
    <g
       aria-label="f"
       id="text42064-3"
       style="font-style:italic;font-size:37.3333px;line-height:1.25;font-family:'TeX Gyre Termes';-inkscape-font-specification:'TeX Gyre Termes Italic';display:none">
      <path
         d="m 882.89695,128.14359 q 0,-0.93333 0.56,-1.49333 0.56,-0.56 1.30666,-0.56 0.48534,0 0.85867,0.29866 0.41066,0.336 0.41066,0.896 0,0.63467 -0.44799,1.15734 -0.41067,0.52266 -1.19467,0.67199 0.48533,0.672 1.49333,0.672 1.38133,0 2.128,-3.21066 0.448,-1.60533 1.04533,-4.62933 l 2.72533,-13.92532 h -2.31466 q -0.93333,0 -0.93333,-0.41067 0,-0.52266 0.224,-0.63466 0.224,-0.112 0.784,-0.112 h 2.46399 l 0.784,-4.10667 q 1.26933,-6.122662 4.85333,-6.122662 1.232,0 2.128,0.672 0.93333,0.634666 0.93333,1.791998 0,0.933334 -0.56,1.493334 -0.56,0.56 -1.30666,0.56 -0.48534,0 -0.896,-0.29867 -0.37333,-0.336 -0.37333,-0.895998 0,-0.634666 0.41066,-1.157332 0.448,-0.522666 1.232,-0.672 -0.56,-0.671999 -1.568,-0.671999 -0.63466,0 -1.08266,0.634666 -0.448,0.634666 -0.59734,1.194666 -0.14933,0.522666 -0.37333,1.530667 -0.448,2.016 -1.19467,6.048 h 2.912 q 0.37333,0 0.52267,0.0373 0.18666,0 0.29866,0.112 0.112,0.112 0.112,0.336 0,0.448 -0.224,0.56 -0.224,0.112 -0.78399,0.112 h -3.06134 l -2.61333,13.40265 q -0.224,1.08267 -0.52266,2.09067 -0.26134,1.04533 -0.93334,2.912 -0.67199,1.86666 -1.79199,3.02399 -1.08267,1.15734 -2.42667,1.15734 -1.15733,0 -2.05333,-0.672 -0.93333,-0.63467 -0.93333,-1.792 z"
         style="font-family:'CMU Serif';-inkscape-font-specification:'CMU Serif Italic';fill:#ffffff"
         id="path96655" />
    </g>
    <g
       aria-label="x0 "
       id="text42064-9"
       style="font-style:italic;font-size:37.3333px;line-height:1.25;font-family:'TeX Gyre Termes';-inkscape-font-specification:'TeX Gyre Termes Italic';letter-spacing:0.04px;display:none;fill:#ffffff">
      <path
         d="m 828.30864,517.61975 q 0,-0.896 0.56,-1.456 0.56,-0.56 1.30667,-0.56 1.26933,0 1.26933,1.19467 0,0.52266 -0.37333,1.08266 -0.336,0.52267 -1.08267,0.70934 0.63467,0.52266 1.64267,0.52266 0.784,0 1.38133,-0.448 0.63466,-0.448 1.04533,-1.38133 0.448,-0.93333 0.672,-1.64266 0.224,-0.74667 0.52267,-1.94134 0.448,-1.82933 0.85866,-3.39733 0.784,-3.21066 0.784,-4.10666 0,-1.12 -0.48533,-1.71733 -0.48533,-0.63467 -1.30667,-0.63467 -1.232,0 -2.50133,1.19467 -1.232,1.19466 -1.94133,3.47199 -0.14933,0.448 -0.224,0.56 -0.0747,0.0747 -0.448,0.0747 -0.56,0 -0.56,-0.37333 0,-0.37334 0.37333,-1.26933 0.41067,-0.896 1.08267,-1.904 0.672,-1.04534 1.82933,-1.792 1.15733,-0.784 2.464,-0.784 2.65066,0 3.584,2.53866 0.448,-0.85866 1.38133,-1.67999 0.93333,-0.85867 2.27733,-0.85867 1.12,0 2.16533,0.56 1.08267,0.52266 1.08267,1.792 0,0.97066 -0.59734,1.49333 -0.59733,0.48533 -1.23199,0.48533 -0.672,0 -1.008,-0.37333 -0.29867,-0.37333 -0.29867,-0.82133 0,-0.18667 0.0373,-0.41067 0.0373,-0.26133 0.41067,-0.74667 0.37333,-0.48533 1.04533,-0.63466 -0.59733,-0.52267 -1.64266,-0.52267 -2.20267,0 -3.28533,3.99467 -0.85867,3.62133 -1.26934,5.11466 -0.70933,3.02399 -0.70933,3.77066 0,1.30667 0.52267,1.86667 0.52266,0.52266 1.232,0.52266 1.26933,0 2.50133,-1.19466 1.232,-1.19467 1.94133,-3.472 0.14933,-0.448 0.224,-0.52267 0.112,-0.112 0.448,-0.112 0.56,0 0.56,0.37334 0,0.336 -0.37333,1.232 -0.37334,0.85866 -1.04534,1.90399 -0.672,1.04534 -1.82933,1.82934 -1.15733,0.78399 -2.50133,0.78399 -1.008,0 -2.05333,-0.55999 -1.008,-0.56 -1.49333,-1.97867 -1.456,2.53866 -3.65867,2.53866 -1.344,0 -2.31466,-0.63466 -0.97067,-0.63467 -0.97067,-1.68 z"
         style="letter-spacing:1.2px;fill:#ffffff"
         id="path83678" />
    </g>
    <text
       xml:space="preserve"
       style="font-style:normal;font-weight:normal;font-size:40px;line-height:1.25;font-family:sans-serif;display:none;fill:#000000;fill-opacity:1;stroke:none"
       x="849.11676"
       y="114.85411"
       id="text85819"><tspan
         sodipodi:role="line"
         id="tspan85817"
         x="849.11676"
         y="114.85411" /></text>
    <path
       d="M 631.12509,490.27511 H 857.14491"
       stroke="#000000"
       stroke-width="1.57573"
       stroke-miterlimit="8"
       fill="none"
       fill-rule="evenodd"
       id="path183-7"
       style="display:none;fill:#ffffff;stroke:#ffffff;stroke-width:2.498;stroke-miterlimit:8;stroke-dasharray:none;stroke-opacity:1" />
    <path
       d="m 850.90881,267.08477 q 0,-0.93333 0.56,-1.49333 0.56,-0.56 1.30666,-0.56 0.48534,0 0.85867,0.29867 0.41066,0.336 0.41066,0.896 0,0.63466 -0.44799,1.15733 -0.41067,0.52266 -1.19467,0.672 0.48533,0.672 1.49333,0.672 1.38133,0 2.128,-3.21067 0.448,-1.60533 1.04533,-4.62933 l 2.72533,-13.92532 h -2.31466 q -0.93333,0 -0.93333,-0.41066 0,-0.52267 0.224,-0.63467 0.224,-0.112 0.784,-0.112 h 2.46399 l 0.784,-4.10666 q 1.26933,-6.12266 4.85333,-6.12266 1.232,0 2.128,0.67199 0.93333,0.63467 0.93333,1.792 0,0.93334 -0.56,1.49334 -0.56,0.56 -1.30666,0.56 -0.48534,0 -0.896,-0.29867 -0.37333,-0.336 -0.37333,-0.896 0,-0.63467 0.41066,-1.15733 0.448,-0.52267 1.232,-0.672 -0.56,-0.672 -1.568,-0.672 -0.63466,0 -1.08266,0.63466 -0.448,0.63467 -0.59734,1.19467 -0.14933,0.52267 -0.37333,1.53067 -0.448,2.01599 -1.19467,6.04799 h 2.912 q 0.37333,0 0.52267,0.0373 0.18666,0 0.29866,0.112 0.112,0.112 0.112,0.336 0,0.448 -0.224,0.56 -0.224,0.112 -0.78399,0.112 h -3.06134 l -2.61333,13.40266 q -0.224,1.08266 -0.52266,2.09066 -0.26134,1.04534 -0.93334,2.912 -0.67199,1.86667 -1.79199,3.024 -1.08267,1.15733 -2.42667,1.15733 -1.15733,0 -2.05333,-0.672 -0.93333,-0.63467 -0.93333,-1.792 z"
       style="font-style:italic;font-size:37.3333px;line-height:1.25;font-family:'CMU Serif';-inkscape-font-specification:'CMU Serif Italic';letter-spacing:0.9px;display:none;fill:#ffffff"
       id="path228696" />
    <path
       d="m 867.86212,252.56212 q 0,-6.30933 2.352,-11.38666 1.00799,-2.128 2.38933,-3.92 1.41866,-1.79199 2.35199,-2.57599 0.93334,-0.784 1.19467,-0.784 0.37333,0 0.37333,0.37333 0,0.18667 -0.48533,0.63467 -6.01066,6.12266 -6.01066,17.65865 0,11.57332 5.86133,17.47198 0.63466,0.63467 0.63466,0.82134 0,0.37333 -0.37333,0.37333 -0.26133,0 -1.15733,-0.74667 -0.896,-0.74666 -2.27733,-2.464 -1.38134,-1.71733 -2.38933,-3.80799 -2.464,-5.07733 -2.464,-11.64799 z"
       style="font-style:normal;font-size:37.3333px;line-height:1.25;font-family:'TeX Gyre Termes';-inkscape-font-specification:'TeX Gyre Termes Italic';letter-spacing:-1.89px;display:none;fill:#ffffff"
       id="path228698" />
    <path
       d="m 878.74005,259.99144 q 0,-0.89599 0.56,-1.45599 0.56,-0.56 1.30667,-0.56 1.26933,0 1.26933,1.19466 0,0.52267 -0.37333,1.08267 -0.336,0.52266 -1.08267,0.70933 0.63467,0.52267 1.64267,0.52267 0.784,0 1.38133,-0.448 0.63467,-0.448 1.04533,-1.38133 0.448,-0.93334 0.672,-1.64267 0.224,-0.74667 0.52267,-1.94133 0.448,-1.82933 0.85866,-3.39733 0.784,-3.21067 0.784,-4.10667 0,-1.11999 -0.48533,-1.71733 -0.48533,-0.63466 -1.30667,-0.63466 -1.23199,0 -2.50133,1.19466 -1.232,1.19467 -1.94133,3.472 -0.14933,0.448 -0.224,0.56 -0.0747,0.0747 -0.448,0.0747 -0.56,0 -0.56,-0.37334 0,-0.37333 0.37334,-1.26933 0.41066,-0.896 1.08266,-1.904 0.672,-1.04533 1.82933,-1.792 1.15734,-0.784 2.464,-0.784 2.65067,0 3.584,2.53867 0.448,-0.85867 1.38133,-1.68 0.93333,-0.85867 2.27733,-0.85867 1.12,0 2.16533,0.56 1.08267,0.52267 1.08267,1.792 0,0.97067 -0.59733,1.49333 -0.59734,0.48534 -1.232,0.48534 -0.672,0 -1.008,-0.37334 -0.29867,-0.37333 -0.29867,-0.82133 0,-0.18667 0.0373,-0.41067 0.0373,-0.26133 0.41067,-0.74666 0.37333,-0.48533 1.04533,-0.63467 -0.59733,-0.52266 -1.64266,-0.52266 -2.20267,0 -3.28533,3.99466 -0.85867,3.62133 -1.26933,5.11466 -0.70934,3.024 -0.70934,3.77067 0,1.30666 0.52267,1.86666 0.52267,0.52267 1.232,0.52267 1.26933,0 2.50133,-1.19467 1.232,-1.19466 1.94133,-3.472 0.14933,-0.448 0.224,-0.52266 0.112,-0.112 0.448,-0.112 0.56,0 0.56,0.37333 0,0.336 -0.37333,1.232 -0.37334,0.85867 -1.04534,1.904 -0.672,1.04533 -1.82933,1.82933 -1.15733,0.784 -2.50133,0.784 -1.008,0 -2.05333,-0.56 -1.008,-0.56 -1.49333,-1.97867 -1.456,2.53867 -3.65867,2.53867 -1.34399,0 -2.31466,-0.63467 -0.97067,-0.63466 -0.97067,-1.68 z"
       style="font-style:italic;font-size:37.3333px;line-height:1.25;font-family:'CMU Serif';-inkscape-font-specification:'CMU Serif Italic';letter-spacing:0.9px;display:none;fill:#ffffff"
       id="path228700" />
    <path
       d="m 897.76099,270.92595 q 0,-0.18667 0.48533,-0.63467 6.01066,-6.12266 6.01066,-17.65865 0,-11.57333 -5.78666,-17.43465 -0.70933,-0.672 -0.70933,-0.85867 0,-0.37333 0.37333,-0.37333 0.26133,0 1.15733,0.74666 0.896,0.74667 2.27733,2.464 1.38133,1.71733 2.38933,3.808 2.464,5.07733 2.464,11.64799 0,6.30933 -2.352,11.38665 -1.008,2.128 -2.42666,3.92 -1.38133,1.792 -2.31467,2.576 -0.93333,0.784 -1.19466,0.784 -0.37333,0 -0.37333,-0.37333 z"
       style="font-style:normal;font-size:37.3333px;line-height:1.25;font-family:'TeX Gyre Termes';-inkscape-font-specification:'TeX Gyre Termes Italic';letter-spacing:0.9px;display:none;fill:#ffffff"
       id="path228704" />
    <text
       xml:space="preserve"
       style="font-style:normal;font-weight:normal;font-size:40px;line-height:1.25;font-family:sans-serif;display:none;fill:#000000;fill-opacity:1;stroke:none"
       x="666.12732"
       y="267.62274"
       id="text285492"><tspan
         sodipodi:role="line"
         id="tspan285490"
         x="666.12732"
         y="267.62274"></tspan></text>
    <text
       xml:space="preserve"
       style="font-style:italic;font-variant:normal;font-weight:normal;font-stretch:normal;font-size:37.3333px;line-height:1.25;font-family:'TeX Gyre Termes';-inkscape-font-specification:'TeX Gyre Termes Italic';letter-spacing:0.9px;display:inline"
       x="43.795757"
       y="796.79132"
       id="text42064-2-7"
       transform="rotate(-53.307188)"><tspan
         sodipodi:role="line"
         id="tspan42062-6-9"
         x="43.795757"
         y="796.79132"
         style="font-style:normal;font-variant:normal;font-weight:normal;font-stretch:normal;font-size:37.3333px;font-family:'CMU Serif';-inkscape-font-specification:'CMU Serif Italic';fill:#ffffff">pente = <tspan
   style="font-style:italic"
   id="tspan329709">f'</tspan>(<tspan
   style="font-style:italic"
   id="tspan329707">x</tspan>)</tspan></text>
  </g>
</svg>
