<?xml version="1.0" encoding="UTF-8" standalone="no"?>
<svg
   width="656"
   height="568"
   overflow="hidden"
   version="1.1"
   id="svg269"
   sodipodi:docname="newt.svg"
   inkscape:version="1.1.2 (0a00cf5339, 2022-02-04)"
   xmlns:inkscape="http://www.inkscape.org/namespaces/inkscape"
   xmlns:sodipodi="http://sodipodi.sourceforge.net/DTD/sodipodi-0.dtd"
   xmlns="http://www.w3.org/2000/svg"
   xmlns:svg="http://www.w3.org/2000/svg">
  <sodipodi:namedview
     id="namedview271"
     pagecolor="#505050"
     bordercolor="#eeeeee"
     borderopacity="1"
     inkscape:pageshadow="0"
     inkscape:pageopacity="0"
     inkscape:pagecheckerboard="0"
     showgrid="false"
     inkscape:zoom="3.5931475"
     inkscape:cx="305.72082"
     inkscape:cy="368.47916"
     inkscape:window-width="3440"
     inkscape:window-height="1405"
     inkscape:window-x="0"
     inkscape:window-y="35"
     inkscape:window-maximized="1"
     inkscape:current-layer="g267" />
  <defs
     id="defs175">
    <clipPath
       id="clip0">
      <rect
         x="334"
         y="76"
         width="656"
         height="568"
         id="rect172" />
    </clipPath>
  </defs>
  <g
     clip-path="url(#clip0)"
     transform="translate(-334,-76)"
     id="g267">
    <path
       d="M 837,489 V 242"
       stroke="#0000ff"
       stroke-width="2.49795"
       stroke-miterlimit="8"
       stroke-dasharray="9.99181, 7.49386"
       fill="none"
       fill-rule="evenodd"
       id="path177" />
    <path
       d="M 393,519 V 99"
       stroke="#000000"
       stroke-width="2.49795"
       stroke-miterlimit="8"
       fill="none"
       fill-rule="evenodd"
       id="path179"
       style="stroke:#ffffff;stroke-opacity:1" />
    <path
       d="M 383,104 393.004,76 403,104 Z"
       fill-rule="evenodd"
       id="path181"
       style="fill:#ffffff" />
    <path
       d="M 334,490 H 902"
       stroke="#000000"
       stroke-width="2.49795"
       stroke-miterlimit="8"
       fill="none"
       fill-rule="evenodd"
       id="path183"
       style="fill:#ffffff;stroke:#ffffff;stroke-opacity:1" />
    <path
       d="M 898,480 925,490.004 898,500 Z"
       fill-rule="evenodd"
       id="path185"
       style="fill:#ffffff" />
    <path
       d="M 600,558 925,122"
       stroke="#ff0000"
       stroke-width="2.49795"
       stroke-miterlimit="8"
       fill="none"
       fill-rule="evenodd"
       id="path187" />
    <path
       d="m 334,565 c 0,0 178.82224,-29.90166 354.14235,-169.91911 C 739.44752,354.10659 790.45278,303.70236 836.589,241.858 882.232,180.676 926,102 926,102"
       stroke="#0000ff"
       stroke-width="2.49795"
       stroke-miterlimit="8"
       fill="none"
       fill-rule="evenodd"
       id="path189"
       sodipodi:nodetypes="cscc" />
    <text
       font-family="'Cambria Math', 'Cambria Math_MSFontService', sans-serif"
       font-weight="400"
       font-size="21px"
       id="text243"
       transform="translate(672.913,479)" />
    <text
       font-family="'Cambria Math', 'Cambria Math_MSFontService', sans-serif"
       font-weight="400"
       font-size="21px"
       transform="translate(513.134,313)"
       id="text247" />
    <text
       font-family="'Cambria Math', 'Cambria Math_MSFontService', sans-serif"
       font-weight="400"
       font-size="21px"
       transform="rotate(-53.653931,677.27383,-725.46838)"
       id="text261" />
    <path
       d="m 828,243 c 0,-3.866 3.134,-7 7,-7 3.866,0 7,3.134 7,7 0,3.866 -3.134,7 -7,7 -3.866,0 -7,-3.134 -7,-7 z"
       fill-rule="evenodd"
       id="path263"
       style="fill:#ffffff" />
    <path
       d="m 643,490.5 c 0,-3.59 3.134,-6.5 7,-6.5 3.866,0 7,2.91 7,6.5 0,3.59 -3.134,6.5 -7,6.5 -3.866,0 -7,-2.91 -7,-6.5 z"
       fill-rule="evenodd"
       id="path265"
       style="fill:#ffffff" />
    <path
       d="m 830.43915,490.45567 c 0,-3.59 3.134,-6.5 7,-6.5 3.866,0 7,2.91 7,6.5 0,3.59 -3.134,6.5 -7,6.5 -3.866,0 -7,-2.91 -7,-6.5 z"
       fill-rule="evenodd"
       id="path265-9"
       style="fill:#ffffff" />
    <text
       xml:space="preserve"
       style="font-style:normal;font-variant:normal;font-weight:normal;font-stretch:normal;font-size:40px;line-height:1.25;font-family:'DejaVu Math TeX Gyre';-inkscape-font-specification:'DejaVu Math TeX Gyre'"
       x="656.05884"
       y="510.57864"
       id="text40388"><tspan
         sodipodi:role="line"
         id="tspan40386"
         x="656.05884"
         y="510.57864" /></text>
    <g
       aria-label="xn + 1"
       id="text42064"
       style="font-style:italic;font-size:37.3333px;line-height:1.25;font-family:'TeX Gyre Termes';-inkscape-font-specification:'TeX Gyre Termes Italic'">
      <path
         d="m 650.62088,519.62963 q 0,-0.896 0.56,-1.456 0.56,-0.56 1.30666,-0.56 1.26933,0 1.26933,1.19467 0,0.52267 -0.37333,1.08267 -0.336,0.52266 -1.08266,0.70933 0.63466,0.52266 1.64266,0.52266 0.784,0 1.38133,-0.448 0.63467,-0.448 1.04534,-1.38133 0.44799,-0.93333 0.67199,-1.64266 0.224,-0.74667 0.52267,-1.94133 0.448,-1.82934 0.85867,-3.39734 0.784,-3.21066 0.784,-4.10666 0,-1.12 -0.48534,-1.71733 -0.48533,-0.63467 -1.30666,-0.63467 -1.232,0 -2.50133,1.19467 -1.232,1.19467 -1.94134,3.472 -0.14933,0.448 -0.22399,0.56 -0.0747,0.0747 -0.448,0.0747 -0.56,0 -0.56,-0.37333 0,-0.37333 0.37333,-1.26933 0.41067,-0.896 1.08266,-1.904 0.672,-1.04533 1.82934,-1.792 1.15733,-0.784 2.46399,-0.784 2.65067,0 3.584,2.53867 0.448,-0.85867 1.38133,-1.68 0.93334,-0.85867 2.27733,-0.85867 1.12,0 2.16534,0.56 1.08266,0.52267 1.08266,1.792 0,0.97066 -0.59733,1.49333 -0.59733,0.48533 -1.232,0.48533 -0.672,0 -1.008,-0.37333 -0.29867,-0.37333 -0.29867,-0.82133 0,-0.18667 0.0373,-0.41067 0.0373,-0.26133 0.41066,-0.74666 0.37334,-0.48534 1.04534,-0.63467 -0.59734,-0.52267 -1.64267,-0.52267 -2.20266,0 -3.28533,3.99467 -0.85866,3.62133 -1.26933,5.11466 -0.70933,3.024 -0.70933,3.77066 0,1.30667 0.52266,1.86667 0.52267,0.52266 1.232,0.52266 1.26933,0 2.50133,-1.19466 1.232,-1.19467 1.94133,-3.472 0.14934,-0.448 0.224,-0.52266 0.112,-0.112 0.448,-0.112 0.56,0 0.56,0.37333 0,0.336 -0.37333,1.232 -0.37333,0.85866 -1.04533,1.904 -0.672,1.04533 -1.82933,1.82933 -1.15734,0.784 -2.50134,0.784 -1.00799,0 -2.05333,-0.56 -1.008,-0.56 -1.49333,-1.97867 -1.456,2.53867 -3.65866,2.53867 -1.344,0 -2.31467,-0.63467 -0.97066,-0.63467 -0.97066,-1.68 z"
         style="font-family:'CMU Serif';-inkscape-font-specification:'CMU Serif Italic';fill:#ffffff"
         id="path340121" />
      <path
         d="m 667.94164,522.0115 q 0,-0.0485 0.0971,-0.41254 0.0971,-0.38826 0.2912,-0.99493 0.19414,-0.60666 0.38827,-1.04346 0.67947,-1.28614 1.7472,-1.28614 0.8008,0 1.35893,0.53387 0.55813,0.5096 0.67947,1.3832 0.24266,-0.364 0.5824,-0.728 0.364,-0.364 1.16479,-0.77653 0.82507,-0.41254 1.72294,-0.41254 1.06773,0 1.79573,0.5824 0.728,0.5824 0.728,1.94133 0,1.48027 -1.48027,5.41147 -0.4368,1.3104 -0.4368,1.82 0,0.70373 0.53387,0.70373 1.35893,0 2.2568,-3.03333 0.0728,-0.2912 0.12133,-0.33974 0.0728,-0.0728 0.2912,-0.0728 0.364,0 0.364,0.24267 0,0.0728 -0.0971,0.4368 -0.0971,0.364 -0.33973,0.9464 -0.24267,0.55813 -0.5824,1.092 -0.33973,0.5096 -0.89787,0.89786 -0.53386,0.364 -1.16479,0.364 -0.84934,0 -1.35894,-0.55813 -0.48533,-0.55813 -0.48533,-1.3832 0,-0.53386 0.38827,-1.55306 1.40746,-4.02827 1.40746,-5.36293 0,-1.6016 -1.11626,-1.6016 -1.86853,0 -3.276,2.4024 -0.41253,0.67946 -0.728,1.9656 -0.0485,0.26693 -0.19413,0.8008 -0.1456,0.50959 -0.19414,0.77653 l -0.97066,3.88266 q -0.24267,0.63093 -0.8736,0.63093 -0.33973,0 -0.5096,-0.19413 -0.16987,-0.19413 -0.16987,-0.4368 0,-0.12133 0.0728,-0.33973 l 1.82,-7.28 q 0.16987,-0.67946 0.16987,-1.23759 0,-0.97067 -0.63094,-0.97067 -0.53386,0 -0.92213,0.728 -0.364,0.728 -0.728,2.15973 -0.0971,0.38827 -0.16986,0.48533 -0.0485,0.0728 -0.2912,0.0728 -0.364,0 -0.364,-0.24266 z"
         style="font-size:65%;letter-spacing:-2.44px;baseline-shift:sub;fill:#ffffff"
         id="path340123" />
      <path
         d="m 685.31411,523.22483 q -0.55814,0 -0.55814,-0.2912 0,-0.2912 0.5824,-0.2912 0.0728,0 0.19414,0.0243 0.12133,0 0.1456,0 h 6.84319 v -6.86746 q 0,-0.0243 -0.0243,-0.12134 0,-0.12133 0,-0.19413 0,-0.5824 0.2912,-0.5824 0.2912,0 0.2912,0.5824 v 7.18293 h 6.8432 q 0.0243,0 0.1456,0 0.12133,-0.0243 0.19413,-0.0243 0.55813,0 0.55813,0.2912 0,0.2912 -0.5824,0.2912 -0.0728,0 -0.19413,0 -0.0971,-0.0243 -0.12133,-0.0243 h -6.8432 v 7.2072 q 0,0.55813 -0.2912,0.55813 -0.2912,0 -0.2912,-0.5824 0,-0.0728 0,-0.19413 0.0243,-0.0971 0.0243,-0.12134 v -6.86746 h -6.84319 q -0.0243,0 -0.16987,0.0243 -0.12133,0 -0.19413,0 z"
         style="font-style:normal;font-size:65%;letter-spacing:-2.44px;baseline-shift:sub;fill:#ffffff"
         id="path340125" />
      <path
         d="m 707.6127,515.14404 v -0.75227 q 2.912,0 4.41653,-1.55306 0.41254,0 0.48534,0.0971 0.0728,0.0971 0.0728,0.53387 v 13.61359 q 0,0.728 0.33973,0.9464 0.364,0.21839 1.91706,0.21839 h 0.77654 v 0.75227 q -0.84934,-0.0728 -3.9312,-0.0728 -3.08186,0 -3.9312,0.0728 v -0.75227 h 0.77654 q 1.5288,0 1.89279,-0.21839 0.364,-0.2184 0.364,-0.9464 V 514.5131 q -1.26186,0.63094 -3.17893,0.63094 z"
         style="font-style:normal;font-size:65%;letter-spacing:-2.44px;baseline-shift:sub;fill:#ffffff"
         id="path340127" />
    </g>
    <g
       aria-label="xn "
       id="text42064-9"
       style="font-style:italic;font-size:37.3333px;line-height:1.25;font-family:'TeX Gyre Termes';-inkscape-font-specification:'TeX Gyre Termes Italic'">
      <path
         d="m 825.80044,518.60888 q 0,-0.896 0.56,-1.456 0.56,-0.56 1.30667,-0.56 1.26933,0 1.26933,1.19467 0,0.52266 -0.37333,1.08266 -0.336,0.52267 -1.08267,0.70934 0.63467,0.52266 1.64267,0.52266 0.784,0 1.38133,-0.448 0.63466,-0.448 1.04533,-1.38133 0.448,-0.93333 0.672,-1.64266 0.224,-0.74667 0.52267,-1.94134 0.448,-1.82933 0.85866,-3.39733 0.784,-3.21066 0.784,-4.10666 0,-1.12 -0.48533,-1.71733 -0.48533,-0.63467 -1.30667,-0.63467 -1.232,0 -2.50133,1.19467 -1.232,1.19466 -1.94133,3.47199 -0.14933,0.448 -0.224,0.56 -0.0747,0.0747 -0.448,0.0747 -0.56,0 -0.56,-0.37333 0,-0.37334 0.37333,-1.26933 0.41067,-0.896 1.08267,-1.904 0.672,-1.04534 1.82933,-1.792 1.15733,-0.784 2.464,-0.784 2.65066,0 3.584,2.53866 0.448,-0.85866 1.38133,-1.67999 0.93333,-0.85867 2.27733,-0.85867 1.12,0 2.16533,0.56 1.08267,0.52266 1.08267,1.792 0,0.97066 -0.59734,1.49333 -0.59733,0.48533 -1.23199,0.48533 -0.672,0 -1.008,-0.37333 -0.29867,-0.37333 -0.29867,-0.82133 0,-0.18667 0.0373,-0.41067 0.0373,-0.26133 0.41067,-0.74667 0.37333,-0.48533 1.04533,-0.63466 -0.59733,-0.52267 -1.64266,-0.52267 -2.20267,0 -3.28533,3.99467 -0.85867,3.62133 -1.26934,5.11466 -0.70933,3.02399 -0.70933,3.77066 0,1.30667 0.52267,1.86667 0.52266,0.52266 1.232,0.52266 1.26933,0 2.50133,-1.19466 1.232,-1.19467 1.94133,-3.472 0.14933,-0.448 0.224,-0.52267 0.112,-0.112 0.448,-0.112 0.56,0 0.56,0.37334 0,0.336 -0.37333,1.232 -0.37334,0.85866 -1.04534,1.90399 -0.672,1.04534 -1.82933,1.82934 -1.15733,0.78399 -2.50133,0.78399 -1.008,0 -2.05333,-0.55999 -1.008,-0.56 -1.49333,-1.97867 -1.456,2.53866 -3.65867,2.53866 -1.344,0 -2.31466,-0.63466 -0.97067,-0.63467 -0.97067,-1.68 z"
         style="font-family:'CMU Serif';-inkscape-font-specification:'CMU Serif Italic';fill:#ffffff"
         id="path340116" />
      <path
         d="m 843.1212,520.99075 q 0,-0.0485 0.0971,-0.41254 0.0971,-0.38826 0.2912,-0.99493 0.19413,-0.60667 0.38827,-1.04347 0.67946,-1.28613 1.74719,-1.28613 0.8008,0 1.35894,0.53387 0.55813,0.5096 0.67946,1.3832 0.24267,-0.364 0.5824,-0.728 0.364,-0.364 1.1648,-0.77654 0.82507,-0.41253 1.72293,-0.41253 1.06773,0 1.79573,0.5824 0.728,0.5824 0.728,1.94133 0,1.48027 -1.48026,5.41146 -0.4368,1.3104 -0.4368,1.82 0,0.70374 0.53386,0.70374 1.35894,0 2.2568,-3.03333 0.0728,-0.2912 0.12134,-0.33974 0.0728,-0.0728 0.2912,-0.0728 0.364,0 0.364,0.24267 0,0.0728 -0.0971,0.4368 -0.0971,0.364 -0.33973,0.9464 -0.24267,0.55813 -0.5824,1.092 -0.33974,0.5096 -0.89787,0.89786 -0.53387,0.364 -1.1648,0.364 -0.84933,0 -1.35893,-0.55813 -0.48533,-0.55813 -0.48533,-1.3832 0,-0.53387 0.38826,-1.55306 1.40747,-4.02827 1.40747,-5.36293 0,-1.6016 -1.11627,-1.6016 -1.86853,0 -3.27599,2.4024 -0.41254,0.67946 -0.728,1.96559 -0.0485,0.26694 -0.19414,0.8008 -0.1456,0.5096 -0.19413,0.77654 l -0.97067,3.88266 q -0.24266,0.63093 -0.8736,0.63093 -0.33973,0 -0.5096,-0.19413 -0.16986,-0.19413 -0.16986,-0.4368 0,-0.12133 0.0728,-0.33973 l 1.82,-7.28 q 0.16986,-0.67946 0.16986,-1.2376 0,-0.97066 -0.63093,-0.97066 -0.53387,0 -0.92213,0.728 -0.364,0.728 -0.728,2.15973 -0.0971,0.38826 -0.16987,0.48533 -0.0485,0.0728 -0.2912,0.0728 -0.364,0 -0.364,-0.24266 z"
         style="font-size:65%;letter-spacing:-2.44px;baseline-shift:sub;fill:#ffffff"
         id="path340118" />
    </g>
  </g>
</svg>
